<svg width="369" height="80" viewBox="0 0 369 80" fill="none" xmlns="http://www.w3.org/2000/svg">
<g clip-path="url(#clip0_54_1040)">
<path d="M17.0869 52.765C25.4174 52.765 28.6669 47.678 28.6669 38.9745C28.6669 30.2729 24.8668 24.2056 17.3309 24.2056H8.88517V52.765H17.0869ZM0 16.6073H18.4343C30.1354 16.6073 37.6712 26.045 37.6712 38.9745C37.6712 46.0827 35.281 52.3355 30.6861 56.1961C27.4386 58.8909 23.2107 60.4239 17.6981 60.4239H0V16.6073ZM63.0476 44.7372C63.0476 38.6073 60.1691 34.4401 55.0841 34.4401C49.9366 34.4401 47.1167 38.6073 47.1167 44.7372C47.1167 50.8649 49.9366 54.9697 55.0841 54.9697C60.1691 54.9697 63.0476 50.8649 63.0476 44.7372ZM38.6632 44.7372C38.6632 35.3599 45.3417 28.1287 55.0841 28.1287C64.8246 28.1287 71.5031 35.3599 71.5031 44.7372C71.5031 54.1105 64.8246 61.3436 55.0841 61.3436C45.3397 61.3436 38.6612 54.1125 38.6612 44.7372M72.8799 44.7372C72.8799 35.3599 79.0076 28.1287 88.5646 28.1287C96.7155 28.1287 101.738 32.8486 102.841 39.6502H94.6924C94.1418 36.8927 91.9976 34.8073 88.9337 34.8073C83.9091 34.8073 81.3374 38.6699 81.3374 44.7372C81.3374 50.6814 83.7256 54.6651 88.8106 54.6651C92.1811 54.6651 94.5713 52.8881 95.122 49.334H103.148C102.597 56.0125 97.3873 61.3436 88.9943 61.3436C79.0702 61.3436 72.8799 54.1125 72.8799 44.7372ZM124.843 60.4257V56.7487H124.66C122.516 59.629 120.065 61.2831 115.654 61.2831C108.669 61.2831 104.747 56.8112 104.747 49.9453V28.986H113.017V48.5353C113.017 52.2124 114.673 54.2355 118.225 54.2355C122.147 54.2355 124.537 51.2946 124.537 47.1274V28.986H132.869V60.4257H124.843ZM173.466 60.4257H181.796V28.986H173.466V60.4257ZM173.466 24.5922H181.796V16.8006H173.466V24.5922ZM207.249 43.3253C207.249 38.7304 204.798 34.8091 199.774 34.8091C195.546 34.8091 192.728 38.1172 192.728 43.3877C192.728 48.7189 195.546 51.8453 199.836 51.8453C205.105 51.8453 207.249 47.9846 207.249 43.3272M185.253 61.3436H193.521C194.197 63.3042 195.972 64.8371 199.832 64.8371C204.55 64.8371 206.818 62.57 206.818 58.2797V54.8468H206.633C204.794 56.9304 202.407 58.5238 198.422 58.5238C191.439 58.5238 184.577 53.0091 184.577 43.5108C184.577 34.1335 190.212 28.1287 198.179 28.1287C202.1 28.1287 204.979 29.6597 206.878 32.296H207.001V28.986H215.026V58.0337C215.026 62.4469 213.617 65.4483 211.29 67.5945C208.653 70.0452 204.611 71.1485 199.956 71.1485C191.377 71.1485 186.108 67.4715 185.251 61.3436M226.751 33.2763H226.935C229.08 29.9058 231.96 28.1287 236.248 28.1287C242.743 28.1287 247.092 33.0301 247.092 39.8942V60.4239H238.76V41.1206C238.76 37.7501 236.798 35.3599 233.306 35.3599C229.63 35.3599 226.935 38.3007 226.935 42.591V60.4239H218.602V28.986H226.751V33.2763ZM154.477 34.0105C147.982 32.6044 144.918 31.5617 144.918 28.0057C144.918 24.8812 148.042 22.8581 152.822 22.8581C157.184 22.8581 160.517 24.9047 161.201 28.986H169.745C168.877 20.4776 162.563 15.8105 152.883 15.8105C143.144 15.8105 136.096 20.2844 136.096 28.9254C136.096 38.0567 143.263 40.1403 151.107 41.9173C157.784 43.4503 161.952 44.3075 161.952 48.5958C161.952 52.6421 157.969 54.2355 153.436 54.2355C147.187 54.2355 144.184 52.1518 143.57 46.8812H134.871C135.178 56.1355 141.917 61.4042 153.803 61.4042C163.667 61.4042 170.835 56.4421 170.835 47.555C170.835 38.1172 163.483 35.9731 154.477 34.0105Z" fill="#050038"/>
</g>
<defs>
<clipPath id="clip0_54_1040">
<rect width="368.92" height="79.0543" fill="white"/>
</clipPath>
</defs>
</svg>
