<svg width="369" height="80" viewBox="0 0 369 80" fill="none" xmlns="http://www.w3.org/2000/svg">
<g clip-path="url(#clip0_54_1052)">
<path d="M368.92 0.000976562H0V79.0552H368.92V0.000976562Z" fill="white"/>
<path d="M5.38454 21.7715V26.5657H0V32.8171H5.38454V57.948C5.38454 59.8548 7.3352 61.3823 9.78799 61.3823C12.2408 61.3823 14.2378 59.8663 14.2378 57.9597V32.8287H21.3952V26.5774H14.2378V21.7715C14.2378 15.9889 18.7185 14.9223 24.8523 16.3015V10.05C16.2155 8.10032 5.38454 9.00678 5.38454 21.7715ZM32.9639 32.8287H32.7785V26.5774H25.6133V57.9675C25.6133 59.8742 27.5446 61.402 30.0168 61.402C32.4888 61.402 34.4549 59.8742 34.4549 57.9675V42.1631C34.4549 34.7081 39.2562 32.8132 45.0695 32.8132V25.7803C39.8124 25.7528 34.8876 27.5072 32.9639 32.8287ZM94.8438 25.7959C86.3072 25.7959 79.3932 30.0742 79.3932 38.4824C79.3932 42.9601 81.3592 46.2656 84.4919 48.3794C84.2601 48.5317 84.036 48.6879 83.8158 48.8521C79.9339 51.7551 79.5167 56.7602 83.0742 59.4914C81.3322 61.0541 78.8639 63.8517 78.8639 67.7511C78.8639 73.94 84.5807 77.9371 94.8398 77.9371C105.099 77.9371 112.933 73.0726 112.933 65.5826C112.933 58.0925 107.787 55.1505 98.4012 55.1505H92.2635C87.9643 55.1505 88.3313 52.1459 89.7489 50.8526C89.8223 50.7862 89.8996 50.7236 89.9846 50.6572C91.5821 50.9968 93.2113 51.1619 94.8438 51.1496C103.384 51.1496 110.294 46.8516 110.294 38.4707C110.314 36.7353 109.976 35.0148 109.302 33.4187C110.609 33.0571 111.956 32.8615 113.311 32.8366V26.5852C109.514 26.5852 107.065 26.843 104.47 28.1207C101.839 26.5539 98.4902 25.7763 94.8438 25.7763V25.7959ZM90.1506 61.4137H98.3936C101.777 61.4137 104.083 62.4765 104.083 65.5826C104.083 69.7555 100.545 71.6778 94.8128 71.6778C86.0137 71.6582 86.539 64.344 90.1506 61.3941V61.4137ZM94.8438 44.8981C91.1936 44.8981 88.2271 43.4642 88.2271 38.4786C88.2271 33.493 91.1936 32.0591 94.8438 32.0591C98.494 32.0591 101.464 33.4891 101.464 38.4786C101.464 43.468 98.5016 44.8981 94.8438 44.8981ZM61.1344 25.7763C51.5394 25.7763 45.6836 31.7817 45.6836 43.5852C45.6836 55.3888 51.5472 61.3941 61.1344 61.3941C70.7214 61.3941 76.585 55.3888 76.585 43.5852C76.585 31.7817 70.733 25.7763 61.1344 25.7763ZM61.1344 55.1309C57.4802 55.1309 54.5175 53.6305 54.5175 43.5852C54.5175 33.54 57.4996 32.0474 61.1344 32.0474C64.769 32.0474 67.7511 33.5438 67.7511 43.5852C67.7511 53.6267 64.7884 55.1309 61.1344 55.1309Z" fill="#050038"/>
</g>
<defs>
<clipPath id="clip0_54_1052">
<rect width="368.92" height="79.0543" fill="white" transform="translate(0 0.000976562)"/>
</clipPath>
</defs>
</svg>
