<svg width="40" height="32" viewBox="0 0 40 32" fill="none" xmlns="http://www.w3.org/2000/svg">
<path d="M7.87921 1.6119e-08H31.6359C31.8989 -3.65556e-05 32.1581 0.0621591 32.3925 0.181503C32.6268 0.300847 32.8296 0.473951 32.9842 0.686667L39.3559 9.44667C39.4692 9.60254 39.5249 9.79284 39.5137 9.98519C39.5024 10.1775 39.4249 10.3601 39.2942 10.5017L20.3692 31.0033C20.2193 31.1654 20.0111 31.2613 19.7905 31.2701C19.5699 31.2788 19.3548 31.1997 19.1925 31.05C19.1809 31.04 12.8592 24.1917 0.220876 10.5017C0.0902154 10.3601 0.012664 10.1775 0.00142066 9.98519C-0.00982266 9.79284 0.0459369 9.60254 0.159209 9.44667L6.53088 0.686667C6.68551 0.473951 6.88828 0.300847 7.12263 0.181503C7.35697 0.0621591 7.61623 -3.65556e-05 7.87921 1.6119e-08ZM8.72921 3.33333L4.06254 9.75L19.7575 26.75L35.4525 9.75L30.7859 3.33333H8.72921Z" fill="white"/>
</svg>
