<svg width="369" height="80" viewBox="0 0 369 80" fill="none" xmlns="http://www.w3.org/2000/svg">
<g clip-path="url(#clip0_54_1017)">
<path d="M368.92 0H0V79.0543H368.92V0Z" fill="white"/>
<path d="M0.55247 25.1132C1.63314 22.9984 4.35133 21.9506 6.58977 22.6936C7.98986 23.1366 9.12559 24.2626 9.66042 25.621C12.6491 32.6877 15.6512 39.7493 18.6386 46.8158C18.7206 46.6652 18.799 46.5123 18.8675 46.3544C21.1635 40.9119 23.4778 35.4755 25.7847 30.0367C26.8899 27.4801 28.6767 25.1144 31.1758 23.7938C32.565 23.0521 34.1192 22.6458 35.6833 22.5173C39.7306 22.0755 43.8464 24.0043 46.3738 27.1423C48.7223 25.129 51.4331 23.4168 54.4818 22.7267C56.1302 22.346 57.8424 22.4194 59.5094 22.6238C61.5936 22.8943 63.6533 23.6128 65.3289 24.9052C66.1733 25.5402 66.9002 26.3186 67.5574 27.1436C70.4519 24.3458 74.361 22.4978 78.4229 22.4562C81.0114 22.4011 83.628 23.0889 85.8064 24.5012C88.3142 26.0972 90.1694 28.682 90.8438 31.5813C91.1742 32.9189 91.189 34.3055 91.1853 35.675C91.1853 41.5495 91.1841 47.424 91.1865 53.2986C91.1705 54.0807 91.1413 54.8737 90.9258 55.6313C90.5489 57.0816 89.5857 58.4277 88.1844 59.0299C86.2114 59.8915 83.6108 59.5685 82.1764 57.8697C81.0211 56.5639 80.7298 54.7439 80.78 53.0551C80.7825 47.5893 80.78 42.1236 80.7812 36.6578C80.78 35.2394 80.2587 33.7903 79.2134 32.8076C78.2577 31.8933 76.9248 31.4418 75.6141 31.4319C74.1578 31.3952 72.6511 31.8567 71.579 32.87C70.5486 33.8306 69.9954 35.2491 70.0052 36.6492C70.0052 42.2802 70.0064 47.91 70.004 53.5409C69.9966 54.9998 69.6601 56.5174 68.7287 57.6751C67.9931 58.6236 66.8733 59.2441 65.6899 59.4142C64.3693 59.6063 62.941 59.413 61.831 58.6358C60.8311 57.9517 60.169 56.8576 59.8582 55.701C59.54 54.6032 59.5926 53.4492 59.5914 52.3195C59.5914 47.0973 59.5902 41.8763 59.5926 36.6541C59.5803 35.3556 59.1533 34.0326 58.2733 33.0609C57.2868 31.9521 55.7766 31.4161 54.3141 31.4307C52.8419 31.4196 51.3206 31.9166 50.2779 32.985C49.2791 33.9702 48.7957 35.3899 48.7982 36.7765C48.7982 42.4478 48.7969 48.1205 48.7982 53.7919C48.7883 55.2237 48.3796 56.6997 47.4385 57.8048C46.7482 58.6297 45.7606 59.1865 44.7056 59.3787C43.1905 59.659 41.4991 59.4007 40.3033 58.374C38.9877 57.2565 38.4224 55.4795 38.4173 53.7955C38.4125 46.8954 38.4173 39.9965 38.415 33.0976C38.4284 32.5579 38.1653 32.0133 37.7002 31.7281C36.9892 31.2508 35.8693 31.4809 35.5291 32.3045C32.2933 39.3539 29.0524 46.4009 25.8215 53.4528C25.1178 54.9202 24.3748 56.4059 23.2587 57.6103C22.446 58.489 21.363 59.1205 20.1819 59.3396C18.3265 59.6944 16.2546 59.4399 14.7456 58.2282C13.1521 56.9469 12.233 55.0598 11.3934 53.2435C7.73651 45.2786 4.0674 37.3198 0.416622 29.3538C-0.168383 28.0137 -0.150025 26.4068 0.55247 25.1132Z" fill="#050038"/>
<path d="M213.671 23.6712C216.076 23.0165 218.629 22.9455 221.078 23.3983C223.796 23.8989 226.375 25.1729 228.389 27.0687C232.171 30.5787 233.949 35.8584 233.869 40.9398C233.804 42.122 232.732 43.1612 231.539 43.1379C223.235 43.1404 214.929 43.1367 206.623 43.1391C206.813 45.5452 207.595 47.9269 208.968 49.9205C210.325 51.8971 212.319 53.4293 214.585 54.2114C216.925 55.0448 219.498 55.0913 221.911 54.5602C224.208 54.0498 226.335 52.8848 228.099 51.3378C228.505 50.9926 228.878 50.5765 229.396 50.3978C230.293 50.0551 231.375 50.4224 231.928 51.197C232.533 51.9851 232.48 53.2005 231.794 53.9238C230.099 55.642 228.116 57.1082 225.884 58.0482C223.616 59.0138 221.137 59.4066 218.68 59.4189C216.095 59.4274 213.494 58.8914 211.161 57.7679C207.112 55.8734 203.961 52.2459 202.523 48.0285C201.474 45.063 201.22 41.8541 201.559 38.7393C202.052 34.424 203.985 30.2152 207.213 27.2656C209.041 25.5792 211.269 24.3272 213.671 23.6712ZM213.68 28.3476C211.58 29.274 209.847 30.9274 208.674 32.8881C207.494 34.8193 206.848 37.0431 206.6 39.2827C207.199 39.3243 207.799 39.2949 208.4 39.3035C215.174 39.306 221.949 39.2974 228.721 39.3072C228.733 38.7198 228.612 38.1421 228.521 37.5644C228.098 35.2355 227.209 32.9481 225.697 31.1049C224.353 29.4441 222.446 28.2509 220.364 27.7724C218.149 27.2718 215.763 27.4126 213.68 28.3476Z" fill="#050038"/>
<path d="M95.3083 23.2933C96.165 23.0558 97.1685 23.2395 97.8073 23.882C98.1794 24.232 98.4437 24.6824 98.6151 25.1609C101.577 33.7255 104.53 42.2937 107.479 50.8632C107.903 49.8436 108.21 48.7777 108.596 47.7424C111.196 40.2168 113.803 32.6951 116.417 25.1744C116.707 24.3017 117.362 23.4769 118.297 23.2726C119.214 23.0817 120.27 23.1844 120.997 23.8245C121.457 24.2149 121.742 24.7632 121.939 25.325C124.725 33.4037 127.499 41.4872 130.28 49.5683C130.444 49.9979 130.55 50.4508 130.757 50.8644C133.756 42.2289 136.766 33.5969 139.78 24.9675C140.009 24.3519 140.413 23.7731 141.01 23.4696C141.902 23.0143 143.053 23.1317 143.837 23.7535C144.566 24.3067 144.926 25.3005 144.7 26.1902C144.532 26.8449 144.279 27.4729 144.055 28.1079C140.811 37.1376 137.544 46.1598 134.296 55.1882C134.038 55.8748 133.818 56.5762 133.53 57.2517C133.142 58.1084 132.407 58.8672 131.463 59.074C130.557 59.2515 129.526 59.1131 128.828 58.4633C128.065 57.7964 127.833 56.7731 127.505 55.859C124.747 47.8917 121.974 39.9292 119.209 31.9643C119.175 31.8958 119.105 31.76 119.071 31.6915C117.977 34.6813 116.963 37.703 115.896 40.7039C114.076 45.8979 112.259 51.0932 110.445 56.2909C110.194 57.0106 109.969 57.7828 109.403 58.3312C108.656 59.1377 107.416 59.3151 106.399 58.9969C105.407 58.6787 104.725 57.7742 104.393 56.8222C100.878 47.0068 97.341 37.2 93.8286 27.3834C93.634 26.818 93.3843 26.2477 93.4149 25.6383C93.4089 24.5442 94.2692 23.5601 95.3083 23.2933Z" fill="#050038"/>
<path d="M157.478 23.3172C160.264 23.1226 163.104 23.1055 165.835 23.7627C167.896 24.2535 169.886 25.1616 171.479 26.5764C173.381 28.2127 174.593 30.5369 175.133 32.9649C175.743 35.4971 175.547 38.1149 175.58 40.6936C175.58 45.9991 175.577 51.3044 175.581 56.6111C175.599 57.4004 175.248 58.2008 174.616 58.6843C173.864 59.2693 172.785 59.322 171.93 58.9425C171.125 58.5852 170.595 57.7285 170.586 56.8547C170.574 55.7226 170.604 54.5904 170.573 53.4584C169.308 55.0005 167.831 56.3884 166.085 57.3712C163.708 58.7455 160.953 59.4125 158.215 59.4199C155.447 59.4872 152.641 58.8617 150.218 57.5033C148.251 56.3945 146.568 54.7068 145.673 52.6139C144.747 50.5004 144.662 48.0931 145.121 45.8534C145.605 43.5402 146.984 41.445 148.892 40.0547C151.301 38.2789 154.289 37.487 157.23 37.2031C161.714 36.8384 166.26 37.3194 170.579 38.5739C170.656 36.2938 170.458 33.8803 169.218 31.9001C168.218 30.237 166.545 29.0584 164.714 28.4721C163.213 27.9826 161.627 27.7929 160.052 27.8234C157.91 27.7905 155.74 28.0157 153.709 28.7291C153.052 28.9446 152.43 29.2517 151.783 29.4891C150.913 29.8049 149.895 29.4928 149.305 28.7977C148.41 27.81 148.629 25.9816 149.858 25.3672C152.24 24.2169 154.838 23.5131 157.478 23.3172ZM155.918 41.4793C154.191 41.9518 152.489 42.8182 151.394 44.2758C150.277 45.72 149.944 47.6549 150.228 49.4307C150.492 51.0804 151.484 52.5723 152.85 53.522C154.99 55.0507 157.734 55.4681 160.308 55.2379C162.957 55.0041 165.594 54.0544 167.615 52.2934C169.386 50.7721 170.557 48.5361 170.641 46.1887C170.655 44.9416 170.645 43.6945 170.644 42.4486C168.458 41.7902 166.208 41.3557 163.939 41.122C161.269 40.876 158.53 40.7756 155.918 41.4793Z" fill="#050038"/>
<path d="M181.918 25.7611C181.897 24.4149 183.058 23.1653 184.413 23.1372C185.813 23.0417 187.122 24.235 187.152 25.6399C187.174 27.6483 187.152 29.659 187.16 31.6687C187.593 30.9258 187.95 30.1389 188.456 29.4387C190.595 26.3339 193.943 24.011 197.675 23.3391C198.633 23.2008 199.7 23.0197 200.579 23.5459C202.125 24.416 202.241 26.9286 200.815 27.9665C200.202 28.4695 199.391 28.5124 198.644 28.6286C195.982 29.0949 193.418 30.3102 191.51 32.2464C189.923 33.8031 188.803 35.7955 188.118 37.9018C187.38 40.1793 187.115 42.5903 187.16 44.9782C187.16 48.7721 187.158 52.5661 187.16 56.36C187.169 57.0834 186.904 57.8188 186.385 58.3304C185.753 58.9962 184.741 59.2459 183.863 58.9986C183.003 58.7919 182.289 58.0967 182.038 57.2521C181.871 56.7675 181.925 56.2499 181.92 55.7481C181.92 45.7528 181.921 35.7576 181.918 25.7611Z" fill="#050038"/>
</g>
<defs>
<clipPath id="clip0_54_1017">
<rect width="368.92" height="79.0543" fill="white"/>
</clipPath>
</defs>
</svg>
