<svg width="640" height="640" viewBox="0 0 640 640" fill="none" xmlns="http://www.w3.org/2000/svg">
<g clip-path="url(#clip0_132_3043)">
<path d="M639.58 489.148H0V489.468H639.58V489.148Z" fill="#EBEBEB"/>
<path d="M575.496 509.738H533.128V510.058H575.496V509.738Z" fill="#EBEBEB"/>
<path d="M423.684 513.209H412.564V513.529H423.684V513.209Z" fill="#EBEBEB"/>
<path d="M531.847 497.859H507.297V498.179H531.847V497.859Z" fill="#EBEBEB"/>
<path d="M122.354 500.009H67.1035V500.328H122.354V500.009Z" fill="#EBEBEB"/>
<path d="M141.845 500.009H133.744V500.328H141.845V500.009Z" fill="#EBEBEB"/>
<path d="M287.999 505.41H168.173V505.73H287.999V505.41Z" fill="#EBEBEB"/>
<path d="M303.179 432.1H56.1745C52.149 432.1 48.873 428.825 48.873 424.799V77.5939C48.873 73.5684 52.149 70.2925 56.1745 70.2925H303.179C307.203 70.2925 310.479 73.5684 310.479 77.5939V424.799C310.479 428.825 307.203 432.1 303.179 432.1ZM56.1745 70.6135C52.3242 70.6135 49.1928 73.7449 49.1928 77.5952V424.8C49.1928 428.651 52.3242 431.782 56.1745 431.782H303.179C307.028 431.782 310.159 428.651 310.159 424.8V77.5939C310.159 73.7449 307.028 70.6123 303.179 70.6123L56.1745 70.6135Z" fill="#EBEBEB"/>
<path d="M579.857 432.1H332.854C328.828 432.1 325.554 428.825 325.554 424.799V77.5939C325.554 73.5684 328.83 70.2925 332.854 70.2925H579.857C583.884 70.2925 587.159 73.5684 587.159 77.5939V424.799C587.16 428.825 583.884 432.1 579.857 432.1ZM332.854 70.6135C329.005 70.6135 325.874 73.7449 325.874 77.5952V424.8C325.874 428.651 329.005 431.782 332.854 431.782H579.857C583.707 431.782 586.839 428.651 586.839 424.8V77.5939C586.839 73.7449 583.707 70.6123 579.857 70.6123L332.854 70.6135Z" fill="#EBEBEB"/>
<path d="M569.765 149.887H259.849V448.621H569.765V149.887Z" fill="#E0E0E0"/>
<path d="M569.765 155.312H264.822V443.411H569.765V155.312Z" fill="#F5F5F5"/>
<path d="M267.072 373.637V286.982H276.075V275.536L296.333 266.062V254.346H299.709V286.982H303.085V373.637H307.586V328.622H317.714V304.988H321.091V373.637H328.968V347.753H334.595V341H346.975V317.368H353.728V301.612H361.605V277.98H364.981V301.612H372.859V317.368H379.612V341H391.99V347.753H397.617V373.637H404.37V341H416.748V268.976H420.125V261.099H447.135V268.976H452.762V320.743H475.268V326.37H483.147V329.747H475.268V350.004H498.902V282.481H503.404V268.976H514.658V217.208H518.033V268.976H525.912V282.481H569.764V443.411H264.822V373.637H267.072Z" fill="#E6E6E6"/>
<path d="M546.333 286.009H543.144V289.198H546.333V286.009Z" fill="#F0F0F0"/>
<path d="M546.333 291.354H543.144V294.543H546.333V291.354Z" fill="#F0F0F0"/>
<path d="M546.333 312.737H543.144V315.926H546.333V312.737Z" fill="#F0F0F0"/>
<path d="M546.333 318.083H543.144V321.272H546.333V318.083Z" fill="#F0F0F0"/>
<path d="M546.333 323.428H543.144V326.617H546.333V323.428Z" fill="#F0F0F0"/>
<path d="M546.333 339.465H543.144V342.654H546.333V339.465Z" fill="#F0F0F0"/>
<path d="M546.333 344.811H543.144V348H546.333V344.811Z" fill="#F0F0F0"/>
<path d="M541.267 307.391H538.078V310.58H541.267V307.391Z" fill="#F0F0F0"/>
<path d="M541.267 312.737H538.078V315.926H541.267V312.737Z" fill="#F0F0F0"/>
<path d="M541.267 318.083H538.078V321.272H541.267V318.083Z" fill="#F0F0F0"/>
<path d="M541.267 323.428H538.078V326.617H541.267V323.428Z" fill="#F0F0F0"/>
<path d="M541.267 328.774H538.078V331.963H541.267V328.774Z" fill="#F0F0F0"/>
<path d="M541.267 339.465H538.078V342.654H541.267V339.465Z" fill="#F0F0F0"/>
<path d="M541.267 344.811H538.078V348H541.267V344.811Z" fill="#F0F0F0"/>
<path d="M536.204 286.009H533.015V289.198H536.204V286.009Z" fill="#F0F0F0"/>
<path d="M536.204 291.354H533.015V294.543H536.204V291.354Z" fill="#F0F0F0"/>
<path d="M536.204 296.7H533.015V299.889H536.204V296.7Z" fill="#F0F0F0"/>
<path d="M536.204 302.046H533.015V305.235H536.204V302.046Z" fill="#F0F0F0"/>
<path d="M536.204 307.391H533.015V310.58H536.204V307.391Z" fill="#F0F0F0"/>
<path d="M536.204 312.737H533.015V315.926H536.204V312.737Z" fill="#F0F0F0"/>
<path d="M536.204 318.083H533.015V321.272H536.204V318.083Z" fill="#F0F0F0"/>
<path d="M536.204 323.428H533.015V326.617H536.204V323.428Z" fill="#F0F0F0"/>
<path d="M536.204 328.774H533.015V331.963H536.204V328.774Z" fill="#F0F0F0"/>
<path d="M536.204 334.12H533.015V337.308H536.204V334.12Z" fill="#F0F0F0"/>
<path d="M536.204 344.811H533.015V348H536.204V344.811Z" fill="#F0F0F0"/>
<path d="M531.139 286.009H527.95V289.198H531.139V286.009Z" fill="#F0F0F0"/>
<path d="M531.139 291.354H527.95V294.543H531.139V291.354Z" fill="#F0F0F0"/>
<path d="M531.139 296.7H527.95V299.889H531.139V296.7Z" fill="#F0F0F0"/>
<path d="M531.139 302.046H527.95V305.235H531.139V302.046Z" fill="#F0F0F0"/>
<path d="M531.139 307.391H527.95V310.58H531.139V307.391Z" fill="#F0F0F0"/>
<path d="M531.139 312.737H527.95V315.926H531.139V312.737Z" fill="#F0F0F0"/>
<path d="M531.139 318.083H527.95V321.272H531.139V318.083Z" fill="#F0F0F0"/>
<path d="M531.139 366.193H527.95V369.382H531.139V366.193Z" fill="#F0F0F0"/>
<path d="M526.076 286.009H522.887V289.198H526.076V286.009Z" fill="#F0F0F0"/>
<path d="M526.076 291.354H522.887V294.543H526.076V291.354Z" fill="#F0F0F0"/>
<path d="M526.076 296.7H522.887V299.889H526.076V296.7Z" fill="#F0F0F0"/>
<path d="M526.076 302.046H522.887V305.235H526.076V302.046Z" fill="#F0F0F0"/>
<path d="M526.076 307.391H522.887V310.58H526.076V307.391Z" fill="#F0F0F0"/>
<path d="M526.076 312.737H522.887V315.926H526.076V312.737Z" fill="#F0F0F0"/>
<path d="M526.076 318.083H522.887V321.272H526.076V318.083Z" fill="#F0F0F0"/>
<path d="M526.076 323.428H522.887V326.617H526.076V323.428Z" fill="#F0F0F0"/>
<path d="M526.076 355.502H522.887V358.691H526.076V355.502Z" fill="#F0F0F0"/>
<path d="M526.076 360.847H522.887V364.036H526.076V360.847Z" fill="#F0F0F0"/>
<path d="M526.076 366.193H522.887V369.382H526.076V366.193Z" fill="#F0F0F0"/>
<path d="M526.076 371.539H522.887V374.728H526.076V371.539Z" fill="#F0F0F0"/>
<path d="M526.076 392.921H522.887V396.11H526.076V392.921Z" fill="#F0F0F0"/>
<path d="M521.01 286.009H517.821V289.198H521.01V286.009Z" fill="#F0F0F0"/>
<path d="M521.01 291.354H517.821V294.543H521.01V291.354Z" fill="#F0F0F0"/>
<path d="M521.01 296.7H517.821V299.889H521.01V296.7Z" fill="#F0F0F0"/>
<path d="M521.01 302.046H517.821V305.235H521.01V302.046Z" fill="#F0F0F0"/>
<path d="M521.01 307.391H517.821V310.58H521.01V307.391Z" fill="#F0F0F0"/>
<path d="M521.01 312.737H517.821V315.926H521.01V312.737Z" fill="#F0F0F0"/>
<path d="M521.01 318.083H517.821V321.272H521.01V318.083Z" fill="#F0F0F0"/>
<path d="M521.01 323.428H517.821V326.617H521.01V323.428Z" fill="#F0F0F0"/>
<path d="M521.01 328.774H517.821V331.963H521.01V328.774Z" fill="#F0F0F0"/>
<path d="M521.01 334.12H517.821V337.308H521.01V334.12Z" fill="#F0F0F0"/>
<path d="M521.01 350.156H517.821V353.345H521.01V350.156Z" fill="#F0F0F0"/>
<path d="M521.01 355.502H517.821V358.691H521.01V355.502Z" fill="#F0F0F0"/>
<path d="M521.01 360.847H517.821V364.036H521.01V360.847Z" fill="#F0F0F0"/>
<path d="M521.01 366.193H517.821V369.382H521.01V366.193Z" fill="#F0F0F0"/>
<path d="M521.01 371.539H517.821V374.728H521.01V371.539Z" fill="#F0F0F0"/>
<path d="M521.01 392.921H517.821V396.11H521.01V392.921Z" fill="#F0F0F0"/>
<path d="M515.946 286.009H512.757V289.198H515.946V286.009Z" fill="#F0F0F0"/>
<path d="M515.946 291.354H512.757V294.543H515.946V291.354Z" fill="#F0F0F0"/>
<path d="M515.946 296.7H512.757V299.889H515.946V296.7Z" fill="#F0F0F0"/>
<path d="M515.946 302.046H512.757V305.235H515.946V302.046Z" fill="#F0F0F0"/>
<path d="M515.946 307.391H512.757V310.58H515.946V307.391Z" fill="#F0F0F0"/>
<path d="M515.946 312.737H512.757V315.926H515.946V312.737Z" fill="#F0F0F0"/>
<path d="M515.946 318.083H512.757V321.272H515.946V318.083Z" fill="#F0F0F0"/>
<path d="M515.946 323.428H512.757V326.617H515.946V323.428Z" fill="#F0F0F0"/>
<path d="M515.946 328.774H512.757V331.963H515.946V328.774Z" fill="#F0F0F0"/>
<path d="M515.946 334.12H512.757V337.308H515.946V334.12Z" fill="#F0F0F0"/>
<path d="M515.946 339.465H512.757V342.654H515.946V339.465Z" fill="#F0F0F0"/>
<path d="M515.946 344.811H512.757V348H515.946V344.811Z" fill="#F0F0F0"/>
<path d="M515.946 350.156H512.757V353.345H515.946V350.156Z" fill="#F0F0F0"/>
<path d="M515.946 355.502H512.757V358.691H515.946V355.502Z" fill="#F0F0F0"/>
<path d="M515.946 360.847H512.757V364.036H515.946V360.847Z" fill="#F0F0F0"/>
<path d="M515.946 366.193H512.757V369.382H515.946V366.193Z" fill="#F0F0F0"/>
<path d="M515.946 371.539H512.757V374.728H515.946V371.539Z" fill="#F0F0F0"/>
<path d="M515.946 376.884H512.757V380.073H515.946V376.884Z" fill="#F0F0F0"/>
<path d="M510.881 286.009H507.692V289.198H510.881V286.009Z" fill="#F0F0F0"/>
<path d="M510.881 291.354H507.692V294.543H510.881V291.354Z" fill="#F0F0F0"/>
<path d="M510.881 296.7H507.692V299.889H510.881V296.7Z" fill="#F0F0F0"/>
<path d="M510.881 302.046H507.692V305.235H510.881V302.046Z" fill="#F0F0F0"/>
<path d="M510.881 307.391H507.692V310.58H510.881V307.391Z" fill="#F0F0F0"/>
<path d="M510.881 312.737H507.692V315.926H510.881V312.737Z" fill="#F0F0F0"/>
<path d="M510.881 318.083H507.692V321.272H510.881V318.083Z" fill="#F0F0F0"/>
<path d="M510.881 323.428H507.692V326.617H510.881V323.428Z" fill="#F0F0F0"/>
<path d="M510.881 328.774H507.692V331.963H510.881V328.774Z" fill="#F0F0F0"/>
<path d="M510.881 334.12H507.692V337.308H510.881V334.12Z" fill="#F0F0F0"/>
<path d="M510.881 350.156H507.692V353.345H510.881V350.156Z" fill="#F0F0F0"/>
<path d="M510.881 355.502H507.692V358.691H510.881V355.502Z" fill="#F0F0F0"/>
<path d="M510.881 360.847H507.692V364.036H510.881V360.847Z" fill="#F0F0F0"/>
<path d="M510.881 366.193H507.692V369.382H510.881V366.193Z" fill="#F0F0F0"/>
<path d="M505.817 286.009H502.628V289.198H505.817V286.009Z" fill="#F0F0F0"/>
<path d="M505.817 291.354H502.628V294.543H505.817V291.354Z" fill="#F0F0F0"/>
<path d="M505.817 296.7H502.628V299.889H505.817V296.7Z" fill="#F0F0F0"/>
<path d="M505.817 302.046H502.628V305.235H505.817V302.046Z" fill="#F0F0F0"/>
<path d="M505.817 307.391H502.628V310.58H505.817V307.391Z" fill="#F0F0F0"/>
<path d="M505.817 312.737H502.628V315.926H505.817V312.737Z" fill="#F0F0F0"/>
<path d="M505.817 318.083H502.628V321.272H505.817V318.083Z" fill="#F0F0F0"/>
<path d="M505.817 323.428H502.628V326.617H505.817V323.428Z" fill="#F0F0F0"/>
<path d="M505.817 328.774H502.628V331.963H505.817V328.774Z" fill="#F0F0F0"/>
<path d="M505.817 334.12H502.628V337.308H505.817V334.12Z" fill="#F0F0F0"/>
<path d="M505.817 350.156H502.628V353.345H505.817V350.156Z" fill="#F0F0F0"/>
<path d="M505.817 355.502H502.628V358.691H505.817V355.502Z" fill="#F0F0F0"/>
<path d="M505.817 360.847H502.628V364.036H505.817V360.847Z" fill="#F0F0F0"/>
<path d="M448.798 272.129H445.609V275.318H448.798V272.129Z" fill="#F0F0F0"/>
<path d="M448.798 277.474H445.609V280.663H448.798V277.474Z" fill="#F0F0F0"/>
<path d="M448.798 282.82H445.609V286.009H448.798V282.82Z" fill="#F0F0F0"/>
<path d="M448.798 288.166H445.609V291.354H448.798V288.166Z" fill="#F0F0F0"/>
<path d="M448.798 293.511H445.609V296.7H448.798V293.511Z" fill="#F0F0F0"/>
<path d="M448.798 298.857H445.609V302.046H448.798V298.857Z" fill="#F0F0F0"/>
<path d="M448.798 304.202H445.609V307.391H448.798V304.202Z" fill="#F0F0F0"/>
<path d="M448.798 309.548H445.609V312.737H448.798V309.548Z" fill="#F0F0F0"/>
<path d="M448.798 325.585H445.609V328.774H448.798V325.585Z" fill="#F0F0F0"/>
<path d="M448.798 330.931H445.609V334.119H448.798V330.931Z" fill="#F0F0F0"/>
<path d="M443.734 272.129H440.545V275.318H443.734V272.129Z" fill="#F0F0F0"/>
<path d="M443.734 277.474H440.545V280.663H443.734V277.474Z" fill="#F0F0F0"/>
<path d="M443.734 282.82H440.545V286.009H443.734V282.82Z" fill="#F0F0F0"/>
<path d="M443.734 288.166H440.545V291.354H443.734V288.166Z" fill="#F0F0F0"/>
<path d="M443.734 293.511H440.545V296.7H443.734V293.511Z" fill="#F0F0F0"/>
<path d="M443.734 298.857H440.545V302.046H443.734V298.857Z" fill="#F0F0F0"/>
<path d="M443.734 304.202H440.545V307.391H443.734V304.202Z" fill="#F0F0F0"/>
<path d="M443.734 309.548H440.545V312.737H443.734V309.548Z" fill="#F0F0F0"/>
<path d="M443.734 330.931H440.545V334.119H443.734V330.931Z" fill="#F0F0F0"/>
<path d="M438.67 272.129H435.481V275.318H438.67V272.129Z" fill="#F0F0F0"/>
<path d="M438.67 277.474H435.481V280.663H438.67V277.474Z" fill="#F0F0F0"/>
<path d="M438.67 282.82H435.481V286.009H438.67V282.82Z" fill="#F0F0F0"/>
<path d="M438.67 288.166H435.481V291.354H438.67V288.166Z" fill="#F0F0F0"/>
<path d="M438.67 293.511H435.481V296.7H438.67V293.511Z" fill="#F0F0F0"/>
<path d="M438.67 298.857H435.481V302.046H438.67V298.857Z" fill="#F0F0F0"/>
<path d="M438.67 304.202H435.481V307.391H438.67V304.202Z" fill="#F0F0F0"/>
<path d="M438.67 309.548H435.481V312.737H438.67V309.548Z" fill="#F0F0F0"/>
<path d="M433.605 272.129H430.416V275.318H433.605V272.129Z" fill="#F0F0F0"/>
<path d="M433.605 277.474H430.416V280.663H433.605V277.474Z" fill="#F0F0F0"/>
<path d="M433.605 282.82H430.416V286.009H433.605V282.82Z" fill="#F0F0F0"/>
<path d="M433.605 288.166H430.416V291.354H433.605V288.166Z" fill="#F0F0F0"/>
<path d="M433.605 293.511H430.416V296.7H433.605V293.511Z" fill="#F0F0F0"/>
<path d="M433.605 298.857H430.416V302.046H433.605V298.857Z" fill="#F0F0F0"/>
<path d="M433.605 309.548H430.416V312.737H433.605V309.548Z" fill="#F0F0F0"/>
<path d="M433.605 314.894H430.416V318.082H433.605V314.894Z" fill="#F0F0F0"/>
<path d="M433.605 330.931H430.416V334.119H433.605V330.931Z" fill="#F0F0F0"/>
<path d="M433.605 336.276H430.416V339.465H433.605V336.276Z" fill="#F0F0F0"/>
<path d="M433.605 341.622H430.416V344.811H433.605V341.622Z" fill="#F0F0F0"/>
<path d="M433.605 346.967H430.416V350.156H433.605V346.967Z" fill="#F0F0F0"/>
<path d="M433.605 352.313H430.416V355.502H433.605V352.313Z" fill="#F0F0F0"/>
<path d="M433.605 357.658H430.416V360.847H433.605V357.658Z" fill="#F0F0F0"/>
<path d="M433.605 363.004H430.416V366.193H433.605V363.004Z" fill="#F0F0F0"/>
<path d="M428.54 272.129H425.352V275.318H428.54V272.129Z" fill="#F0F0F0"/>
<path d="M428.54 277.474H425.352V280.663H428.54V277.474Z" fill="#F0F0F0"/>
<path d="M428.54 282.82H425.352V286.009H428.54V282.82Z" fill="#F0F0F0"/>
<path d="M428.54 288.166H425.352V291.354H428.54V288.166Z" fill="#F0F0F0"/>
<path d="M428.54 293.511H425.352V296.7H428.54V293.511Z" fill="#F0F0F0"/>
<path d="M428.54 298.857H425.352V302.046H428.54V298.857Z" fill="#F0F0F0"/>
<path d="M428.54 314.894H425.352V318.083H428.54V314.894Z" fill="#F0F0F0"/>
<path d="M428.54 320.239H425.352V323.428H428.54V320.239Z" fill="#F0F0F0"/>
<path d="M428.54 325.585H425.352V328.774H428.54V325.585Z" fill="#F0F0F0"/>
<path d="M428.54 330.931H425.352V334.119H428.54V330.931Z" fill="#F0F0F0"/>
<path d="M428.54 336.276H425.352V339.465H428.54V336.276Z" fill="#F0F0F0"/>
<path d="M428.54 341.622H425.352V344.811H428.54V341.622Z" fill="#F0F0F0"/>
<path d="M428.54 346.967H425.352V350.156H428.54V346.967Z" fill="#F0F0F0"/>
<path d="M428.54 352.313H425.352V355.502H428.54V352.313Z" fill="#F0F0F0"/>
<path d="M428.54 357.658H425.352V360.847H428.54V357.658Z" fill="#F0F0F0"/>
<path d="M428.54 363.004H425.352V366.193H428.54V363.004Z" fill="#F0F0F0"/>
<path d="M428.54 368.35H425.352V371.539H428.54V368.35Z" fill="#F0F0F0"/>
<path d="M428.54 379.041H425.352V382.23H428.54V379.041Z" fill="#F0F0F0"/>
<path d="M423.478 272.129H420.289V275.318H423.478V272.129Z" fill="#F0F0F0"/>
<path d="M423.478 277.474H420.289V280.663H423.478V277.474Z" fill="#F0F0F0"/>
<path d="M423.478 282.82H420.289V286.009H423.478V282.82Z" fill="#F0F0F0"/>
<path d="M423.478 288.166H420.289V291.354H423.478V288.166Z" fill="#F0F0F0"/>
<path d="M423.478 293.511H420.289V296.7H423.478V293.511Z" fill="#F0F0F0"/>
<path d="M423.478 298.857H420.289V302.046H423.478V298.857Z" fill="#F0F0F0"/>
<path d="M423.478 314.894H420.289V318.082H423.478V314.894Z" fill="#F0F0F0"/>
<path d="M423.478 320.239H420.289V323.428H423.478V320.239Z" fill="#F0F0F0"/>
<path d="M423.478 325.585H420.289V328.774H423.478V325.585Z" fill="#F0F0F0"/>
<path d="M423.478 330.931H420.289V334.119H423.478V330.931Z" fill="#F0F0F0"/>
<path d="M423.478 346.967H420.289V350.156H423.478V346.967Z" fill="#F0F0F0"/>
<path d="M423.478 352.313H420.289V355.502H423.478V352.313Z" fill="#F0F0F0"/>
<path d="M423.478 357.658H420.289V360.847H423.478V357.658Z" fill="#F0F0F0"/>
<path d="M423.478 363.004H420.289V366.193H423.478V363.004Z" fill="#F0F0F0"/>
<path d="M423.478 368.35H420.289V371.539H423.478V368.35Z" fill="#F0F0F0"/>
<path d="M423.478 379.041H420.289V382.23H423.478V379.041Z" fill="#F0F0F0"/>
<path d="M423.478 384.387H420.289V387.576H423.478V384.387Z" fill="#F0F0F0"/>
<path d="M377.524 321.834H374.335V325.023H377.524V321.834Z" fill="#F0F0F0"/>
<path d="M377.524 327.18H374.335V330.369H377.524V327.18Z" fill="#F0F0F0"/>
<path d="M377.524 332.526H374.335V335.715H377.524V332.526Z" fill="#F0F0F0"/>
<path d="M377.524 337.87H374.335V341.059H377.524V337.87Z" fill="#F0F0F0"/>
<path d="M377.524 343.217H374.335V346.406H377.524V343.217Z" fill="#F0F0F0"/>
<path d="M377.524 348.561H374.335V351.75H377.524V348.561Z" fill="#F0F0F0"/>
<path d="M377.524 353.908H374.335V357.097H377.524V353.908Z" fill="#F0F0F0"/>
<path d="M377.524 369.944H374.335V373.133H377.524V369.944Z" fill="#F0F0F0"/>
<path d="M377.524 375.289H374.335V378.478H377.524V375.289Z" fill="#F0F0F0"/>
<path d="M377.524 380.635H374.335V383.824H377.524V380.635Z" fill="#F0F0F0"/>
<path d="M372.459 321.834H369.271V325.023H372.459V321.834Z" fill="#F0F0F0"/>
<path d="M372.459 327.18H369.271V330.369H372.459V327.18Z" fill="#F0F0F0"/>
<path d="M372.459 332.526H369.271V335.715H372.459V332.526Z" fill="#F0F0F0"/>
<path d="M372.459 337.87H369.271V341.059H372.459V337.87Z" fill="#F0F0F0"/>
<path d="M372.459 343.217H369.271V346.406H372.459V343.217Z" fill="#F0F0F0"/>
<path d="M372.459 348.561H369.271V351.75H372.459V348.561Z" fill="#F0F0F0"/>
<path d="M372.459 353.908H369.271V357.097H372.459V353.908Z" fill="#F0F0F0"/>
<path d="M367.395 321.834H364.206V325.023H367.395V321.834Z" fill="#F0F0F0"/>
<path d="M367.395 327.18H364.206V330.369H367.395V327.18Z" fill="#F0F0F0"/>
<path d="M367.395 332.526H364.206V335.715H367.395V332.526Z" fill="#F0F0F0"/>
<path d="M367.395 337.87H364.206V341.059H367.395V337.87Z" fill="#F0F0F0"/>
<path d="M367.395 343.217H364.206V346.406H367.395V343.217Z" fill="#F0F0F0"/>
<path d="M367.395 348.561H364.206V351.75H367.395V348.561Z" fill="#F0F0F0"/>
<path d="M367.395 353.908H364.206V357.097H367.395V353.908Z" fill="#F0F0F0"/>
<path d="M362.331 321.834H359.142V325.023H362.331V321.834Z" fill="#F0F0F0"/>
<path d="M362.331 327.18H359.142V330.369H362.331V327.18Z" fill="#F0F0F0"/>
<path d="M362.331 332.526H359.142V335.715H362.331V332.526Z" fill="#F0F0F0"/>
<path d="M362.331 337.87H359.142V341.059H362.331V337.87Z" fill="#F0F0F0"/>
<path d="M362.331 343.217H359.142V346.406H362.331V343.217Z" fill="#F0F0F0"/>
<path d="M362.331 348.561H359.142V351.75H362.331V348.561Z" fill="#F0F0F0"/>
<path d="M362.331 353.908H359.142V357.097H362.331V353.908Z" fill="#F0F0F0"/>
<path d="M362.331 359.252H359.142V362.441H362.331V359.252Z" fill="#F0F0F0"/>
<path d="M362.331 364.598H359.142V367.787H362.331V364.598Z" fill="#F0F0F0"/>
<path d="M362.331 369.944H359.142V373.133H362.331V369.944Z" fill="#F0F0F0"/>
<path d="M362.331 375.289H359.142V378.478H362.331V375.289Z" fill="#F0F0F0"/>
<path d="M357.267 321.834H354.078V325.023H357.267V321.834Z" fill="#F0F0F0"/>
<path d="M357.267 327.18H354.078V330.369H357.267V327.18Z" fill="#F0F0F0"/>
<path d="M357.267 332.526H354.078V335.715H357.267V332.526Z" fill="#F0F0F0"/>
<path d="M357.267 337.87H354.078V341.059H357.267V337.87Z" fill="#F0F0F0"/>
<path d="M357.267 343.217H354.078V346.406H357.267V343.217Z" fill="#F0F0F0"/>
<path d="M357.267 348.561H354.078V351.75H357.267V348.561Z" fill="#F0F0F0"/>
<path d="M357.267 353.908H354.078V357.097H357.267V353.908Z" fill="#F0F0F0"/>
<path d="M357.267 359.252H354.078V362.441H357.267V359.252Z" fill="#F0F0F0"/>
<path d="M357.267 364.598H354.078V367.787H357.267V364.598Z" fill="#F0F0F0"/>
<path d="M357.267 369.944H354.078V373.133H357.267V369.944Z" fill="#F0F0F0"/>
<path d="M357.267 375.289H354.078V378.478H357.267V375.289Z" fill="#F0F0F0"/>
<path d="M357.267 380.635H354.078V383.824H357.267V380.635Z" fill="#F0F0F0"/>
<path d="M357.267 396.672H354.078V399.861H357.267V396.672Z" fill="#F0F0F0"/>
<path d="M357.267 402.017H354.078V405.206H357.267V402.017Z" fill="#F0F0F0"/>
<path d="M352.203 321.834H349.014V325.023H352.203V321.834Z" fill="#F0F0F0"/>
<path d="M352.203 327.18H349.014V330.369H352.203V327.18Z" fill="#F0F0F0"/>
<path d="M352.203 332.526H349.014V335.715H352.203V332.526Z" fill="#F0F0F0"/>
<path d="M352.203 348.561H349.014V351.75H352.203V348.561Z" fill="#F0F0F0"/>
<path d="M352.203 353.908H349.014V357.097H352.203V353.908Z" fill="#F0F0F0"/>
<path d="M352.203 359.252H349.014V362.441H352.203V359.252Z" fill="#F0F0F0"/>
<path d="M352.203 364.598H349.014V367.787H352.203V364.598Z" fill="#F0F0F0"/>
<path d="M352.203 369.944H349.014V373.133H352.203V369.944Z" fill="#F0F0F0"/>
<path d="M352.203 375.289H349.014V378.478H352.203V375.289Z" fill="#F0F0F0"/>
<path d="M352.203 380.635H349.014V383.824H352.203V380.635Z" fill="#F0F0F0"/>
<path d="M352.203 396.672H349.014V399.861H352.203V396.672Z" fill="#F0F0F0"/>
<path d="M352.203 402.017H349.014V405.206H352.203V402.017Z" fill="#F0F0F0"/>
<path d="M352.203 407.363H349.014V410.552H352.203V407.363Z" fill="#F0F0F0"/>
<path d="M299.121 289.761H295.932V292.95H299.121V289.761Z" fill="#F0F0F0"/>
<path d="M299.121 295.106H295.932V298.295H299.121V295.106Z" fill="#F0F0F0"/>
<path d="M299.121 300.452H295.932V303.641H299.121V300.452Z" fill="#F0F0F0"/>
<path d="M299.121 305.797H295.932V308.986H299.121V305.797Z" fill="#F0F0F0"/>
<path d="M299.121 311.143H295.932V314.332H299.121V311.143Z" fill="#F0F0F0"/>
<path d="M299.121 316.489H295.932V319.678H299.121V316.489Z" fill="#F0F0F0"/>
<path d="M299.121 321.834H295.932V325.023H299.121V321.834Z" fill="#F0F0F0"/>
<path d="M299.121 327.18H295.932V330.369H299.121V327.18Z" fill="#F0F0F0"/>
<path d="M299.121 332.526H295.932V335.715H299.121V332.526Z" fill="#F0F0F0"/>
<path d="M299.121 337.87H295.932V341.059H299.121V337.87Z" fill="#F0F0F0"/>
<path d="M299.121 343.217H295.932V346.406H299.121V343.217Z" fill="#F0F0F0"/>
<path d="M299.121 348.561H295.932V351.75H299.121V348.561Z" fill="#F0F0F0"/>
<path d="M299.121 353.908H295.932V357.097H299.121V353.908Z" fill="#F0F0F0"/>
<path d="M299.121 359.252H295.932V362.441H299.121V359.252Z" fill="#F0F0F0"/>
<path d="M299.121 364.598H295.932V367.787H299.121V364.598Z" fill="#F0F0F0"/>
<path d="M299.121 369.944H295.932V373.133H299.121V369.944Z" fill="#F0F0F0"/>
<path d="M299.121 375.289H295.932V378.478H299.121V375.289Z" fill="#F0F0F0"/>
<path d="M299.121 380.635H295.932V383.824H299.121V380.635Z" fill="#F0F0F0"/>
<path d="M299.121 385.98H295.932V389.169H299.121V385.98Z" fill="#F0F0F0"/>
<path d="M299.121 391.326H295.932V394.515H299.121V391.326Z" fill="#F0F0F0"/>
<path d="M299.121 396.672H295.932V399.861H299.121V396.672Z" fill="#F0F0F0"/>
<path d="M299.121 402.017H295.932V405.206H299.121V402.017Z" fill="#F0F0F0"/>
<path d="M299.121 407.363H295.932V410.552H299.121V407.363Z" fill="#F0F0F0"/>
<path d="M294.057 289.761H290.868V292.95H294.057V289.761Z" fill="#F0F0F0"/>
<path d="M294.057 295.106H290.868V298.295H294.057V295.106Z" fill="#F0F0F0"/>
<path d="M294.057 300.452H290.868V303.641H294.057V300.452Z" fill="#F0F0F0"/>
<path d="M294.057 305.797H290.868V308.986H294.057V305.797Z" fill="#F0F0F0"/>
<path d="M294.057 311.143H290.868V314.332H294.057V311.143Z" fill="#F0F0F0"/>
<path d="M294.057 316.489H290.868V319.678H294.057V316.489Z" fill="#F0F0F0"/>
<path d="M294.057 321.834H290.868V325.023H294.057V321.834Z" fill="#F0F0F0"/>
<path d="M294.057 327.18H290.868V330.369H294.057V327.18Z" fill="#F0F0F0"/>
<path d="M294.057 332.526H290.868V335.715H294.057V332.526Z" fill="#F0F0F0"/>
<path d="M294.057 337.87H290.868V341.059H294.057V337.87Z" fill="#F0F0F0"/>
<path d="M294.057 343.217H290.868V346.406H294.057V343.217Z" fill="#F0F0F0"/>
<path d="M294.057 348.561H290.868V351.75H294.057V348.561Z" fill="#F0F0F0"/>
<path d="M294.057 353.908H290.868V357.097H294.057V353.908Z" fill="#F0F0F0"/>
<path d="M294.057 359.252H290.868V362.441H294.057V359.252Z" fill="#F0F0F0"/>
<path d="M294.057 364.598H290.868V367.787H294.057V364.598Z" fill="#F0F0F0"/>
<path d="M294.057 369.944H290.868V373.133H294.057V369.944Z" fill="#F0F0F0"/>
<path d="M294.057 375.289H290.868V378.478H294.057V375.289Z" fill="#F0F0F0"/>
<path d="M294.057 380.635H290.868V383.824H294.057V380.635Z" fill="#F0F0F0"/>
<path d="M294.057 385.98H290.868V389.169H294.057V385.98Z" fill="#F0F0F0"/>
<path d="M288.993 289.761H285.804V292.95H288.993V289.761Z" fill="#F0F0F0"/>
<path d="M288.993 295.106H285.804V298.295H288.993V295.106Z" fill="#F0F0F0"/>
<path d="M288.993 300.452H285.804V303.641H288.993V300.452Z" fill="#F0F0F0"/>
<path d="M288.993 305.797H285.804V308.986H288.993V305.797Z" fill="#F0F0F0"/>
<path d="M288.993 311.143H285.804V314.332H288.993V311.143Z" fill="#F0F0F0"/>
<path d="M288.993 316.489H285.804V319.678H288.993V316.489Z" fill="#F0F0F0"/>
<path d="M288.993 321.834H285.804V325.023H288.993V321.834Z" fill="#F0F0F0"/>
<path d="M288.993 327.18H285.804V330.369H288.993V327.18Z" fill="#F0F0F0"/>
<path d="M288.993 332.526H285.804V335.715H288.993V332.526Z" fill="#F0F0F0"/>
<path d="M288.993 337.87H285.804V341.059H288.993V337.87Z" fill="#F0F0F0"/>
<path d="M288.993 343.217H285.804V346.406H288.993V343.217Z" fill="#F0F0F0"/>
<path d="M288.993 348.561H285.804V351.75H288.993V348.561Z" fill="#F0F0F0"/>
<path d="M288.993 353.908H285.804V357.097H288.993V353.908Z" fill="#F0F0F0"/>
<path d="M288.993 359.252H285.804V362.441H288.993V359.252Z" fill="#F0F0F0"/>
<path d="M288.993 364.598H285.804V367.787H288.993V364.598Z" fill="#F0F0F0"/>
<path d="M288.993 369.944H285.804V373.133H288.993V369.944Z" fill="#F0F0F0"/>
<path d="M288.993 375.289H285.804V378.478H288.993V375.289Z" fill="#F0F0F0"/>
<path d="M288.993 380.635H285.804V383.824H288.993V380.635Z" fill="#F0F0F0"/>
<path d="M288.993 385.98H285.804V389.169H288.993V385.98Z" fill="#F0F0F0"/>
<path d="M283.928 289.761H280.739V292.95H283.928V289.761Z" fill="#F0F0F0"/>
<path d="M283.928 295.106H280.739V298.295H283.928V295.106Z" fill="#F0F0F0"/>
<path d="M283.928 300.452H280.739V303.641H283.928V300.452Z" fill="#F0F0F0"/>
<path d="M283.928 305.797H280.739V308.986H283.928V305.797Z" fill="#F0F0F0"/>
<path d="M283.928 311.143H280.739V314.332H283.928V311.143Z" fill="#F0F0F0"/>
<path d="M283.928 316.489H280.739V319.678H283.928V316.489Z" fill="#F0F0F0"/>
<path d="M283.928 321.834H280.739V325.023H283.928V321.834Z" fill="#F0F0F0"/>
<path d="M283.928 327.18H280.739V330.369H283.928V327.18Z" fill="#F0F0F0"/>
<path d="M283.928 332.526H280.739V335.715H283.928V332.526Z" fill="#F0F0F0"/>
<path d="M283.928 337.87H280.739V341.059H283.928V337.87Z" fill="#F0F0F0"/>
<path d="M283.928 343.217H280.739V346.406H283.928V343.217Z" fill="#F0F0F0"/>
<path d="M283.928 348.561H280.739V351.75H283.928V348.561Z" fill="#F0F0F0"/>
<path d="M283.928 353.908H280.739V357.097H283.928V353.908Z" fill="#F0F0F0"/>
<path d="M283.928 359.252H280.739V362.441H283.928V359.252Z" fill="#F0F0F0"/>
<path d="M283.928 364.598H280.739V367.787H283.928V364.598Z" fill="#F0F0F0"/>
<path d="M278.864 289.761H275.675V292.95H278.864V289.761Z" fill="#F0F0F0"/>
<path d="M278.864 295.106H275.675V298.295H278.864V295.106Z" fill="#F0F0F0"/>
<path d="M278.864 300.452H275.675V303.641H278.864V300.452Z" fill="#F0F0F0"/>
<path d="M278.864 305.797H275.675V308.986H278.864V305.797Z" fill="#F0F0F0"/>
<path d="M278.864 311.143H275.675V314.332H278.864V311.143Z" fill="#F0F0F0"/>
<path d="M278.864 316.489H275.675V319.678H278.864V316.489Z" fill="#F0F0F0"/>
<path d="M278.864 321.834H275.675V325.023H278.864V321.834Z" fill="#F0F0F0"/>
<path d="M278.864 327.18H275.675V330.369H278.864V327.18Z" fill="#F0F0F0"/>
<path d="M278.864 332.526H275.675V335.715H278.864V332.526Z" fill="#F0F0F0"/>
<path d="M278.864 337.87H275.675V341.059H278.864V337.87Z" fill="#F0F0F0"/>
<path d="M278.864 343.217H275.675V346.406H278.864V343.217Z" fill="#F0F0F0"/>
<path d="M278.864 348.561H275.675V351.75H278.864V348.561Z" fill="#F0F0F0"/>
<path d="M278.864 353.908H275.675V357.097H278.864V353.908Z" fill="#F0F0F0"/>
<path d="M273.8 289.761H270.611V292.95H273.8V289.761Z" fill="#F0F0F0"/>
<path d="M273.8 295.106H270.611V298.295H273.8V295.106Z" fill="#F0F0F0"/>
<path d="M273.8 300.452H270.611V303.641H273.8V300.452Z" fill="#F0F0F0"/>
<path d="M273.8 305.797H270.611V308.986H273.8V305.797Z" fill="#F0F0F0"/>
<path d="M273.8 311.143H270.611V314.332H273.8V311.143Z" fill="#F0F0F0"/>
<path d="M273.8 316.489H270.611V319.678H273.8V316.489Z" fill="#F0F0F0"/>
<path d="M273.8 321.834H270.611V325.023H273.8V321.834Z" fill="#F0F0F0"/>
<path d="M273.8 327.18H270.611V330.369H273.8V327.18Z" fill="#F0F0F0"/>
<path d="M273.8 332.526H270.611V335.715H273.8V332.526Z" fill="#F0F0F0"/>
<path d="M273.8 337.87H270.611V341.059H273.8V337.87Z" fill="#F0F0F0"/>
<path d="M273.8 343.217H270.611V346.406H273.8V343.217Z" fill="#F0F0F0"/>
<path d="M273.8 348.561H270.611V351.75H273.8V348.561Z" fill="#F0F0F0"/>
<path d="M569.402 288.166H566.213V291.354H569.402V288.166Z" fill="#F0F0F0"/>
<path d="M569.402 293.511H566.213V296.7H569.402V293.511Z" fill="#F0F0F0"/>
<path d="M569.402 298.857H566.213V302.046H569.402V298.857Z" fill="#F0F0F0"/>
<path d="M569.402 304.202H566.213V307.391H569.402V304.202Z" fill="#F0F0F0"/>
<path d="M569.402 309.548H566.213V312.737H569.402V309.548Z" fill="#F0F0F0"/>
<path d="M569.402 314.894H566.213V318.083H569.402V314.894Z" fill="#F0F0F0"/>
<path d="M569.402 320.239H566.213V323.428H569.402V320.239Z" fill="#F0F0F0"/>
<path d="M569.402 325.585H566.213V328.774H569.402V325.585Z" fill="#F0F0F0"/>
<path d="M569.402 330.931H566.213V334.119H569.402V330.931Z" fill="#F0F0F0"/>
<path d="M569.402 336.276H566.213V339.465H569.402V336.276Z" fill="#F0F0F0"/>
<path d="M569.402 341.622H566.213V344.811H569.402V341.622Z" fill="#F0F0F0"/>
<path d="M569.402 346.967H566.213V350.156H569.402V346.967Z" fill="#F0F0F0"/>
<path d="M569.402 352.313H566.213V355.502H569.402V352.313Z" fill="#F0F0F0"/>
<path d="M569.402 357.658H566.213V360.847H569.402V357.658Z" fill="#F0F0F0"/>
<path d="M569.402 363.004H566.213V366.193H569.402V363.004Z" fill="#F0F0F0"/>
<path d="M569.402 368.35H566.213V371.539H569.402V368.35Z" fill="#F0F0F0"/>
<path d="M569.402 373.695H566.213V376.884H569.402V373.695Z" fill="#F0F0F0"/>
<path d="M569.402 384.387H566.213V387.576H569.402V384.387Z" fill="#F0F0F0"/>
<path d="M569.402 389.732H566.213V392.921H569.402V389.732Z" fill="#F0F0F0"/>
<path d="M569.402 395.078H566.213V398.267H569.402V395.078Z" fill="#F0F0F0"/>
<path d="M569.402 400.423H566.213V403.612H569.402V400.423Z" fill="#F0F0F0"/>
<path d="M569.402 405.769H566.213V408.958H569.402V405.769Z" fill="#F0F0F0"/>
<path d="M564.336 288.166H561.147V291.354H564.336V288.166Z" fill="#F0F0F0"/>
<path d="M564.336 293.511H561.147V296.7H564.336V293.511Z" fill="#F0F0F0"/>
<path d="M564.336 298.857H561.147V302.046H564.336V298.857Z" fill="#F0F0F0"/>
<path d="M564.336 304.202H561.147V307.391H564.336V304.202Z" fill="#F0F0F0"/>
<path d="M564.336 309.548H561.147V312.737H564.336V309.548Z" fill="#F0F0F0"/>
<path d="M564.336 314.894H561.147V318.082H564.336V314.894Z" fill="#F0F0F0"/>
<path d="M564.336 320.239H561.147V323.428H564.336V320.239Z" fill="#F0F0F0"/>
<path d="M564.336 325.585H561.147V328.774H564.336V325.585Z" fill="#F0F0F0"/>
<path d="M564.336 330.931H561.147V334.119H564.336V330.931Z" fill="#F0F0F0"/>
<path d="M564.336 336.276H561.147V339.465H564.336V336.276Z" fill="#F0F0F0"/>
<path d="M564.336 341.622H561.147V344.811H564.336V341.622Z" fill="#F0F0F0"/>
<path d="M564.336 346.967H561.147V350.156H564.336V346.967Z" fill="#F0F0F0"/>
<path d="M564.336 352.313H561.147V355.502H564.336V352.313Z" fill="#F0F0F0"/>
<path d="M564.336 357.658H561.147V360.847H564.336V357.658Z" fill="#F0F0F0"/>
<path d="M564.336 363.004H561.147V366.193H564.336V363.004Z" fill="#F0F0F0"/>
<path d="M564.336 368.35H561.147V371.539H564.336V368.35Z" fill="#F0F0F0"/>
<path d="M564.336 400.423H561.147V403.612H564.336V400.423Z" fill="#F0F0F0"/>
<path d="M564.336 405.769H561.147V408.958H564.336V405.769Z" fill="#F0F0F0"/>
<path d="M559.273 288.166H556.084V291.354H559.273V288.166Z" fill="#F0F0F0"/>
<path d="M559.273 293.511H556.084V296.7H559.273V293.511Z" fill="#F0F0F0"/>
<path d="M559.273 298.857H556.084V302.046H559.273V298.857Z" fill="#F0F0F0"/>
<path d="M559.273 304.202H556.084V307.391H559.273V304.202Z" fill="#F0F0F0"/>
<path d="M559.273 309.548H556.084V312.737H559.273V309.548Z" fill="#F0F0F0"/>
<path d="M559.273 314.894H556.084V318.083H559.273V314.894Z" fill="#F0F0F0"/>
<path d="M559.273 320.239H556.084V323.428H559.273V320.239Z" fill="#F0F0F0"/>
<path d="M559.273 325.585H556.084V328.774H559.273V325.585Z" fill="#F0F0F0"/>
<path d="M559.273 330.931H556.084V334.119H559.273V330.931Z" fill="#F0F0F0"/>
<path d="M559.273 336.276H556.084V339.465H559.273V336.276Z" fill="#F0F0F0"/>
<path d="M559.273 341.622H556.084V344.811H559.273V341.622Z" fill="#F0F0F0"/>
<path d="M559.273 346.967H556.084V350.156H559.273V346.967Z" fill="#F0F0F0"/>
<path d="M559.273 352.313H556.084V355.502H559.273V352.313Z" fill="#F0F0F0"/>
<path d="M559.273 357.658H556.084V360.847H559.273V357.658Z" fill="#F0F0F0"/>
<path d="M559.273 363.004H556.084V366.193H559.273V363.004Z" fill="#F0F0F0"/>
<path d="M559.273 368.35H556.084V371.539H559.273V368.35Z" fill="#F0F0F0"/>
<path d="M559.273 379.041H556.084V382.23H559.273V379.041Z" fill="#F0F0F0"/>
<path d="M559.273 384.387H556.084V387.576H559.273V384.387Z" fill="#F0F0F0"/>
<path d="M559.273 389.732H556.084V392.921H559.273V389.732Z" fill="#F0F0F0"/>
<path d="M559.273 395.078H556.084V398.267H559.273V395.078Z" fill="#F0F0F0"/>
<path d="M559.273 405.769H556.084V408.958H559.273V405.769Z" fill="#F0F0F0"/>
<path d="M470.93 325.585H467.741V328.774H470.93V325.585Z" fill="#F0F0F0"/>
<path d="M470.93 330.931H467.741V334.119H470.93V330.931Z" fill="#F0F0F0"/>
<path d="M470.93 336.276H467.741V339.465H470.93V336.276Z" fill="#F0F0F0"/>
<path d="M470.93 341.622H467.741V344.811H470.93V341.622Z" fill="#F0F0F0"/>
<path d="M470.93 346.967H467.741V350.156H470.93V346.967Z" fill="#F0F0F0"/>
<path d="M470.93 352.313H467.741V355.502H470.93V352.313Z" fill="#F0F0F0"/>
<path d="M470.93 357.658H467.741V360.847H470.93V357.658Z" fill="#F0F0F0"/>
<path d="M470.93 363.004H467.741V366.193H470.93V363.004Z" fill="#F0F0F0"/>
<path d="M470.93 368.35H467.741V371.539H470.93V368.35Z" fill="#F0F0F0"/>
<path d="M470.93 373.695H467.741V376.884H470.93V373.695Z" fill="#F0F0F0"/>
<path d="M470.93 379.041H467.741V382.23H470.93V379.041Z" fill="#F0F0F0"/>
<path d="M470.93 384.387H467.741V387.576H470.93V384.387Z" fill="#F0F0F0"/>
<path d="M470.93 389.732H467.741V392.921H470.93V389.732Z" fill="#F0F0F0"/>
<path d="M470.93 400.423H467.741V403.612H470.93V400.423Z" fill="#F0F0F0"/>
<path d="M470.93 405.769H467.741V408.958H470.93V405.769Z" fill="#F0F0F0"/>
<path d="M470.93 411.115H467.741V414.304H470.93V411.115Z" fill="#F0F0F0"/>
<path d="M470.93 416.46H467.741V419.649H470.93V416.46Z" fill="#F0F0F0"/>
<path d="M470.93 427.151H467.741V430.34H470.93V427.151Z" fill="#F0F0F0"/>
<path d="M470.93 432.497H467.741V435.686H470.93V432.497Z" fill="#F0F0F0"/>
<path d="M470.93 437.843H467.741V441.032H470.93V437.843Z" fill="#F0F0F0"/>
<path d="M465.867 325.585H462.678V328.774H465.867V325.585Z" fill="#F0F0F0"/>
<path d="M465.867 330.931H462.678V334.119H465.867V330.931Z" fill="#F0F0F0"/>
<path d="M465.867 336.276H462.678V339.465H465.867V336.276Z" fill="#F0F0F0"/>
<path d="M465.867 341.622H462.678V344.811H465.867V341.622Z" fill="#F0F0F0"/>
<path d="M465.867 346.967H462.678V350.156H465.867V346.967Z" fill="#F0F0F0"/>
<path d="M465.867 352.313H462.678V355.502H465.867V352.313Z" fill="#F0F0F0"/>
<path d="M465.867 357.658H462.678V360.847H465.867V357.658Z" fill="#F0F0F0"/>
<path d="M465.867 363.004H462.678V366.193H465.867V363.004Z" fill="#F0F0F0"/>
<path d="M465.867 368.35H462.678V371.539H465.867V368.35Z" fill="#F0F0F0"/>
<path d="M465.867 373.695H462.678V376.884H465.867V373.695Z" fill="#F0F0F0"/>
<path d="M465.867 379.041H462.678V382.23H465.867V379.041Z" fill="#F0F0F0"/>
<path d="M465.867 384.387H462.678V387.576H465.867V384.387Z" fill="#F0F0F0"/>
<path d="M465.867 389.732H462.678V392.921H465.867V389.732Z" fill="#F0F0F0"/>
<path d="M465.867 405.769H462.678V408.958H465.867V405.769Z" fill="#F0F0F0"/>
<path d="M465.867 411.115H462.678V414.304H465.867V411.115Z" fill="#F0F0F0"/>
<path d="M465.867 421.806H462.678V424.995H465.867V421.806Z" fill="#F0F0F0"/>
<path d="M465.867 427.151H462.678V430.34H465.867V427.151Z" fill="#F0F0F0"/>
<path d="M465.867 432.497H462.678V435.686H465.867V432.497Z" fill="#F0F0F0"/>
<path d="M465.867 437.843H462.678V441.032H465.867V437.843Z" fill="#F0F0F0"/>
<path d="M460.802 325.585H457.613V328.774H460.802V325.585Z" fill="#F0F0F0"/>
<path d="M460.802 330.931H457.613V334.119H460.802V330.931Z" fill="#F0F0F0"/>
<path d="M460.802 336.276H457.613V339.465H460.802V336.276Z" fill="#F0F0F0"/>
<path d="M460.802 341.622H457.613V344.811H460.802V341.622Z" fill="#F0F0F0"/>
<path d="M460.802 346.967H457.613V350.156H460.802V346.967Z" fill="#F0F0F0"/>
<path d="M460.802 352.313H457.613V355.502H460.802V352.313Z" fill="#F0F0F0"/>
<path d="M460.802 357.658H457.613V360.847H460.802V357.658Z" fill="#F0F0F0"/>
<path d="M460.802 363.004H457.613V366.193H460.802V363.004Z" fill="#F0F0F0"/>
<path d="M460.802 368.35H457.613V371.539H460.802V368.35Z" fill="#F0F0F0"/>
<path d="M460.802 373.695H457.613V376.884H460.802V373.695Z" fill="#F0F0F0"/>
<path d="M460.802 379.041H457.613V382.23H460.802V379.041Z" fill="#F0F0F0"/>
<path d="M460.802 384.387H457.613V387.576H460.802V384.387Z" fill="#F0F0F0"/>
<path d="M460.802 389.732H457.613V392.921H460.802V389.732Z" fill="#F0F0F0"/>
<path d="M460.802 395.078H457.613V398.267H460.802V395.078Z" fill="#F0F0F0"/>
<path d="M460.802 405.769H457.613V408.958H460.802V405.769Z" fill="#F0F0F0"/>
<path d="M460.802 416.46H457.613V419.649H460.802V416.46Z" fill="#F0F0F0"/>
<path d="M460.802 421.806H457.613V424.995H460.802V421.806Z" fill="#F0F0F0"/>
<path d="M460.802 427.151H457.613V430.34H460.802V427.151Z" fill="#F0F0F0"/>
<path d="M460.802 432.497H457.613V435.686H460.802V432.497Z" fill="#F0F0F0"/>
<path d="M460.802 437.843H457.613V441.032H460.802V437.843Z" fill="#F0F0F0"/>
<path d="M491.562 356.065H488.373V359.254H491.562V356.065Z" fill="#F0F0F0"/>
<path d="M491.562 361.41H488.373V364.599H491.562V361.41Z" fill="#F0F0F0"/>
<path d="M491.562 366.756H488.373V369.945H491.562V366.756Z" fill="#F0F0F0"/>
<path d="M491.562 372.102H488.373V375.291H491.562V372.102Z" fill="#F0F0F0"/>
<path d="M491.562 377.447H488.373V380.636H491.562V377.447Z" fill="#F0F0F0"/>
<path d="M491.562 382.793H488.373V385.982H491.562V382.793Z" fill="#F0F0F0"/>
<path d="M491.562 398.83H488.373V402.019H491.562V398.83Z" fill="#F0F0F0"/>
<path d="M491.562 404.175H488.373V407.364H491.562V404.175Z" fill="#F0F0F0"/>
<path d="M491.562 409.52H488.373V412.708H491.562V409.52Z" fill="#F0F0F0"/>
<path d="M491.562 414.866H488.373V418.055H491.562V414.866Z" fill="#F0F0F0"/>
<path d="M491.562 420.211H488.373V423.4H491.562V420.211Z" fill="#F0F0F0"/>
<path d="M491.562 425.556H488.373V428.745H491.562V425.556Z" fill="#F0F0F0"/>
<path d="M491.562 430.902H488.373V434.091H491.562V430.902Z" fill="#F0F0F0"/>
<path d="M486.498 356.065H483.309V359.254H486.498V356.065Z" fill="#F0F0F0"/>
<path d="M486.498 361.41H483.309V364.599H486.498V361.41Z" fill="#F0F0F0"/>
<path d="M486.498 366.756H483.309V369.945H486.498V366.756Z" fill="#F0F0F0"/>
<path d="M486.498 372.101H483.309V375.29H486.498V372.101Z" fill="#F0F0F0"/>
<path d="M486.498 377.447H483.309V380.636H486.498V377.447Z" fill="#F0F0F0"/>
<path d="M486.498 382.793H483.309V385.982H486.498V382.793Z" fill="#F0F0F0"/>
<path d="M486.498 398.83H483.309V402.019H486.498V398.83Z" fill="#F0F0F0"/>
<path d="M486.498 404.175H483.309V407.364H486.498V404.175Z" fill="#F0F0F0"/>
<path d="M486.498 409.52H483.309V412.708H486.498V409.52Z" fill="#F0F0F0"/>
<path d="M486.498 414.866H483.309V418.055H486.498V414.866Z" fill="#F0F0F0"/>
<path d="M486.498 420.211H483.309V423.4H486.498V420.211Z" fill="#F0F0F0"/>
<path d="M486.498 425.556H483.309V428.745H486.498V425.556Z" fill="#F0F0F0"/>
<path d="M486.498 436.248H483.309V439.437H486.498V436.248Z" fill="#F0F0F0"/>
<path d="M318.253 332.526H315.064V335.715H318.253V332.526Z" fill="#F0F0F0"/>
<path d="M318.253 337.87H315.064V341.059H318.253V337.87Z" fill="#F0F0F0"/>
<path d="M318.253 343.217H315.064V346.406H318.253V343.217Z" fill="#F0F0F0"/>
<path d="M318.253 348.561H315.064V351.75H318.253V348.561Z" fill="#F0F0F0"/>
<path d="M318.253 353.908H315.064V357.097H318.253V353.908Z" fill="#F0F0F0"/>
<path d="M318.253 359.252H315.064V362.441H318.253V359.252Z" fill="#F0F0F0"/>
<path d="M318.253 364.598H315.064V367.787H318.253V364.598Z" fill="#F0F0F0"/>
<path d="M318.253 369.944H315.064V373.133H318.253V369.944Z" fill="#F0F0F0"/>
<path d="M318.253 375.289H315.064V378.478H318.253V375.289Z" fill="#F0F0F0"/>
<path d="M318.253 380.635H315.064V383.824H318.253V380.635Z" fill="#F0F0F0"/>
<path d="M318.253 385.98H315.064V389.169H318.253V385.98Z" fill="#F0F0F0"/>
<path d="M318.253 396.672H315.064V399.861H318.253V396.672Z" fill="#F0F0F0"/>
<path d="M318.253 402.017H315.064V405.206H318.253V402.017Z" fill="#F0F0F0"/>
<path d="M318.253 407.363H315.064V410.552H318.253V407.363Z" fill="#F0F0F0"/>
<path d="M318.253 412.708H315.064V415.897H318.253V412.708Z" fill="#F0F0F0"/>
<path d="M318.253 418.054H315.064V421.243H318.253V418.054Z" fill="#F0F0F0"/>
<path d="M318.253 423.4H315.064V426.589H318.253V423.4Z" fill="#F0F0F0"/>
<path d="M318.253 428.745H315.064V431.934H318.253V428.745Z" fill="#F0F0F0"/>
<path d="M318.253 434.091H315.064V437.28H318.253V434.091Z" fill="#F0F0F0"/>
<path d="M313.189 332.526H310V335.715H313.189V332.526Z" fill="#F0F0F0"/>
<path d="M313.189 337.87H310V341.059H313.189V337.87Z" fill="#F0F0F0"/>
<path d="M313.189 343.217H310V346.406H313.189V343.217Z" fill="#F0F0F0"/>
<path d="M313.189 348.561H310V351.75H313.189V348.561Z" fill="#F0F0F0"/>
<path d="M313.189 353.908H310V357.097H313.189V353.908Z" fill="#F0F0F0"/>
<path d="M313.189 359.252H310V362.441H313.189V359.252Z" fill="#F0F0F0"/>
<path d="M313.189 364.598H310V367.787H313.189V364.598Z" fill="#F0F0F0"/>
<path d="M313.189 369.944H310V373.133H313.189V369.944Z" fill="#F0F0F0"/>
<path d="M313.189 375.289H310V378.478H313.189V375.289Z" fill="#F0F0F0"/>
<path d="M313.189 380.635H310V383.824H313.189V380.635Z" fill="#F0F0F0"/>
<path d="M313.189 385.98H310V389.169H313.189V385.98Z" fill="#F0F0F0"/>
<path d="M313.189 391.326H310V394.515H313.189V391.326Z" fill="#F0F0F0"/>
<path d="M313.189 396.672H310V399.861H313.189V396.672Z" fill="#F0F0F0"/>
<path d="M313.189 402.017H310V405.206H313.189V402.017Z" fill="#F0F0F0"/>
<path d="M313.189 407.363H310V410.552H313.189V407.363Z" fill="#F0F0F0"/>
<path d="M313.189 412.708H310V415.897H313.189V412.708Z" fill="#F0F0F0"/>
<path d="M313.189 418.054H310V421.243H313.189V418.054Z" fill="#F0F0F0"/>
<path d="M313.189 423.4H310V426.589H313.189V423.4Z" fill="#F0F0F0"/>
<path d="M313.189 428.745H310V431.934H313.189V428.745Z" fill="#F0F0F0"/>
<path d="M313.189 434.091H310V437.28H313.189V434.091Z" fill="#F0F0F0"/>
<path d="M343.199 353.345H340.01V356.534H343.199V353.345Z" fill="#F0F0F0"/>
<path d="M343.199 358.689H340.01V361.878H343.199V358.689Z" fill="#F0F0F0"/>
<path d="M343.199 364.036H340.01V367.225H343.199V364.036Z" fill="#F0F0F0"/>
<path d="M343.199 369.381H340.01V372.57H343.199V369.381Z" fill="#F0F0F0"/>
<path d="M343.199 374.728H340.01V377.917H343.199V374.728Z" fill="#F0F0F0"/>
<path d="M343.199 380.072H340.01V383.261H343.199V380.072Z" fill="#F0F0F0"/>
<path d="M343.199 385.418H340.01V388.607H343.199V385.418Z" fill="#F0F0F0"/>
<path d="M343.199 390.763H340.01V393.952H343.199V390.763Z" fill="#F0F0F0"/>
<path d="M343.199 396.109H340.01V399.298H343.199V396.109Z" fill="#F0F0F0"/>
<path d="M343.199 401.454H340.01V404.643H343.199V401.454Z" fill="#F0F0F0"/>
<path d="M338.135 353.345H334.946V356.534H338.135V353.345Z" fill="#F0F0F0"/>
<path d="M338.135 358.689H334.946V361.878H338.135V358.689Z" fill="#F0F0F0"/>
<path d="M338.135 364.036H334.946V367.225H338.135V364.036Z" fill="#F0F0F0"/>
<path d="M338.135 369.381H334.946V372.57H338.135V369.381Z" fill="#F0F0F0"/>
<path d="M338.135 374.728H334.946V377.917H338.135V374.728Z" fill="#F0F0F0"/>
<path d="M338.135 380.072H334.946V383.261H338.135V380.072Z" fill="#F0F0F0"/>
<path d="M338.135 385.418H334.946V388.607H338.135V385.418Z" fill="#F0F0F0"/>
<path d="M338.135 390.763H334.946V393.952H338.135V390.763Z" fill="#F0F0F0"/>
<path d="M338.135 396.109H334.946V399.298H338.135V396.109Z" fill="#F0F0F0"/>
<path d="M368.268 150.479H362.916V448.621H368.268V150.479Z" fill="#E0E0E0"/>
<path d="M468.942 150.479H463.59V448.621H468.942V150.479Z" fill="#E0E0E0"/>
<path d="M569.615 150.479H564.263V448.621H569.615V150.479Z" fill="#E0E0E0"/>
<path d="M227.7 488.999H183.454V425.258C183.454 422.146 185.977 419.622 189.09 419.622H222.066C225.178 419.622 227.702 422.145 227.702 425.258L227.7 488.999Z" fill="#F0F0F0"/>
<path d="M227.701 429.001H183.455V433.97H227.701V429.001Z" fill="#E6E6E6"/>
<path d="M219.636 480.596H208.614C206.937 480.596 205.577 481.956 205.577 483.633V489H222.673V483.633C222.673 481.954 221.313 480.596 219.636 480.596Z" fill="#E0E0E0"/>
<path d="M222.731 488.999H210.469C209.383 488.999 208.503 488.119 208.503 487.033C208.503 485.947 209.383 485.067 210.469 485.067H222.731C223.817 485.067 224.697 485.947 224.697 487.033C224.697 488.119 223.817 488.999 222.731 488.999Z" fill="#E6E6E6"/>
<path d="M419.183 136.448C435.377 132.624 445.405 116.396 441.581 100.202C437.757 84.0082 421.53 73.9802 405.336 77.8041C389.142 81.6279 379.114 97.8556 382.937 114.05C386.761 130.244 402.989 140.272 419.183 136.448Z" fill="#E0E0E0"/>
<path d="M416.386 132.432C430.352 130.165 439.836 117.006 437.569 103.041C435.303 89.0748 422.144 79.5907 408.178 81.8572C394.212 84.1238 384.728 97.2827 386.995 111.248C389.261 125.214 402.42 134.698 416.386 132.432Z" fill="#F0F0F0"/>
<path d="M413.483 89.5771V107.485L425.351 100.77" fill="#F0F0F0"/>
<path d="M413.483 89.5771V107.485L425.351 100.77" stroke="#E0E0E0" stroke-width="2.24809" stroke-miterlimit="10" stroke-linecap="round" stroke-linejoin="round"/>
<path d="M123.99 401.197C121.688 397.406 117.896 400.704 117.896 400.704C118.437 393.438 111.754 388.468 111.754 388.468C111.754 388.468 119.521 388.468 120.604 381.057C121.688 373.645 117.896 377.093 114.339 377.043C110.782 376.992 107.063 387.385 111.754 393.231C116.445 399.075 115.188 409.053 104.354 418.648C101.711 420.988 99.9139 424.104 98.7 427.476C99.5174 418.66 99.9792 406.24 97.385 397.947C92.9783 383.863 101.375 380.072 103.813 373.03C106.251 365.988 97.385 360.03 97.385 360.03C97.385 360.03 105.709 356.239 101.646 351.905C97.5833 347.571 89.1869 348.161 89.1869 353.825C89.1869 359.488 94.874 361.655 94.874 361.655C94.874 361.655 101.373 368.425 101.373 371.947C101.373 375.468 94.874 383.051 94.874 383.051C94.874 383.051 97.8532 376.561 91.8949 376.286C85.9366 376.009 84.0408 383.863 86.4776 387.385C88.9144 390.906 92.9771 387.926 92.9771 387.926C92.9771 387.926 93.4503 395.509 94.8382 400.114C95.4484 402.139 95.1619 410.082 94.6489 418.348C93.4491 415.364 91.7516 412.63 89.3737 410.522C78.5405 400.926 77.283 390.95 81.9737 385.105C86.6644 379.261 82.9459 368.868 79.3885 368.919C75.8312 368.969 72.0398 365.522 73.1232 372.933C74.2067 380.344 81.9737 380.344 81.9737 380.344C81.9737 380.344 75.2901 385.314 75.8312 392.58C75.8312 392.58 72.0398 389.282 69.7373 393.075C65.6273 399.844 75.1532 404.043 76.7547 400.711C76.7547 400.711 96.9565 415.012 92.0816 435.595L93.2137 437.267C93.0679 438.929 92.9771 439.929 92.9771 439.929L94.5568 439.248L96.354 441.903C96.2607 447.048 96.8145 450.85 96.8145 450.85L101.645 443.72C96.7698 423.137 116.97 408.836 116.97 408.836C118.574 412.165 128.1 407.967 123.99 401.197Z" fill="#E0E0E0"/>
<path opacity="0.2" d="M123.99 401.197C121.688 397.406 117.896 400.704 117.896 400.704C118.437 393.438 111.754 388.468 111.754 388.468C111.754 388.468 119.521 388.468 120.604 381.057C121.688 373.645 117.896 377.093 114.339 377.043C110.782 376.992 107.063 387.385 111.754 393.231C116.445 399.075 115.188 409.053 104.354 418.648C101.711 420.988 99.9139 424.104 98.7 427.476C99.5174 418.66 99.9792 406.24 97.385 397.947C92.9783 383.863 101.375 380.072 103.813 373.03C106.251 365.988 97.385 360.03 97.385 360.03C97.385 360.03 105.709 356.239 101.646 351.905C97.5833 347.571 89.1869 348.161 89.1869 353.825C89.1869 359.488 94.874 361.655 94.874 361.655C94.874 361.655 101.373 368.425 101.373 371.947C101.373 375.468 94.874 383.051 94.874 383.051C94.874 383.051 97.8532 376.561 91.8949 376.286C85.9366 376.009 84.0408 383.863 86.4776 387.385C88.9144 390.906 92.9771 387.926 92.9771 387.926C92.9771 387.926 93.4503 395.509 94.8382 400.114C95.4484 402.139 95.1619 410.082 94.6489 418.348C93.4491 415.364 91.7516 412.63 89.3737 410.522C78.5405 400.926 77.283 390.95 81.9737 385.105C86.6644 379.261 82.9459 368.868 79.3885 368.919C75.8312 368.969 72.0398 365.522 73.1232 372.933C74.2067 380.344 81.9737 380.344 81.9737 380.344C81.9737 380.344 75.2901 385.314 75.8312 392.58C75.8312 392.58 72.0398 389.282 69.7373 393.075C65.6273 399.844 75.1532 404.043 76.7547 400.711C76.7547 400.711 96.9565 415.012 92.0816 435.595L93.2137 437.267C93.0679 438.929 92.9771 439.929 92.9771 439.929L94.5568 439.248L96.354 441.903C96.2607 447.048 96.8145 450.85 96.8145 450.85L101.645 443.72C96.7698 423.137 116.97 408.836 116.97 408.836C118.574 412.165 128.1 407.967 123.99 401.197Z" fill="#E0E0E0"/>
<path d="M120.039 488.999H73.7657L68.7744 438.336H125.032L120.039 488.999Z" fill="#E6E6E6"/>
<path d="M127.503 432.746H66.3037V443.926H127.503V432.746Z" fill="#F0F0F0"/>
<path d="M319.791 546.919C456.766 546.919 567.806 540.434 567.806 532.435C567.806 524.436 456.766 517.951 319.791 517.951C182.816 517.951 71.7754 524.436 71.7754 532.435C71.7754 540.434 182.816 546.919 319.791 546.919Z" fill="#F5F5F5"/>
<path d="M525.028 492.115C525.223 490.805 529.7 459.916 520.732 449.252C518.746 446.891 516.242 445.657 513.286 445.584C495.182 445.161 492.705 459.701 492.684 459.849L494.818 460.178C494.902 459.657 497.048 447.352 513.233 447.743C515.575 447.8 517.488 448.749 519.079 450.641C527.428 460.568 522.94 491.484 522.892 491.795L525.028 492.115Z" fill="#1F6775"/>
<path d="M526.124 490.706L528.283 490.639C528.274 490.355 527.565 462.177 541.449 456.356C555.056 450.656 561.177 462.375 561.43 462.878L563.36 461.907C563.29 461.767 556.107 447.867 540.614 454.364C525.363 460.759 526.085 489.487 526.124 490.706Z" fill="#1F6775"/>
<path d="M526.06 492.921C526.061 492.472 526.19 447.907 534.878 434.872C543.221 422.358 556.679 428.25 557.247 428.509L558.14 426.541C557.984 426.471 542.454 419.615 533.081 433.674C524.031 447.249 523.901 491.059 523.899 492.918L526.06 492.921Z" fill="#1F6775"/>
<path d="M510.695 446.655C510.695 446.655 518.599 449.569 516.249 456.448C513.899 463.327 488.903 474.65 488.903 474.65C488.903 474.65 478.434 465.056 488.048 449.451C497.663 433.847 510.481 441.731 510.695 446.655Z" fill="#1F6775"/>
<path d="M535.271 432.526C535.271 432.526 529.659 431.924 530.111 428.506C530.562 425.088 551.926 416.29 564.53 430.517C564.53 430.517 556.46 444.38 544.793 444.562C533.126 444.741 535.271 432.526 535.271 432.526Z" fill="#1F6775"/>
<path d="M541.031 455.361C541.031 455.361 537.157 452.233 541.338 450.707C545.518 449.181 566.027 449.615 566.24 469.93C566.24 469.93 542.355 473.899 539.397 466.162C536.44 458.424 541.031 455.361 541.031 455.361Z" fill="#1F6775"/>
<path opacity="0.2" d="M510.695 446.655C510.695 446.655 518.599 449.569 516.249 456.448C513.899 463.327 488.903 474.65 488.903 474.65C488.903 474.65 478.434 465.056 488.048 449.451C497.663 433.847 510.481 441.731 510.695 446.655Z" fill="black"/>
<path opacity="0.2" d="M535.271 432.526C535.271 432.526 529.659 431.924 530.111 428.506C530.562 425.088 551.926 416.29 564.53 430.517C564.53 430.517 556.46 444.38 544.793 444.562C533.126 444.741 535.271 432.526 535.271 432.526Z" fill="black"/>
<path opacity="0.2" d="M541.031 455.361C541.031 455.361 537.157 452.233 541.338 450.707C545.518 449.181 566.027 449.615 566.24 469.93C566.24 469.93 542.355 473.899 539.397 466.162C536.44 458.424 541.031 455.361 541.031 455.361Z" fill="black"/>
<path d="M506.447 533.502H543.514L547.513 492.919H502.448L506.447 533.502Z" fill="#1F6775"/>
<path opacity="0.5" d="M506.447 533.502H543.514L547.513 492.919H502.448L506.447 533.502Z" fill="white"/>
<path d="M500.469 497.397H549.491V488.441H500.469V497.397Z" fill="#1F6775"/>
<path opacity="0.2" d="M500.469 497.397H549.491V488.441H500.469V497.397Z" fill="white"/>
<path d="M464.495 504.411L427.638 500.789V448.993H413.031V500.775L376.027 504.411C372.353 504.772 369.553 507.861 369.553 511.553V517.088H418.907H421.613H470.967V511.553C470.968 507.861 468.167 504.772 464.495 504.411Z" fill="#263238"/>
<path opacity="0.2" d="M464.495 504.411L427.638 500.789V448.993H413.031V500.775L376.027 504.411C372.353 504.772 369.553 507.861 369.553 511.553V517.088H418.907H421.613H470.967V511.553C470.968 507.861 468.167 504.772 464.495 504.411Z" fill="white"/>
<path d="M373.453 533.502C378.727 533.502 383.003 529.226 383.003 523.952C383.003 518.677 378.727 514.402 373.453 514.402C368.178 514.402 363.902 518.677 363.902 523.952C363.902 529.226 368.178 533.502 373.453 533.502Z" fill="#263238"/>
<path d="M467.067 533.502C472.341 533.502 476.617 529.226 476.617 523.952C476.617 518.677 472.341 514.402 467.067 514.402C461.792 514.402 457.517 518.677 457.517 523.952C457.517 529.226 461.792 533.502 467.067 533.502Z" fill="#263238"/>
<path d="M424.866 460.126H415.801C412.881 460.126 410.515 457.759 410.515 454.839V413.991H430.152V454.839C430.152 457.759 427.786 460.126 424.866 460.126Z" fill="#263238"/>
<path opacity="0.3" d="M424.866 460.126H415.801C412.881 460.126 410.515 457.759 410.515 454.839V413.991H430.152V454.839C430.152 457.759 427.786 460.126 424.866 460.126Z" fill="white"/>
<path d="M455.256 333.029C455.256 333.029 458.039 402.1 438.81 413.991H460.764C460.764 413.991 477.774 390.46 472.967 333.029H455.256Z" fill="#263238"/>
<path opacity="0.3" d="M455.256 333.029C455.256 333.029 458.039 402.1 438.81 413.991H460.764C460.764 413.991 477.774 390.46 472.967 333.029H455.256Z" fill="white"/>
<path d="M376.242 404.332H461.845C465.378 404.332 468.241 407.196 468.241 410.728V419.284H369.847V410.728C369.847 407.195 372.711 404.332 376.242 404.332Z" fill="#263238"/>
<path d="M368.318 411.809H469.769C471.19 411.809 472.341 412.96 472.341 414.381V416.712C472.341 418.133 471.19 419.284 469.769 419.284H368.318C366.896 419.284 365.745 418.133 365.745 416.712V414.381C365.745 412.96 366.896 411.809 368.318 411.809Z" fill="#263238"/>
<path opacity="0.6" d="M368.318 411.809H469.769C471.19 411.809 472.341 412.96 472.341 414.381V416.712C472.341 418.133 471.19 419.284 469.769 419.284H368.318C366.896 419.284 365.745 418.133 365.745 416.712V414.381C365.745 412.96 366.896 411.809 368.318 411.809Z" fill="white"/>
<path d="M478.347 347.063H443.178C432.874 347.063 424.522 338.711 424.522 328.408V314.654C424.522 304.351 432.874 295.999 443.178 295.999H478.348C488.652 295.999 497.004 304.351 497.004 314.654V328.408C497.004 338.711 488.651 347.063 478.347 347.063Z" fill="#263238"/>
<path d="M336.484 239.56L329.467 221.05C329.467 221.05 332.477 218.264 330.412 215.439C328.348 212.613 315.395 204.66 313.033 206.059C310.672 207.455 305.43 212.727 308.265 215.651C311.098 218.575 323.647 223.456 323.647 223.456L329.854 247.741L336.484 239.56Z" fill="#E4897B"/>
<path d="M385.518 274.752C385.518 274.752 353.577 268.186 350.113 266.619C346.651 265.052 333.791 227.395 333.791 227.395L323.937 232C323.937 232 331.87 269.788 339.981 278.774C348.093 287.76 382.693 295.359 382.693 295.359L385.518 274.752Z" fill="#1F6775"/>
<path opacity="0.2" d="M382.689 295.354C382.689 295.354 382.489 295.312 382.103 295.219C380.355 294.826 374.901 293.539 368.411 291.642C357.877 288.584 344.612 283.907 339.975 278.779C331.875 269.788 323.932 231.997 323.932 231.997L333.784 227.398C333.784 227.398 346.642 265.055 350.117 266.62C353.58 268.182 385.518 274.75 385.518 274.75L382.689 295.354Z" fill="black"/>
<path d="M333.947 226.656L335.983 230.581L323.319 234.942L323.808 230.144L333.947 226.656Z" fill="#1F6775"/>
<path opacity="0.2" d="M382.934 294.839C381.161 294.583 375.623 293.722 369.005 292.334C372.778 285.819 383.829 282.469 383.829 282.469L382.934 294.839Z" fill="black"/>
<path d="M430.544 248.685C430.544 248.685 432.423 266.376 425.867 270.72C419.312 275.064 387.075 269.976 383.417 262.86C379.76 255.744 393.521 236.417 393.521 236.417L430.544 248.685Z" fill="#263238"/>
<path d="M300.082 481.469L308.494 483.496L312.751 471.883L316.616 461.321L307.036 457.234L303.352 470.053L300.082 481.469Z" fill="#E4897B"/>
<path opacity="0.2" d="M303.353 470.053L312.752 471.883L316.617 461.321L307.037 457.234L303.353 470.053Z" fill="black"/>
<path d="M304.197 463.923L315.863 468.26C315.863 468.26 346.985 390.448 353.381 390.18C359.777 389.911 424.899 419.843 441.221 403.24C457.543 386.649 433.943 346.65 433.943 346.65C433.943 346.65 394.685 341.047 391.73 349.912C391.155 351.626 390.528 354.99 390.067 357.868C389.62 360.58 389.313 362.857 389.313 362.857C389.313 362.857 389.3 362.857 389.287 362.844C388.072 362.537 348.661 352.368 333.132 362.857C317.36 373.525 304.197 463.923 304.197 463.923Z" fill="#1F6775"/>
<path opacity="0.6" d="M304.197 463.923L315.863 468.26C315.863 468.26 346.985 390.448 353.381 390.18C359.777 389.911 424.899 419.843 441.221 403.24C457.543 386.649 433.943 346.65 433.943 346.65C433.943 346.65 394.685 341.047 391.73 349.912C391.155 351.626 390.528 354.99 390.067 357.868C389.62 360.58 389.313 362.857 389.313 362.857C389.313 362.857 389.3 362.857 389.287 362.844C388.072 362.537 348.661 352.368 333.132 362.857C317.36 373.525 304.197 463.923 304.197 463.923Z" fill="white"/>
<path d="M371.298 514.662L379.679 512.515L378.066 500.492L376.569 489.463L366.204 490.393L368.895 503.243L371.298 514.662Z" fill="#E4897B"/>
<path opacity="0.2" d="M368.962 503.502L378.125 500.721L376.599 489.578L366.22 490.45L368.962 503.502Z" fill="black"/>
<path d="M320.681 463.944L303.689 458.168L302.963 465.13L315.852 469.686L320.681 463.944Z" fill="#1F6775"/>
<path d="M413.028 407.232C413.028 407.232 410.37 407.295 369.192 405.376C369.192 405.376 375.346 456.856 378.703 495.394L366.39 497.494C366.39 497.494 336.969 414.971 337.289 401.86C337.609 388.748 352.639 384.911 352.639 384.911C352.639 384.911 381.975 401.858 413.028 407.232Z" fill="#1F6775"/>
<path opacity="0.6" d="M413.028 407.232C413.028 407.232 410.37 407.295 369.192 405.376C369.192 405.376 375.346 456.856 378.703 495.394L366.39 497.494C366.39 497.494 336.969 414.971 337.289 401.86C337.609 388.748 352.639 384.911 352.639 384.911C352.639 384.911 381.975 401.858 413.028 407.232Z" fill="white"/>
<path opacity="0.1" d="M413.028 407.232C413.028 407.232 410.37 407.295 369.192 405.376C369.192 405.376 375.346 456.856 378.703 495.394L366.39 497.494C366.39 497.494 336.969 414.971 337.289 401.86C337.609 388.748 352.639 384.911 352.639 384.911C352.639 384.911 381.975 401.858 413.028 407.232Z" fill="black"/>
<path d="M380.504 491.659L363.581 493.585L366.845 500.218L380.545 498.462L380.504 491.659Z" fill="#1F6775"/>
<path opacity="0.1" d="M389.313 362.857L412.274 367.641C412.274 367.641 399.585 360.631 390.068 357.868C389.62 360.58 389.313 362.857 389.313 362.857Z" fill="black"/>
<path d="M432.995 340.547L433.939 346.654L391.728 349.909L390.611 342.687L432.995 340.547Z" fill="#263238"/>
<path opacity="0.2" d="M432.995 340.547L433.939 346.654L391.728 349.909L390.611 342.687L432.995 340.547Z" fill="black"/>
<path d="M419.656 350.769L421.741 350.554L420.649 339.931L418.563 340.146L419.656 350.769Z" fill="#1F6775"/>
<path d="M400.964 349.699L410.212 349.104L409.761 342.092L400.513 342.686L400.964 349.699Z" fill="white"/>
<path d="M393.799 351.915L395.885 351.7L394.792 341.078L392.707 341.293L393.799 351.915Z" fill="#1F6775"/>
<path opacity="0.6" d="M419.656 350.769L421.741 350.554L420.649 339.931L418.563 340.146L419.656 350.769Z" fill="white"/>
<path opacity="0.6" d="M393.799 351.915L395.885 351.7L394.792 341.078L392.707 341.293L393.799 351.915Z" fill="white"/>
<path d="M384.752 274.169C384.752 274.169 395.529 277.55 409.073 276.854C422.616 276.158 438.809 282.737 438.809 282.737L432.996 340.547L390.612 342.687C390.612 342.687 376.371 294.412 384.752 274.169Z" fill="#1F6775"/>
<path d="M391.56 241.523C391.56 241.523 393.943 213.448 417.409 223.65C446.864 236.454 423.441 270.649 409.052 263.629C394.663 256.609 391.56 241.523 391.56 241.523Z" fill="#263238"/>
<path opacity="0.2" d="M398.14 278.422L398.814 294.285L404.078 286.822C404.078 286.822 402.2 304.367 403.298 313.92C403.298 313.92 404.304 296.789 406.688 286.822L412.274 294.285L420.301 278.519C420.301 278.519 407.314 273.854 398.14 278.422Z" fill="black"/>
<path d="M405.407 281.373L417.541 277.945C410.065 272.799 413.834 261.293 413.834 261.293L401.814 265.519C402.456 267.513 402.86 269.208 403.103 270.655C404.36 278.153 400.974 278.752 400.974 278.752L405.407 281.373Z" fill="#E4897B"/>
<path opacity="0.2" d="M401.815 265.519C402.458 267.513 402.862 269.208 403.105 270.655C408.858 268.349 413.836 261.293 413.836 261.293L401.815 265.519Z" fill="black"/>
<path d="M409.659 229.544C399.013 227.188 394.325 232.129 391.117 242.928C387.108 256.423 387.992 266.837 401.951 266.855C420.911 266.878 427.34 233.457 409.659 229.544Z" fill="#E4897B"/>
<path d="M398.129 243.857C398.129 243.857 396.039 246.311 394.054 247.587C394.054 247.587 394.645 249.237 396.594 249.412L398.129 243.857Z" fill="#DE5753"/>
<path d="M404.839 244.428C404.625 245.298 404.922 246.12 405.501 246.262C406.081 246.403 406.726 245.815 406.939 244.945C407.153 244.075 406.856 243.254 406.277 243.111C405.697 242.968 405.054 243.557 404.839 244.428Z" fill="#263238"/>
<path d="M406.508 243.212L404.798 242.004C404.798 242.004 405.349 243.828 406.508 243.212Z" fill="#263238"/>
<path d="M394.068 241.586C393.855 242.456 394.151 243.277 394.731 243.42C395.312 243.564 395.955 242.974 396.169 242.104C396.382 241.234 396.086 240.413 395.506 240.271C394.925 240.127 394.282 240.716 394.068 241.586Z" fill="#263238"/>
<path d="M395.737 240.371L394.028 239.163C394.028 239.163 394.578 240.987 395.737 240.371Z" fill="#263238"/>
<path d="M406.573 237.1C406.573 237.1 409.651 237.374 410.834 239.731" stroke="#263238" stroke-width="0.814594" stroke-miterlimit="10" stroke-linecap="round" stroke-linejoin="round"/>
<path d="M398.935 234.937C398.935 234.937 397.208 233.824 394.499 234.873" stroke="#263238" stroke-width="0.814594" stroke-miterlimit="10" stroke-linecap="round" stroke-linejoin="round"/>
<path d="M417.323 250.063C417.323 250.063 414.281 240.215 416.53 233.628C416.53 233.628 397.34 220.341 391.56 241.525C391.56 241.525 393.706 222.053 412.102 225.68C430.468 229.301 424.493 256.064 413.276 261.949C413.276 261.949 419.192 256.215 417.323 250.063Z" fill="#263238"/>
<path d="M415.088 251.925C415.538 250.227 417.949 247.717 421.06 248.771C424.28 249.861 424.353 256.982 415.786 256.794C414.557 256.767 414.147 255.469 415.088 251.925Z" fill="#E4897B"/>
<path d="M394.689 253.457C395.067 254.865 395.241 257.413 395.241 257.413C395.475 257.439 395.709 257.464 395.943 257.478C399.122 257.748 400.685 256.823 401.455 255.717C401.873 255.109 402.048 254.439 402.118 253.885C402.205 253.247 402.12 252.771 402.12 252.771C400.35 253.634 397.367 253.611 395.774 253.531C395.108 253.505 394.689 253.457 394.689 253.457Z" fill="#263238"/>
<path d="M395.774 253.531L395.968 254.694C398.962 254.94 401.103 254.713 402.118 253.885C402.205 253.247 402.12 252.771 402.12 252.771C400.35 253.634 397.367 253.61 395.774 253.531Z" fill="white"/>
<path d="M395.943 257.477C399.122 257.747 400.685 256.822 401.455 255.716C400.369 255.666 399.053 255.726 397.866 256.115C396.958 256.41 396.359 256.932 395.943 257.477Z" fill="#DE5753"/>
<path d="M409.701 230.396C409.701 230.396 410.113 248.863 421.193 251.08C432.273 253.297 420.161 227.349 420.161 227.349C420.161 227.349 403.663 216.573 392.666 224.168C381.67 231.762 391.56 241.525 391.56 241.525C391.56 241.525 393.883 227.807 409.701 230.396Z" fill="#263238"/>
<path d="M410.084 229.176C410.084 229.176 406.135 240.849 413.933 246.978" stroke="#263238" stroke-width="0.562021" stroke-miterlimit="10" stroke-linecap="round" stroke-linejoin="round"/>
<path d="M424.428 254.879C423.018 258.635 419.4 260.748 416.344 259.602C413.289 258.454 411.955 254.481 413.365 250.727C414.774 246.971 418.393 244.858 421.449 246.004C424.504 247.15 425.838 251.123 424.428 254.879Z" fill="#1F6775"/>
<path opacity="0.4" d="M424.428 254.879C423.018 258.635 419.4 260.748 416.344 259.602C413.289 258.454 411.955 254.481 413.365 250.727C414.774 246.971 418.393 244.858 421.449 246.004C424.504 247.15 425.838 251.123 424.428 254.879Z" fill="black"/>
<path d="M420.9 248.721C420.9 248.721 425.487 228.165 415.192 222.777C415.192 222.777 417.338 223.066 418.668 223.454C419.998 223.841 428.222 232.178 424.066 250.653L420.9 248.721Z" fill="#1F6775"/>
<path opacity="0.2" d="M420.9 248.721C420.9 248.721 425.487 228.165 415.192 222.777C415.192 222.777 417.338 223.066 418.668 223.454C419.998 223.841 428.222 232.178 424.066 250.653L420.9 248.721Z" fill="black"/>
<path d="M401.591 260.486C401.337 260.452 401.081 260.414 400.822 260.37L401.03 259.109C410.3 260.619 417.197 255.713 417.266 255.662L418.022 256.694C417.734 256.905 411.026 261.726 401.591 260.486Z" fill="#1F6775"/>
<g opacity="0.2">
<path d="M401.591 260.486C401.337 260.452 401.081 260.414 400.822 260.37L401.03 259.109C410.3 260.619 417.197 255.713 417.266 255.662L418.022 256.694C417.734 256.905 411.026 261.726 401.591 260.486Z" fill="black"/>
</g>
<path d="M423.995 254.365C423.062 256.848 420.67 258.244 418.651 257.487C416.631 256.729 415.749 254.103 416.681 251.62C417.613 249.137 420.005 247.74 422.025 248.497C424.045 249.256 424.926 251.882 423.995 254.365Z" fill="#1F6775"/>
<path d="M400.448 260.905L399.42 260.77C398.658 260.67 398.122 259.97 398.222 259.208C398.322 258.445 399.021 257.909 399.782 258.009L400.81 258.145C401.572 258.245 402.108 258.944 402.008 259.707C401.91 260.469 401.21 261.005 400.448 260.905Z" fill="#1F6775"/>
<path opacity="0.4" d="M400.448 260.905L399.42 260.77C398.658 260.67 398.122 259.97 398.222 259.208C398.322 258.445 399.021 257.909 399.782 258.009L400.81 258.145C401.572 258.245 402.108 258.944 402.008 259.707C401.91 260.469 401.21 261.005 400.448 260.905Z" fill="black"/>
<path d="M414.288 273.546L406.688 281.011L409.727 290.158L420.3 278.519L414.288 273.546Z" fill="#1F6775"/>
<path d="M403.298 275.106L404.528 280.852L400.592 288.978L398.14 278.422L403.298 275.106Z" fill="#1F6775"/>
<path d="M412.661 280.026L417.076 263.87C417.076 263.87 414.937 259.846 415.399 259.003C415.86 258.161 418.158 247.314 419.796 246.132C421.434 244.952 428.167 246.967 428.849 248.068C429.531 249.168 422.396 263.869 422.396 263.869L419.795 281.372L412.661 280.026Z" fill="#E4897B"/>
<path d="M438.808 282.737C450.953 295.169 426.61 323.333 412.661 322.133C398.711 320.934 413.008 269.863 413.008 269.863L421.941 271.333C421.941 271.333 418.807 293.434 419.794 295.169C420.784 296.902 434.726 278.558 438.808 282.737Z" fill="#1F6775"/>
<path opacity="0.2" d="M438.808 282.737C450.953 295.169 426.61 323.333 412.661 322.133C398.711 320.934 413.008 269.863 413.008 269.863L421.941 271.333C421.941 271.333 418.807 293.434 419.794 295.169C420.784 296.902 434.726 278.558 438.808 282.737Z" fill="black"/>
<path d="M412.275 268.23L410.952 272.447L423.398 273.546V269.863L412.275 268.23Z" fill="#1F6775"/>
<path opacity="0.6" d="M393.417 313.169H388.374C387.815 313.169 387.362 312.716 387.362 312.157V302.642C387.362 302.083 387.815 301.63 388.374 301.63H393.417C393.976 301.63 394.428 302.083 394.428 302.642V312.157C394.428 312.716 393.976 313.169 393.417 313.169Z" fill="white"/>
<path opacity="0.2" d="M393.519 302.388H387.783V310.232H393.519V302.388Z" fill="black"/>
<path d="M391.411 298.845H390.146V303.468H391.411V298.845Z" fill="#263238"/>
<path d="M286.155 497.808C287.434 497.22 288.809 496.871 290.215 496.777C290.215 496.777 295.073 493.917 299.888 482.809L305.302 482.777C307.176 482.799 308.839 483.988 309.462 485.756C309.552 485.997 309.603 486.25 309.616 486.506C309.561 487.814 309.422 489.118 309.2 490.408C308.713 494.458 306.034 503.148 306.034 503.148L305.117 502.913L306.785 494.834C307.34 492.089 304.456 494.741 303.118 497.509C301.78 500.277 299.728 503.063 293.748 501.696C286.779 500.065 283.97 499.062 286.155 497.808Z" fill="#1F6775"/>
<path d="M300.868 479.897C300.868 479.897 294.108 494.046 290.214 496.776C290.214 496.776 295.433 499.888 300.868 492.962C307.896 484.004 309.615 486.506 309.615 486.506C309.615 486.506 309.317 483.441 308.768 481.94C307.714 479.049 300.868 479.897 300.868 479.897Z" fill="#E4897B"/>
<path d="M360.629 531.518C361.731 530.643 362.985 529.977 364.328 529.553C364.328 529.553 368.369 525.622 370.413 513.689L375.665 512.374C377.492 511.951 379.388 512.713 380.412 514.283C380.555 514.495 380.665 514.729 380.738 514.975C380.995 516.259 381.169 517.557 381.259 518.865C381.746 522.914 381.205 531.991 381.205 531.991L380.259 531.982L379.963 523.738C379.851 520.939 377.677 524.2 377.034 527.206C376.391 530.212 375.058 533.406 368.924 533.496C361.771 533.562 358.805 533.253 360.629 531.518Z" fill="#1F6775"/>
<path d="M370.675 510.628C370.675 510.628 367.462 525.977 364.328 529.552C364.328 529.552 370.137 531.338 373.773 523.32C378.476 512.951 380.74 514.973 380.74 514.973C380.74 514.973 379.724 512.066 378.835 510.738C377.124 508.181 370.675 510.628 370.675 510.628Z" fill="#E4897B"/>
<path d="M489.611 233.087H444.948C441.37 233.087 438.469 230.186 438.469 226.608V207.497C438.469 203.919 441.37 201.018 444.948 201.018H489.611C493.189 201.018 496.09 203.919 496.09 207.497V226.608C496.09 230.186 493.189 233.087 489.611 233.087Z" fill="#1F6775"/>
<path d="M453.912 229.432L440.456 247.721L462.165 230.658L453.912 229.432Z" fill="#1F6775"/>
<path d="M454.414 217.052C454.414 218.094 453.57 218.939 452.527 218.939C451.485 218.939 450.641 218.093 450.641 217.052C450.641 216.009 451.485 215.165 452.527 215.165C453.569 215.165 454.414 216.009 454.414 217.052Z" fill="white"/>
<path d="M464.249 217.052C464.249 218.094 463.404 218.939 462.362 218.939C461.321 218.939 460.476 218.093 460.476 217.052C460.476 216.009 461.321 215.165 462.362 215.165C463.404 215.165 464.249 216.009 464.249 217.052Z" fill="white"/>
<path d="M474.085 217.052C474.085 218.094 473.241 218.939 472.198 218.939C471.156 218.939 470.312 218.093 470.312 217.052C470.312 216.009 471.157 215.165 472.198 215.165C473.241 215.165 474.085 216.009 474.085 217.052Z" fill="white"/>
<path d="M483.92 217.052C483.92 218.094 483.074 218.939 482.033 218.939C480.991 218.939 480.146 218.093 480.146 217.052C480.146 216.009 480.991 215.165 482.033 215.165C483.076 215.165 483.92 216.009 483.92 217.052Z" fill="white"/>
<path d="M310.109 207.87L278.257 190.715C277.397 190.251 277.074 189.178 277.539 188.315L287.696 169.454C288.161 168.593 289.234 168.271 290.096 168.734L321.947 185.889C322.808 186.353 323.13 187.426 322.667 188.289L312.51 207.15C312.044 208.011 310.969 208.333 310.109 207.87Z" fill="#1F6775"/>
<path opacity="0.7" d="M310.109 207.87L278.257 190.715C277.397 190.251 277.074 189.178 277.539 188.315L287.696 169.454C288.161 168.593 289.234 168.271 290.096 168.734L321.947 185.889C322.808 186.353 323.13 187.426 322.667 188.289L312.51 207.15C312.044 208.011 310.969 208.333 310.109 207.87Z" fill="white"/>
<path opacity="0.2" d="M286.856 171.013L296.821 189.621C297.598 191.071 299.168 191.91 300.804 191.747L321.545 189.697L300.432 192.805C298.539 193.084 296.688 192.086 295.878 190.353L286.856 171.013Z" fill="black"/>
<path d="M262.666 167.547C263.005 160.43 268.272 146.09 274.682 141.705C281.092 137.319 276.875 143.393 276.875 143.393C276.875 143.393 282.947 137.489 286.152 137.658C289.358 137.827 286.152 141.538 286.152 141.538C286.152 141.538 292.731 137.483 295.768 137.654C298.805 137.827 295.768 141.369 295.768 141.369C295.768 141.369 301.166 137.489 303.358 139.345C305.551 141.201 275.358 161.105 271.984 169.202C268.61 177.297 262.323 174.75 262.666 167.547Z" fill="#1F6775"/>
<path opacity="0.4" d="M262.666 167.547C263.005 160.43 268.272 146.09 274.682 141.705C281.092 137.319 276.875 143.393 276.875 143.393C276.875 143.393 282.947 137.489 286.152 137.658C289.358 137.827 286.152 141.538 286.152 141.538C286.152 141.538 292.731 137.483 295.768 137.654C298.805 137.827 295.768 141.369 295.768 141.369C295.768 141.369 301.166 137.489 303.358 139.345C305.551 141.201 275.358 161.105 271.984 169.202C268.61 177.297 262.323 174.75 262.666 167.547Z" fill="white"/>
<path d="M288.598 166.497L292.631 169.079C292.921 169.265 292.77 169.715 292.426 169.688L288.19 169.358L288.554 172.61C288.594 172.963 288.155 173.157 287.92 172.891L285.477 170.124L288.598 166.497Z" fill="#1F6775"/>
<path opacity="0.3" d="M288.598 166.497L292.631 169.079C292.921 169.265 292.77 169.715 292.426 169.688L288.19 169.358L288.554 172.61C288.594 172.963 288.155 173.157 287.92 172.891L285.477 170.124L288.598 166.497Z" fill="white"/>
<path d="M232.008 150.479C232.008 150.479 237.575 146.597 246.008 149.127C246.008 149.127 248.434 160.26 255.065 163.97C258.706 166.008 267.629 165.833 274.684 163.548C283.064 160.835 287.167 160.835 288.685 163.97C290.123 166.939 288.516 170.38 282.106 171.899C275.696 173.417 270.636 184.55 258.997 184.718C247.358 184.887 241.232 173.218 244.153 162.959C244.153 162.959 240.61 155.312 232.008 150.479Z" fill="#1F6775"/>
<path opacity="0.5" d="M232.008 150.479C232.008 150.479 237.575 146.597 246.008 149.127C246.008 149.127 248.434 160.26 255.065 163.97C258.706 166.008 267.629 165.833 274.684 163.548C283.064 160.835 287.167 160.835 288.685 163.97C290.123 166.939 288.516 170.38 282.106 171.899C275.696 173.417 270.636 184.55 258.997 184.718C247.358 184.887 241.232 173.218 244.153 162.959C244.153 162.959 240.61 155.312 232.008 150.479Z" fill="white"/>
<path d="M285.477 166.08C285.477 166.395 285.223 166.649 284.908 166.649C284.593 166.649 284.339 166.395 284.339 166.08C284.339 165.765 284.593 165.511 284.908 165.511C285.223 165.511 285.477 165.765 285.477 166.08Z" fill="#263238"/>
<path d="M256.294 175.448C249.42 177.322 234.156 176.738 228.005 171.995C221.855 167.252 228.933 169.388 228.933 169.388C228.933 169.388 221.443 165.434 220.614 162.333C219.785 159.233 224.305 161.136 224.305 161.136C224.305 161.136 218.417 156.131 217.643 153.19C216.869 150.249 221.176 152.044 221.176 152.044C221.176 152.044 215.82 148.106 216.907 145.448C217.995 142.79 246.247 165.366 254.991 166.075C263.734 166.786 263.251 173.551 256.294 175.448Z" fill="#1F6775"/>
<path opacity="0.4" d="M256.294 175.448C249.42 177.322 234.156 176.738 228.005 171.995C221.855 167.252 228.933 169.388 228.933 169.388C228.933 169.388 221.443 165.434 220.614 162.333C219.785 159.233 224.305 161.136 224.305 161.136C224.305 161.136 218.417 156.131 217.643 153.19C216.869 150.249 221.176 152.044 221.176 152.044C221.176 152.044 215.82 148.106 216.907 145.448C217.995 142.79 246.247 165.366 254.991 166.075C263.734 166.786 263.251 173.551 256.294 175.448Z" fill="white"/>
<path d="M211.27 143.853C210.067 143.425 208.851 143.025 207.624 142.653" stroke="#1F6775" stroke-width="0.843032" stroke-linecap="round" stroke-linejoin="round"/>
<path d="M200.146 140.746C195.662 139.807 191.105 139.198 186.578 138.884C174.141 138.018 154.644 136.786 147.025 149.18C140.083 160.473 152.026 179.742 156.266 190.228C161.458 203.069 167.631 218.949 161.496 232.544C148.889 260.479 94.9208 245.974 76.7158 220.245" stroke="#1F6775" stroke-width="0.843032" stroke-linecap="round" stroke-linejoin="round" stroke-dasharray="6.78 6.78"/>
<path d="M74.6468 216.995C74.006 215.867 73.4355 214.721 72.9404 213.56" stroke="#1F6775" stroke-width="0.843032" stroke-linecap="round" stroke-linejoin="round"/>
<path d="M230.004 318.565H181.449V328.523H230.004V318.565Z" fill="white"/>
<path opacity="0.1" d="M230.004 318.565H181.449V328.523H230.004V318.565Z" fill="black"/>
<path opacity="0.1" d="M201.899 318.565H181.449V328.523H201.899V318.565Z" fill="black"/>
<path opacity="0.1" d="M181.449 319.999H224.671L181.449 321.221V319.999Z" fill="black"/>
<path opacity="0.1" d="M230.004 321.728L192.537 322.655H230.004V321.728Z" fill="black"/>
<path opacity="0.1" d="M183.429 324.512L201.9 323.752L229.056 324.512L201.9 324.932L183.429 324.512Z" fill="black"/>
<path opacity="0.1" d="M181.449 326.62H213.454L181.449 327.378V326.62Z" fill="black"/>
<path opacity="0.1" d="M229.935 327.378L208.562 327.775H230.004L229.935 327.378Z" fill="black"/>
<path d="M223.247 308.606H174.692V318.565H223.247V308.606Z" fill="white"/>
<path opacity="0.1" d="M223.247 308.606H174.692V318.565H223.247V308.606Z" fill="black"/>
<path opacity="0.1" d="M195.142 308.606H174.692V318.565H195.142V308.606Z" fill="black"/>
<path opacity="0.1" d="M174.692 310.041H217.914L174.692 311.263V310.041Z" fill="black"/>
<path opacity="0.1" d="M223.248 311.77L185.78 312.697H223.248V311.77Z" fill="black"/>
<path opacity="0.1" d="M176.673 314.553L195.143 313.794L222.3 314.553L195.143 314.974L176.673 314.553Z" fill="black"/>
<path opacity="0.1" d="M174.692 316.661H206.697L174.692 317.42V316.661Z" fill="black"/>
<path opacity="0.1" d="M223.178 317.42L201.806 317.816H223.248L223.178 317.42Z" fill="black"/>
<path d="M228.79 298.648H180.235V308.606H228.79V298.648Z" fill="white"/>
<path opacity="0.1" d="M228.79 298.648H180.235V308.606H228.79V298.648Z" fill="black"/>
<path opacity="0.1" d="M200.685 298.648H180.235V308.606H200.685V298.648Z" fill="black"/>
<path opacity="0.1" d="M180.235 300.082H223.457L180.235 301.305V300.082Z" fill="black"/>
<path opacity="0.1" d="M228.791 301.812L191.323 302.739H228.791V301.812Z" fill="black"/>
<path opacity="0.1" d="M182.216 304.594L200.686 303.835L227.843 304.594L200.686 305.016L182.216 304.594Z" fill="black"/>
<path opacity="0.1" d="M180.235 306.703H212.24L180.235 307.462V306.703Z" fill="black"/>
<path opacity="0.1" d="M228.721 307.462L207.349 307.858H228.791L228.721 307.462Z" fill="black"/>
<path d="M261.136 328.314L262.398 323.543H314.271L338.158 325.929L339.066 328.314H261.136Z" fill="#263238"/>
<path opacity="0.4" d="M314.271 323.543V328.314H261.136L262.398 323.543H314.271Z" fill="black"/>
<path d="M303.85 300.704C304.081 303.224 302.239 305.27 299.731 305.27H220.27C217.75 305.27 215.524 303.224 215.294 300.704L210.574 249.832C210.523 249.307 210.561 248.808 210.676 248.348C211.124 246.557 212.697 245.265 214.693 245.265H294.154C296.674 245.265 298.9 247.312 299.13 249.832L303.85 300.704Z" fill="#263238"/>
<path opacity="0.4" d="M299.451 305.27H220.271C217.751 305.27 215.525 303.224 215.295 300.704L210.575 249.831C210.524 249.307 210.562 248.808 210.677 248.348H289.857C292.364 248.348 294.59 250.394 294.833 252.914L299.553 303.786C299.605 304.311 299.565 304.81 299.451 305.27Z" fill="black"/>
<path d="M244.859 274.069H261.297L256.915 321.133L282.91 325.036V328.314H228.162V325.036L239.378 321.133L244.859 274.069Z" fill="#263238"/>
<path opacity="0.1" d="M261.299 274.069L249.12 327.566L239.379 327.277L244.86 274.069H261.299Z" fill="white"/>
<path d="M261.222 533.502H253.385L239.306 337.475H249.703L261.222 533.502Z" fill="#263238"/>
<path opacity="0.4" d="M261.228 533.502H253.386L239.993 347.211L239.303 337.79H249.702L250.265 347.211L261.228 533.502Z" fill="white"/>
<path opacity="0.2" d="M250.265 346.745H239.993L239.303 337.79H249.702L250.265 346.745Z" fill="black"/>
<path d="M318.732 533.502H310.896L309.617 337.475H320.013L318.732 533.502Z" fill="#263238"/>
<path opacity="0.5" d="M320.018 337.79L319.813 369.418L318.739 533.502H310.897L309.823 369.418L309.618 337.79H320.018Z" fill="white"/>
<path opacity="0.2" d="M320.018 337.79L319.813 369.769H309.823L309.618 337.79H320.018Z" fill="black"/>
<path d="M401.93 533.502H394.093L380.014 337.474H390.411L401.93 533.502Z" fill="#263238"/>
<path opacity="0.5" d="M401.935 533.502H394.093L380.701 347.211L380.01 337.79H390.409L390.972 347.211L401.935 533.502Z" fill="white"/>
<path opacity="0.2" d="M390.972 346.744H380.701L380.01 337.79H390.409L390.972 346.744Z" fill="black"/>
<path d="M171.577 533.502H163.739L175.259 337.474H185.655L171.577 533.502Z" fill="#263238"/>
<path opacity="0.5" d="M185.653 337.79L184.962 347.211L171.57 533.502H163.741L174.691 347.211L175.254 337.79H185.653Z" fill="white"/>
<path opacity="0.2" d="M175.254 337.79H185.654L184.963 346.745H174.691L175.254 337.79Z" fill="black"/>
<path d="M395.886 342.384H169.785C168.258 342.384 167.02 341.146 167.02 339.618V332.565H398.651V339.617C398.651 341.146 397.413 342.384 395.886 342.384Z" fill="#1F6775"/>
<path opacity="0.6" d="M395.886 342.384H169.785C168.258 342.384 167.02 341.146 167.02 339.618V332.565H398.651V339.617C398.651 341.146 397.413 342.384 395.886 342.384Z" fill="white"/>
<path opacity="0.2" d="M398.651 332.565H167.02V337.474H398.651V332.565Z" fill="black"/>
<path d="M403.508 333.846H162.162C160.635 333.846 159.396 332.607 159.396 331.08C159.396 329.553 160.635 328.314 162.162 328.314H403.509C405.036 328.314 406.274 329.553 406.274 331.08C406.273 332.607 405.035 333.846 403.508 333.846Z" fill="#1F6775"/>
<path opacity="0.6" d="M403.508 333.846H162.162C160.635 333.846 159.396 332.607 159.396 331.08C159.396 329.553 160.635 328.314 162.162 328.314H403.509C405.036 328.314 406.274 329.553 406.274 331.08C406.273 332.607 405.035 333.846 403.508 333.846Z" fill="white"/>
<path d="M346.405 319.794L349.378 315.344C349.97 314.456 350.967 313.924 352.035 313.924H355.799C356.113 313.924 356.426 313.97 356.726 314.061L370.141 318.127C370.904 318.359 371.554 318.867 371.96 319.551L373.885 322.787L346.405 319.794Z" fill="#1F6775"/>
<path opacity="0.2" d="M373.886 322.788L354.353 320.665L346.409 319.795L349.377 315.344C349.965 314.461 350.963 313.924 352.038 313.924H355.798C356.118 313.924 356.425 313.975 356.732 314.065L357.026 314.154L370.138 318.132C370.905 318.363 371.557 318.861 371.967 319.552L373.886 322.788Z" fill="black"/>
<path opacity="0.2" d="M373.885 322.789L354.353 320.665L357.026 314.154L370.137 318.132C370.905 318.363 371.557 318.861 371.967 319.552L373.885 322.789Z" fill="black"/>
<path d="M383.171 327.891V328.313H366.145H341.7L343.235 322.314C343.836 320.063 345.883 318.489 348.211 318.489H366.605C367.219 318.489 367.821 318.592 368.396 318.809L370.699 319.666L379.832 323.069C381.842 323.825 383.171 325.743 383.171 327.891Z" fill="#1F6775"/>
<path opacity="0.2" d="M383.17 327.891V328.313H366.145L367.053 321.828C367.296 320.114 369.074 319.065 370.698 319.666L379.832 323.069C381.841 323.825 383.17 325.743 383.17 327.891Z" fill="black"/>
<path d="M368.797 323.905L374.213 307.65C374.447 306.947 375.252 306.621 375.909 306.96C376.41 307.218 376.665 307.792 376.522 308.336L371.96 325.691C371.96 325.691 368.924 326.919 368.797 323.905Z" fill="#263238"/>
<path opacity="0.2" d="M346.405 326.964H344.001L344.464 324.602H346.868L346.405 326.964Z" fill="black"/>
<path opacity="0.2" d="M349.989 326.872H347.586L348.049 324.51H350.454L349.989 326.872Z" fill="black"/>
</g>
<defs>
<clipPath id="clip0_132_3043">
<rect width="639.58" height="639.58" fill="white"/>
</clipPath>
</defs>
</svg>
