<svg width="223" height="56" viewBox="0 0 223 56" fill="none" xmlns="http://www.w3.org/2000/svg">
<path d="M60.1292 3.74138L64.167 7.78173L14.6193 53.464L60.1292 3.74138Z" fill="#EA8E39"/>
<path d="M31.3452 7.03693L36.6163 3.60086L45.6824 17.9381L41.325 22.6469L31.3452 7.03693Z" fill="#1F6775"/>
<path d="M59.598 40.0764L54.3972 43.3796L44.4174 27.5665L49.0132 23.2794L59.598 40.0764Z" fill="#1F6775"/>
<path d="M25.461 3.13356C26.68 3.15687 28.444 3.30232 28.8858 3.31422C29.2001 3.32262 29.5688 3.34331 30.0089 3.37672L33.3497 3.55544C33.423 3.55174 33.5235 3.5576 33.6739 3.57301L34.086 3.59547L30.505 5.0984C29.965 5.34497 29.6279 5.48741 29.3858 5.56813L27.0587 6.54665L26.8565 6.52809C26.2151 6.62554 25.8968 6.44902 23.755 6.33571C22.1649 6.25134 21.3006 6.19981 20.3819 6.33571C18.5592 6.60571 17.4318 7.12546 17.1485 7.32008C16.4122 7.82687 16.0638 8.36097 15.9542 8.51442C15.5529 9.07532 15.3959 9.81311 15.3214 10.0613C15.1357 10.6826 15.0467 11.1172 15.0645 11.4666C15.0218 14.0396 15.1062 16.6943 15.0645 19.2673H15.0401V19.9705H24.1768V23.0632H15.0401V46.115H9.1368V23.0632H8.2016e-05V19.9705H9.1368V19.4783L9.11727 18.4578C9.09943 16.9542 9.12415 15.5085 9.1368 14.2166V12.1697C9.12687 11.6594 9.11706 10.6433 9.41805 9.56911C9.75382 8.36987 10.5437 7.52248 10.9639 6.96852C12.5101 5.1413 14.4489 4.36398 15.5128 3.94704C15.5464 3.93652 18.2277 3.10205 21.5059 3.12965C21.6493 3.13162 22.2594 3.11293 23.2286 3.12086C23.6828 3.12433 24.231 3.12668 24.878 3.1277L24.88 3.10329L25.461 3.13356Z" fill="#1F6775"/>
<path d="M60.8818 0.257867V0H62.6821V0.257867H61.9273V2.4005H61.6366V0.257867H60.8818Z" fill="#1F6775"/>
<path d="M63.1308 0H63.4777L64.2935 1.99261H64.3217L65.1374 0H65.4844V2.4005H65.2125V0.576684H65.189L64.4389 2.4005H64.1763L63.4261 0.576684H63.4027V2.4005H63.1308V0Z" fill="#1F6775"/>
<path d="M68.6915 45.5168H65.165L71.5858 27.2786H75.6644L82.0941 45.5168H78.5676L73.6964 31.0188H73.5539L68.6915 45.5168ZM68.8073 38.3658H78.4251V41.0196H68.8073V38.3658ZM89.9042 45.784C88.5387 45.784 87.3661 45.4842 86.3865 44.8845C85.4129 44.2849 84.6619 43.4567 84.1335 42.3999C83.611 41.3372 83.3498 40.1142 83.3498 38.7309C83.3498 37.3417 83.617 36.1157 84.1513 35.053C84.6856 33.9843 85.4396 33.1532 86.4133 32.5595C87.3929 31.9598 88.5506 31.66 89.8864 31.66C90.9966 31.66 91.9791 31.8649 92.8341 32.2745C93.6949 32.6782 94.3806 33.2511 94.8912 33.9932C95.4018 34.7294 95.6927 35.5903 95.7639 36.5758H92.6827C92.558 35.9168 92.2611 35.3676 91.7921 34.9283C91.329 34.483 90.7086 34.2604 89.9309 34.2604C89.2719 34.2604 88.693 34.4385 88.1943 34.7947C87.6956 35.145 87.3068 35.6496 87.0277 36.3086C86.7546 36.9676 86.6181 37.7573 86.6181 38.6775C86.6181 39.6096 86.7546 40.4111 87.0277 41.0819C87.3008 41.7469 87.6838 42.2604 88.1765 42.6226C88.6752 42.9788 89.26 43.1569 89.9309 43.1569C90.4059 43.1569 90.8303 43.0678 91.2044 42.8897C91.5843 42.7057 91.902 42.4415 92.1572 42.0972C92.4125 41.7528 92.5877 41.3343 92.6827 40.8415H95.7639C95.6868 41.8092 95.4018 42.6671 94.909 43.4152C94.4163 44.1573 93.7454 44.7391 92.8964 45.1606C92.0474 45.5762 91.05 45.784 89.9042 45.784ZM104.378 45.784C103.042 45.784 101.884 45.4901 100.905 44.9024C99.925 44.3146 99.1651 43.4923 98.6248 42.4356C98.0905 41.3788 97.8233 40.1439 97.8233 38.7309C97.8233 37.3179 98.0905 36.0801 98.6248 35.0174C99.1651 33.9547 99.925 33.1294 100.905 32.5417C101.884 31.9539 103.042 31.66 104.378 31.66C105.713 31.66 106.871 31.9539 107.851 32.5417C108.83 33.1294 109.587 33.9547 110.122 35.0174C110.662 36.0801 110.932 37.3179 110.932 38.7309C110.932 40.1439 110.662 41.3788 110.122 42.4356C109.587 43.4923 108.83 44.3146 107.851 44.9024C106.871 45.4901 105.713 45.784 104.378 45.784ZM104.395 43.2014C105.12 43.2014 105.725 43.0025 106.212 42.6048C106.699 42.2011 107.061 41.6608 107.299 40.984C107.542 40.3072 107.664 39.5532 107.664 38.722C107.664 37.8849 107.542 37.1279 107.299 36.4511C107.061 35.7684 106.699 35.2252 106.212 34.8214C105.725 34.4177 105.12 34.2159 104.395 34.2159C103.653 34.2159 103.036 34.4177 102.543 34.8214C102.056 35.2252 101.691 35.7684 101.448 36.4511C101.21 37.1279 101.092 37.8849 101.092 38.722C101.092 39.5532 101.21 40.3072 101.448 40.984C101.691 41.6608 102.056 42.2011 102.543 42.6048C103.036 43.0025 103.653 43.2014 104.395 43.2014ZM122.387 39.7639V31.8381H125.61V45.5168H122.485V43.0857H122.342C122.033 43.8515 121.526 44.4779 120.819 44.9647C120.119 45.4515 119.255 45.6949 118.228 45.6949C117.331 45.6949 116.539 45.4961 115.85 45.0983C115.167 44.6946 114.633 44.1098 114.247 43.3439C113.861 42.5721 113.668 41.64 113.668 40.5476V31.8381H116.892V40.0489C116.892 40.9157 117.129 41.6044 117.604 42.115C118.079 42.6255 118.703 42.8808 119.475 42.8808C119.95 42.8808 120.41 42.7651 120.855 42.5335C121.3 42.302 121.665 41.9576 121.95 41.5005C122.241 41.0374 122.387 40.4586 122.387 39.7639ZM139.737 35.4537L136.798 35.7743C136.715 35.4775 136.569 35.1984 136.361 34.9372C136.16 34.676 135.886 34.4652 135.542 34.3049C135.198 34.1446 134.776 34.0645 134.278 34.0645C133.607 34.0645 133.043 34.2099 132.586 34.5008C132.134 34.7918 131.912 35.1688 131.918 35.6318C131.912 36.0296 132.057 36.3532 132.354 36.6025C132.657 36.8519 133.155 37.0567 133.85 37.217L136.183 37.7157C137.478 37.9947 138.439 38.437 139.069 39.0426C139.704 39.6482 140.025 40.4408 140.03 41.4203C140.025 42.2812 139.772 43.0411 139.273 43.7001C138.781 44.3532 138.095 44.8638 137.216 45.2319C136.338 45.5999 135.328 45.784 134.189 45.784C132.514 45.784 131.167 45.4337 130.145 44.7332C129.124 44.0267 128.516 43.0441 128.32 41.7855L131.463 41.4827C131.606 42.1001 131.909 42.5662 132.372 42.8808C132.835 43.1955 133.437 43.3528 134.18 43.3528C134.945 43.3528 135.56 43.1955 136.023 42.8808C136.492 42.5662 136.727 42.1773 136.727 41.7142C136.727 41.3224 136.575 40.9988 136.272 40.7435C135.976 40.4882 135.512 40.2923 134.883 40.1558L132.55 39.666C131.238 39.3929 130.267 38.9328 129.638 38.2856C129.009 37.6326 128.697 36.8073 128.703 35.8099C128.697 34.9669 128.925 34.2367 129.389 33.6192C129.858 32.9958 130.508 32.5149 131.339 32.1765C132.176 31.8322 133.141 31.66 134.233 31.66C135.836 31.66 137.098 32.0014 138.018 32.6841C138.944 33.3669 139.517 34.2901 139.737 35.4537ZM149.519 31.8381V34.3316H141.656V31.8381H149.519ZM143.597 28.5609H146.821V41.4025C146.821 41.8359 146.886 42.1684 147.017 42.3999C147.153 42.6255 147.331 42.7799 147.551 42.863C147.771 42.9461 148.014 42.9877 148.281 42.9877C148.483 42.9877 148.667 42.9729 148.833 42.9432C149.006 42.9135 149.136 42.8868 149.225 42.863L149.769 45.3832C149.596 45.4426 149.35 45.5079 149.029 45.5792C148.715 45.6504 148.329 45.692 147.872 45.7038C147.064 45.7276 146.337 45.6059 145.69 45.3387C145.043 45.0656 144.529 44.6441 144.149 44.0742C143.775 43.5042 143.591 42.7918 143.597 41.9369V28.5609ZM152.215 45.5168V31.8381H155.439V45.5168H152.215ZM153.836 29.8968C153.325 29.8968 152.886 29.7276 152.518 29.3891C152.15 29.0448 151.966 28.6322 151.966 28.1513C151.966 27.6645 152.15 27.2519 152.518 26.9134C152.886 26.5691 153.325 26.3969 153.836 26.3969C154.353 26.3969 154.792 26.5691 155.154 26.9134C155.522 27.2519 155.706 27.6645 155.706 28.1513C155.706 28.6322 155.522 29.0448 155.154 29.3891C154.792 29.7276 154.353 29.8968 153.836 29.8968ZM164.721 45.784C163.355 45.784 162.183 45.4842 161.203 44.8845C160.229 44.2849 159.478 43.4567 158.95 42.3999C158.428 41.3372 158.166 40.1142 158.166 38.7309C158.166 37.3417 158.433 36.1157 158.968 35.053C159.502 33.9843 160.256 33.1532 161.23 32.5595C162.209 31.9598 163.367 31.66 164.703 31.66C165.813 31.66 166.796 31.8649 167.651 32.2745C168.511 32.6782 169.197 33.2511 169.708 33.9932C170.218 34.7294 170.509 35.5903 170.58 36.5758H167.499C167.374 35.9168 167.078 35.3676 166.609 34.9283C166.146 34.483 165.525 34.2604 164.747 34.2604C164.088 34.2604 163.51 34.4385 163.011 34.7947C162.512 35.145 162.123 35.6496 161.844 36.3086C161.571 36.9676 161.435 37.7573 161.435 38.6775C161.435 39.6096 161.571 40.4111 161.844 41.0819C162.117 41.7469 162.5 42.2604 162.993 42.6226C163.492 42.9788 164.077 43.1569 164.747 43.1569C165.222 43.1569 165.647 43.0678 166.021 42.8897C166.401 42.7057 166.718 42.4415 166.974 42.0972C167.229 41.7528 167.404 41.3343 167.499 40.8415H170.58C170.503 41.8092 170.218 42.6671 169.726 43.4152C169.233 44.1573 168.562 44.7391 167.713 45.1606C166.864 45.5762 165.867 45.784 164.721 45.784ZM182.894 27.2786V45.5168H179.59V27.2786H182.894ZM189.553 37.502V45.5168H186.33V31.8381H189.411V34.1624H189.571C189.886 33.3966 190.388 32.788 191.076 32.3368C191.771 31.8856 192.629 31.66 193.65 31.66C194.594 31.66 195.416 31.8619 196.117 32.2656C196.823 32.6693 197.369 33.2541 197.755 34.02C198.147 34.7858 198.34 35.715 198.334 36.8073V45.5168H195.11V37.3061C195.11 36.3918 194.873 35.6764 194.398 35.1598C193.929 34.6433 193.279 34.3851 192.448 34.3851C191.884 34.3851 191.382 34.5098 190.943 34.7591C190.509 35.0025 190.168 35.3558 189.919 35.8188C189.675 36.2819 189.553 36.843 189.553 37.502ZM207.578 45.784C206.212 45.784 205.04 45.4842 204.06 44.8845C203.087 44.2849 202.336 43.4567 201.807 42.3999C201.285 41.3372 201.024 40.1142 201.024 38.7309C201.024 37.3417 201.291 36.1157 201.825 35.053C202.359 33.9843 203.113 33.1532 204.087 32.5595C205.067 31.9598 206.224 31.66 207.56 31.66C208.67 31.66 209.653 31.8649 210.508 32.2745C211.369 32.6782 212.054 33.2511 212.565 33.9932C213.076 34.7294 213.366 35.5903 213.438 36.5758H210.356C210.232 35.9168 209.935 35.3676 209.466 34.9283C209.003 34.483 208.382 34.2604 207.605 34.2604C206.946 34.2604 206.367 34.4385 205.868 34.7947C205.369 35.145 204.981 35.6496 204.701 36.3086C204.428 36.9676 204.292 37.7573 204.292 38.6775C204.292 39.6096 204.428 40.4111 204.701 41.0819C204.975 41.7469 205.358 42.2604 205.85 42.6226C206.349 42.9788 206.934 43.1569 207.605 43.1569C208.08 43.1569 208.504 43.0678 208.878 42.8897C209.258 42.7057 209.576 42.4415 209.831 42.0972C210.086 41.7528 210.261 41.3343 210.356 40.8415H213.438C213.36 41.8092 213.076 42.6671 212.583 43.4152C212.09 44.1573 211.419 44.7391 210.57 45.1606C209.721 45.5762 208.724 45.784 207.578 45.784ZM218.071 45.7127C217.53 45.7127 217.067 45.5228 216.681 45.1428C216.296 44.7628 216.106 44.2998 216.112 43.7536C216.106 43.2192 216.296 42.7621 216.681 42.3821C217.067 42.0022 217.53 41.8122 218.071 41.8122C218.593 41.8122 219.047 42.0022 219.433 42.3821C219.825 42.7621 220.024 43.2192 220.03 43.7536C220.024 44.1157 219.929 44.4452 219.745 44.7421C219.567 45.0389 219.329 45.2764 219.032 45.4545C218.742 45.6267 218.421 45.7127 218.071 45.7127Z" fill="#1C1C1C"/>
</svg>
