<svg width="12" height="12" viewBox="0 0 12 12" fill="none" xmlns="http://www.w3.org/2000/svg">
<path d="M6.65708 11.7201L11.7025 6.76596C11.7944 6.67169 11.8668 6.5602 11.9155 6.43789C12.0178 6.19535 12.0203 5.92228 11.9225 5.67792C11.876 5.55474 11.8057 5.44195 11.7155 5.34602L6.76135 0.300575C6.66897 0.206489 6.55896 0.13152 6.4376 0.07995C6.31624 0.0283795 6.18592 0.00121659 6.05406 1.26856e-05C5.78777 -0.00241871 5.53142 0.101033 5.34141 0.28761C5.15139 0.474186 5.04328 0.728604 5.04085 0.994895C5.03842 1.26119 5.14187 1.51754 5.32844 1.70755L8.59827 5.02754L1.00859 4.95824C0.743379 4.95582 0.488074 5.05885 0.298833 5.24467C0.109592 5.43049 0.00191811 5.68387 -0.000503375 5.94907C-0.00292486 6.21428 0.100105 6.46958 0.285921 6.65882C0.471737 6.84806 0.725119 6.95574 0.990325 6.95816L8.58001 7.02746L5.25011 10.2872C5.15553 10.3793 5.08013 10.4892 5.02825 10.6106C4.97637 10.732 4.94904 10.8625 4.94784 10.9945C4.94663 11.1265 4.97158 11.2574 5.02123 11.3797C5.07089 11.502 5.14427 11.6133 5.23714 11.7071C5.32925 11.8017 5.43916 11.8771 5.56055 11.929C5.68194 11.9809 5.81241 12.0082 5.94441 12.0094C6.07642 12.0106 6.20736 11.9857 6.32967 11.936C6.45199 11.8864 6.56327 11.813 6.65708 11.7201Z" fill="#EA8E39"/>
</svg>
