<svg width="34" height="34" viewBox="0 0 34 34" fill="none" xmlns="http://www.w3.org/2000/svg">
<g clip-path="url(#clip0_240_1416)">
<path d="M33.0172 15.5557L27.6439 7.13303C27.4576 6.84222 27.1636 6.63708 26.8264 6.56254C26.4892 6.488 26.1362 6.55013 25.8446 6.73532L23.2068 8.41805C22.9625 8.57449 22.7774 8.8079 22.6807 9.08136C22.584 9.35481 22.5812 9.65271 22.6728 9.92793C22.5552 9.92948 22.4335 9.92692 22.3075 9.92023C21.7241 9.88836 21.3611 9.71059 20.9769 9.52239C20.0007 9.04427 19.1832 8.81324 17.1043 9.93756C16.3319 8.93483 15.0547 9.25139 13.9138 9.53481C13.0359 9.75275 12.1328 9.97694 11.3023 9.76969C11.4143 9.48797 11.4248 9.17604 11.3319 8.88744C11.239 8.59884 11.0486 8.35156 10.7933 8.18802L8.15535 6.50516C7.86389 6.31974 7.5108 6.25749 7.17351 6.33206C6.83622 6.40663 6.54227 6.61193 6.35614 6.90293L0.982812 15.3257C0.797658 15.6172 0.735552 15.9702 0.810091 16.3074C0.884631 16.6446 1.08974 16.9385 1.38052 17.1248L4.01844 18.8076C4.30983 18.9932 4.66297 19.0556 5.0003 18.981C5.33763 18.9065 5.63158 18.7011 5.81759 18.4099L6.16144 17.871C6.18636 17.8956 6.21124 17.9191 6.23608 17.9414C5.68205 18.5595 5.1765 19.269 5.25672 20.2004C5.31389 20.8645 5.55409 21.3562 5.97059 21.6619C6.34372 21.9356 6.8433 22.0428 7.46008 21.9819C7.54435 22.5213 7.75552 22.9528 8.09094 23.2688C8.47901 23.6348 9.02169 23.8329 9.70786 23.8598C9.83802 24.3309 10.0806 24.6914 10.4321 24.9345C10.8944 25.2544 11.5044 25.3516 12.2883 25.2286C12.6289 26.061 13.3044 26.4957 14.2665 26.4957C14.3007 26.4957 14.3353 26.4952 14.3702 26.494C14.8879 26.4777 15.4025 26.0942 15.7854 25.7181C16.8687 26.4641 17.8094 26.8398 18.5938 26.8398C18.8294 26.8416 19.0637 26.804 19.2869 26.7284C19.8686 26.5279 20.309 26.0763 20.6001 25.3831C21.2635 25.5943 21.8425 25.58 22.3267 25.3396C22.8509 25.0792 23.2392 24.5633 23.4842 23.8037C24.1217 23.8693 24.6436 23.7511 25.04 23.4507C25.4159 23.166 25.6632 22.7296 25.7783 22.1498C26.6785 22.2473 27.4369 22.0213 28.0376 21.4755C28.0655 21.4502 28.0902 21.4215 28.1112 21.3902C28.552 20.7322 28.7105 20.0908 28.5827 19.4837C28.5295 19.2394 28.4337 19.0064 28.2997 18.7954C28.5047 19.0304 28.7872 19.184 29.0959 19.2285C29.4046 19.273 29.7189 19.2052 29.982 19.0377L32.6199 17.3549C32.9107 17.1686 33.1158 16.8746 33.1904 16.5374C33.2649 16.2002 33.2028 15.8472 33.0176 15.5557L33.0172 15.5557ZM20.568 10.3573C20.9765 10.5573 21.4849 10.8064 22.2568 10.8487C22.5705 10.8674 22.8851 10.8598 23.1974 10.8259L27.4934 17.5601C27.4273 17.647 27.3413 17.7167 27.2426 17.7633C27.2032 17.7367 27.1637 17.7105 27.1226 17.6846C26.7532 17.4546 26.1973 17.0586 25.5537 16.6C22.1745 14.1927 19.7007 12.5578 18.6394 13.4532C16.09 15.6038 14.5368 16.1161 13.9816 15.9016C13.8926 15.8671 13.7978 15.8032 13.7691 15.5899C13.6628 14.7903 14.656 12.8248 17.1968 10.9506C19.3021 9.73722 19.8334 9.99746 20.5678 10.3573H20.568ZM5.03406 17.9098C4.98074 17.9931 4.89652 18.0519 4.79989 18.0733C4.70325 18.0947 4.6021 18.0768 4.51861 18.0237L1.88076 16.3409C1.79738 16.2876 1.73855 16.2034 1.71719 16.1068C1.69582 16.0101 1.71367 15.909 1.7668 15.8255L7.13993 7.4027C7.19324 7.31932 7.27746 7.2605 7.37409 7.23913C7.47072 7.21777 7.57189 7.23561 7.65538 7.28875L10.293 8.97149C10.3759 9.02515 10.4344 9.10933 10.4557 9.20579C10.477 9.30225 10.4595 9.40323 10.4069 9.48686L5.03406 17.9098ZM6.5207 20.9121C6.32984 20.7721 6.21629 20.5057 6.18315 20.1205C6.12226 19.4129 6.6721 18.8286 7.25422 18.21C7.36957 18.0874 7.48883 17.9606 7.60099 17.8346C7.71072 17.708 7.85334 17.6142 8.01307 17.5636C8.1728 17.513 8.34342 17.5075 8.50604 17.5479C8.69307 17.594 8.86557 17.6862 9.00782 17.8161C9.15006 17.9461 9.25751 18.1095 9.32038 18.2916C9.16174 18.7796 8.74145 19.6966 7.6328 21.0189C7.12652 21.1117 6.74369 21.0759 6.5207 20.9123V20.9121ZM8.35457 21.6047C9.60347 20.1119 10.0618 19.0481 10.2286 18.502C10.6771 18.0348 11.4514 17.8313 12.0041 18.0493C12.3939 18.203 12.5919 18.5418 12.5943 19.0563L9.84386 22.9334C9.33951 22.9295 8.96511 22.8154 8.72864 22.5924C8.50724 22.3837 8.38219 22.0515 8.35457 21.6049V21.6047ZM10.961 24.1698C10.7699 24.0377 10.6444 23.8185 10.5784 23.5044L13.3261 19.6315C13.9507 19.5285 14.439 19.6262 14.6801 19.9085C14.9381 20.2103 14.9476 20.7537 14.7098 21.4057C14.0249 22.2368 13.4833 22.8946 13.0848 23.3789C12.7395 23.7987 12.4791 24.1148 12.3488 24.2725C11.7219 24.4005 11.2439 24.3657 10.961 24.17V24.1698ZM14.3411 25.5643C13.6918 25.5855 13.3164 25.353 13.1198 24.7986C13.2419 24.6507 13.4493 24.3988 13.8027 23.9694C14.1739 23.5185 14.6691 22.9171 15.2885 22.1651C15.8633 22.3371 16.1956 22.5821 16.2771 22.8956C16.3444 23.1546 16.1295 23.8131 15.5985 24.5226C15.0994 25.1898 14.5782 25.5574 14.341 25.5649L14.3411 25.5643ZM27.3706 20.8237C26.9139 21.2143 26.3208 21.3289 25.563 21.1749L20.495 17.7504C20.4444 17.7158 20.3875 17.6916 20.3275 17.6791C20.2676 17.6666 20.2057 17.666 20.1455 17.6775C20.0854 17.689 20.0281 17.7123 19.9769 17.746C19.9257 17.7797 19.8818 17.8231 19.8475 17.8739C19.8132 17.9246 19.7892 17.9817 19.7771 18.0417C19.7649 18.1017 19.7647 18.1636 19.7765 18.2237C19.7883 18.2838 19.8119 18.341 19.8458 18.392C19.8798 18.4429 19.9235 18.4867 19.9745 18.5207L24.8879 21.8414C24.8275 22.2572 24.6903 22.5491 24.4782 22.7098C24.2325 22.8957 23.8426 22.9383 23.3219 22.8395L19.4147 20.29L18.9067 21.0686L22.6097 23.4848C22.4458 24.0145 22.2123 24.3583 21.9124 24.5071C21.5857 24.6693 21.1268 24.623 20.5486 24.3704L18.2426 22.7312C18.1421 22.6607 18.0177 22.6328 17.8967 22.6536C17.7757 22.6744 17.6679 22.7423 17.5967 22.8423C17.5256 22.9424 17.4969 23.0666 17.517 23.1877C17.5371 23.3089 17.6043 23.4171 17.7039 23.4889L19.7691 24.9568C19.5821 25.4339 19.3189 25.7337 18.9838 25.8497C18.3979 26.0518 17.5069 25.7601 16.3951 25.0085C16.6925 24.5968 17.3958 23.5048 17.1766 22.6618C17.0181 22.0526 16.5249 21.6041 15.7082 21.3247C15.9182 20.5044 15.8089 19.7988 15.3867 19.3047C14.9743 18.822 14.3137 18.6048 13.4949 18.6738C13.3872 17.9663 12.9851 17.4372 12.345 17.1847C11.5929 16.8882 10.6619 17.0361 9.96054 17.5168C9.67194 17.0764 9.22553 16.7634 8.71316 16.6421C8.38819 16.5646 8.04824 16.5772 7.72987 16.6784C7.4115 16.7797 7.12675 16.9658 6.90625 17.2168C6.8939 17.2307 6.88062 17.2448 6.86807 17.2587C6.79989 17.1975 6.73676 17.1309 6.67927 17.0595L10.805 10.5918C11.9422 10.9818 13.1022 10.6939 14.1377 10.4367C15.3444 10.1371 15.9458 10.0424 16.3199 10.4495C14.0768 12.1995 12.6625 14.3246 12.8476 15.7123C12.9154 16.2205 13.199 16.5955 13.6463 16.7682C14.7702 17.2025 16.7039 16.3016 19.2387 14.1632C19.2419 14.1605 19.5808 13.9042 21.3758 14.9306C22.5567 15.6061 23.9192 16.5767 25.014 17.3567C25.6703 17.8242 26.2371 18.2281 26.628 18.4714C27.2334 18.8549 27.5848 19.2599 27.6724 19.6753C27.7451 20.0202 27.6464 20.3964 27.3705 20.8242L27.3706 20.8237ZM27.9831 18.3838C27.991 18.3773 27.9988 18.3706 28.0066 18.3639L28.1213 18.5435C28.078 18.4904 28.0317 18.4371 27.983 18.3843L27.9831 18.3838ZM32.2821 16.3363C32.2719 16.3842 32.2522 16.4296 32.2242 16.4698C32.1963 16.51 32.1607 16.5443 32.1194 16.5706L29.4815 18.2534C29.398 18.3066 29.2969 18.3244 29.2002 18.303C29.1036 18.2817 29.0194 18.2228 28.9661 18.1395L23.5928 9.71729C23.5397 9.63376 23.5219 9.53258 23.5433 9.43595C23.5648 9.33932 23.6236 9.25513 23.707 9.20185L26.3448 7.51911C26.4285 7.46651 26.5294 7.44897 26.6259 7.47029C26.7224 7.4916 26.8066 7.55006 26.8603 7.633L32.2334 16.0558C32.2597 16.0971 32.2775 16.1432 32.2858 16.1915C32.2942 16.2397 32.2929 16.2891 32.282 16.3369L32.2821 16.3363ZM9.78981 2.46407C9.72914 2.35736 9.71314 2.23099 9.7453 2.11253C9.77746 1.99406 9.85517 1.89313 9.96148 1.83176C10.0678 1.77038 10.194 1.75354 10.3127 1.78492C10.4314 1.81629 10.5328 1.89333 10.5949 1.99923L12.6801 5.61106C12.7111 5.66395 12.7313 5.72244 12.7396 5.78318C12.7479 5.84392 12.7441 5.9057 12.7285 5.96497C12.7128 6.02424 12.6856 6.07982 12.6483 6.12852C12.6111 6.17721 12.5646 6.21807 12.5115 6.24872C12.4584 6.27937 12.3998 6.29922 12.339 6.30712C12.2782 6.31502 12.2164 6.31082 12.1573 6.29476C12.0981 6.2787 12.0427 6.25109 11.9943 6.21353C11.9458 6.17597 11.9053 6.1292 11.875 6.07591L9.78981 2.46407ZM17.4326 5.23321V1.0625C17.4326 0.939216 17.4816 0.820981 17.5688 0.733806C17.656 0.646631 17.7742 0.597656 17.8975 0.597656C18.0208 0.597656 18.139 0.646631 18.2262 0.733806C18.3133 0.820981 18.3623 0.939216 18.3623 1.0625V5.23314C18.3623 5.35643 18.3133 5.47466 18.2262 5.56184C18.139 5.64901 18.0208 5.69799 17.8975 5.69799C17.7742 5.69799 17.656 5.64901 17.5688 5.56184C17.4816 5.47466 17.4326 5.3565 17.4326 5.23321ZM23.0311 5.15425L25.1163 1.54242C25.1466 1.48913 25.1871 1.44235 25.2356 1.40479C25.284 1.36723 25.3394 1.33963 25.3986 1.32356C25.4578 1.3075 25.5195 1.3033 25.5803 1.3112C25.6411 1.31911 25.6997 1.33895 25.7528 1.36961C25.8059 1.40026 25.8524 1.44111 25.8897 1.48981C25.9269 1.5385 25.9541 1.59409 25.9698 1.65335C25.9855 1.71262 25.9893 1.7744 25.981 1.83514C25.9727 1.89588 25.9524 1.95438 25.9214 2.00726L23.8363 5.6191C23.7742 5.72499 23.6727 5.80203 23.5541 5.83341C23.4354 5.86478 23.3091 5.84795 23.2028 5.78657C23.0965 5.72519 23.0188 5.62426 22.9866 5.5058C22.9545 5.38734 22.9705 5.26096 23.0311 5.15425ZM25.9216 31.536C25.9526 31.5889 25.9729 31.6474 25.9812 31.7081C25.9895 31.7689 25.9857 31.8306 25.97 31.8899C25.9543 31.9492 25.9271 32.0048 25.8899 32.0535C25.8526 32.1021 25.8061 32.143 25.753 32.1737C25.6999 32.2043 25.6413 32.2242 25.5805 32.2321C25.5197 32.24 25.458 32.2358 25.3988 32.2197C25.3396 32.2036 25.2842 32.176 25.2358 32.1385C25.1873 32.1009 25.1468 32.0541 25.1165 32.0008L23.0313 28.389C23.0003 28.3361 22.9801 28.2776 22.9718 28.2169C22.9635 28.1561 22.9673 28.0944 22.983 28.0351C22.9986 27.9758 23.0259 27.9202 23.0631 27.8715C23.1003 27.8229 23.1468 27.782 23.1999 27.7513C23.253 27.7207 23.3117 27.7008 23.3724 27.6929C23.4332 27.685 23.495 27.6892 23.5542 27.7053C23.6133 27.7214 23.6687 27.749 23.7172 27.7865C23.7656 27.8241 23.8062 27.8709 23.8365 27.9242L25.9216 31.536ZM18.2787 28.7672V32.9375C18.2787 33.0608 18.2297 33.179 18.1426 33.2662C18.0554 33.3534 17.9372 33.4023 17.8139 33.4023C17.6906 33.4023 17.5724 33.3534 17.4852 33.2662C17.398 33.179 17.349 33.0608 17.349 32.9375V28.7672C17.349 28.6439 17.398 28.5257 17.4852 28.4385C17.5724 28.3513 17.6906 28.3023 17.8139 28.3023C17.9372 28.3023 18.0554 28.3513 18.1426 28.4385C18.2297 28.5257 18.2787 28.6439 18.2787 28.7672ZM12.6802 28.8461L10.5951 32.458C10.533 32.5639 10.4315 32.6409 10.3129 32.6723C10.1942 32.7037 10.0679 32.6868 9.96161 32.6255C9.85531 32.5641 9.7776 32.4631 9.74543 32.3447C9.71327 32.2262 9.72927 32.0998 9.78994 31.9931L11.8751 28.3813C11.9372 28.2754 12.0386 28.1984 12.1573 28.167C12.276 28.1356 12.4022 28.1525 12.5085 28.2138C12.6148 28.2752 12.6926 28.3761 12.7247 28.4946C12.7569 28.6131 12.7409 28.7394 12.6802 28.8461Z" fill="#1F6775"/>
</g>
<defs>
<clipPath id="clip0_240_1416">
<rect width="34" height="34" fill="white"/>
</clipPath>
</defs>
</svg>
