<svg width="34" height="34" viewBox="0 0 34 34" fill="none" xmlns="http://www.w3.org/2000/svg">
<path d="M17 2.05664L4.25 6.69366V17.0001C4.25 28.6461 16.6223 31.8139 16.7468 31.845L17 31.9062L17.2532 31.845C17.3777 31.8139 29.75 28.6461 29.75 17.0001V6.69366L17 2.05664ZM27.625 17.0001C27.625 26.2213 18.6902 29.2261 17.0042 29.7107C15.3782 29.2292 6.375 26.1424 6.375 17.0001V8.18158L17 4.3186L27.625 8.18158V17.0001Z" fill="#1F6775"/>
<path d="M11.3762 16.249L9.87378 17.7515L14.875 22.7527L24.1262 13.5015L22.6238 11.999L14.875 19.7478L11.3762 16.249Z" fill="#1F6775"/>
</svg>
