<svg width="34" height="34" viewBox="0 0 34 34" fill="none" xmlns="http://www.w3.org/2000/svg">
<g clip-path="url(#clip0_240_1391)">
<path d="M20.8456 13.8416L15.7371 18.6667L13.2853 16.1444C13.0135 15.8646 12.566 15.8582 12.2865 16.13C12.0066 16.4021 12.0003 16.8494 12.2721 17.1292L15.2126 20.1478C15.4857 20.4226 15.9272 20.432 16.2117 20.1688L21.8306 14.869C21.9671 14.7403 22.0468 14.5626 22.0521 14.3753C22.0573 14.1879 21.9878 14.006 21.8589 13.8699C21.5854 13.5856 21.1345 13.5732 20.8456 13.8416Z" fill="white"/>
<path d="M17.0548 6.41602C11.2164 6.41602 6.4691 11.1633 6.4691 17.0017C6.4691 22.8404 11.2164 27.5877 17.0548 27.5877C22.8935 27.5877 27.6408 22.8404 27.6408 17.0017C27.6408 11.1633 22.8935 6.41602 17.0548 6.41602ZM17.0548 26.1706C11.9958 26.1706 7.88621 22.0538 7.88621 17.0017C7.88621 11.9497 11.9958 7.83313 17.0548 7.83313C22.1188 7.83313 26.2237 11.938 26.2237 17.0017C26.2237 22.0654 22.1188 26.1706 17.0548 26.1706Z" fill="white"/>
<path d="M31.6228 13.1047L31.8567 8.90295C31.873 8.62091 31.7197 8.35603 31.467 8.22982L27.7257 6.33804L25.834 2.59681C25.7053 2.34633 25.442 2.19382 25.1608 2.20711L20.9519 2.43407L17.4445 0.11687C17.2081 -0.0389567 16.9017 -0.0389567 16.6651 0.11687L13.1577 2.43407L8.95624 2.20019C8.67393 2.18358 8.40932 2.33692 8.28311 2.58989L6.39105 6.33112L2.6501 8.2229C2.39934 8.35133 2.24711 8.61455 2.2604 8.89603L2.494 13.0978L0.177081 16.6052C0.0212545 16.8415 0.0212545 17.1479 0.177081 17.3846L2.48708 20.8988L2.2532 25.1006C2.23687 25.3827 2.38993 25.6475 2.64291 25.7738L6.38413 27.6655L8.27592 31.4068C8.40434 31.6575 8.66756 31.8098 8.94904 31.7965L13.1508 31.5626L16.6582 33.8795C16.8932 34.0403 17.2026 34.0403 17.4376 33.8795L20.9449 31.5626L25.1467 31.7965C25.4288 31.8128 25.6934 31.6595 25.8198 31.4068L27.7116 27.6655L31.4529 25.7738C31.7033 25.645 31.8558 25.3821 31.8426 25.1006L31.6087 20.8988L33.9256 17.3915C34.0814 17.1551 34.0814 16.8485 33.9256 16.6121L31.6228 13.1047ZM30.3048 20.3179C30.2184 20.4446 30.1783 20.5971 30.1916 20.7502L30.4111 24.725L26.8755 26.5105C26.7407 26.5781 26.6314 26.6877 26.5638 26.8225L24.778 30.358L20.8032 30.1386C20.651 30.133 20.5007 30.1723 20.3709 30.2518L17.0548 32.4414L13.739 30.2518C13.6238 30.174 13.4882 30.1319 13.3493 30.1314H13.3139L9.33875 30.3511L7.55325 26.8153C7.48571 26.6805 7.37639 26.5712 7.24132 26.5036L3.69854 24.725L3.91831 20.7502C3.92384 20.598 3.88426 20.4477 3.80483 20.3179L1.6155 17.0018L3.80483 13.6857C3.89146 13.5592 3.93159 13.4064 3.91831 13.2536L3.69854 9.27854L7.2344 7.49304C7.36919 7.4255 7.47852 7.31617 7.54605 7.18138L9.33155 3.64553L13.3067 3.86529C13.4586 3.87055 13.6089 3.83125 13.739 3.75181L17.0548 1.56249L20.3709 3.75181C20.4977 3.83844 20.6504 3.87858 20.8032 3.86529L24.778 3.64553L26.5638 7.18138C26.6314 7.31617 26.7407 7.4255 26.8755 7.49304L30.4111 9.27854L30.1916 13.2536C30.186 13.4056 30.2256 13.5559 30.3048 13.6857L32.4944 17.0018L30.3048 20.3179Z" fill="white"/>
</g>
<defs>
<clipPath id="clip0_240_1391">
<rect width="34" height="34" fill="white"/>
</clipPath>
</defs>
</svg>
