<svg width="34" height="34" viewBox="0 0 34 34" fill="none" xmlns="http://www.w3.org/2000/svg">
<g clip-path="url(#clip0_240_1425)">
<path d="M11.0027 6.81622C11.2778 6.81622 11.5007 6.59329 11.5007 6.31817V5.0686H12.7386C13.0137 5.0686 13.2367 4.84568 13.2367 4.57056C13.2367 4.29544 13.0137 4.07251 12.7386 4.07251H11.3758C10.8955 4.07251 10.5047 4.46331 10.5047 4.94369V6.3181C10.5046 6.59322 10.7276 6.81622 11.0027 6.81622Z" fill="#1F6775"/>
<path d="M28.3938 5.0686H29.6088V6.3181C29.6088 6.59322 29.8317 6.81615 30.1068 6.81615C30.3819 6.81615 30.6049 6.59322 30.6049 6.3181V4.94369C30.6049 4.46331 30.2141 4.07251 29.7337 4.07251H28.3938C28.1187 4.07251 27.8958 4.29544 27.8958 4.57056C27.8958 4.84568 28.1187 5.0686 28.3938 5.0686Z" fill="#1F6775"/>
<path d="M28.3938 24.1731H29.7337C30.2141 24.1731 30.6049 23.7823 30.6049 23.302V21.9736C30.6049 21.6985 30.3819 21.4756 30.1068 21.4756C29.8317 21.4756 29.6088 21.6985 29.6088 21.9736V23.177H28.3938C28.1187 23.177 27.8958 23.4 27.8958 23.6751C27.8958 23.9502 28.1187 24.1731 28.3938 24.1731Z" fill="#1F6775"/>
<path d="M11.3757 24.1731H12.7385C13.0136 24.1731 13.2365 23.9502 13.2365 23.6751C13.2365 23.4 13.0136 23.177 12.7385 23.177H11.5006V21.9736C11.5006 21.6985 11.2777 21.4756 11.0026 21.4756C10.7274 21.4756 10.5045 21.6985 10.5045 21.9736V23.302C10.5046 23.7823 10.8953 24.1731 11.3757 24.1731Z" fill="#1F6775"/>
<path d="M32.6461 26.9549H7.4029C7.20561 26.9549 7.04511 26.7944 7.04511 26.5971V1.35389C7.04511 0.607352 6.43769 0 5.69115 0H1.35389C0.607352 0 0 0.607352 0 1.35389V9.45525C0 9.73037 0.222926 9.9533 0.498047 9.9533C0.773168 9.9533 0.996094 9.73037 0.996094 9.45525V1.35389C0.996094 1.1566 1.1566 0.996094 1.35389 0.996094H5.69115C5.88851 0.996094 6.04901 1.1566 6.04901 1.35389V3.77407H4.3607C4.08558 3.77407 3.86265 3.99699 3.86265 4.27211C3.86265 4.54723 4.08558 4.77016 4.3607 4.77016H6.04901V6.94775H5.01367C4.73855 6.94775 4.51562 7.17068 4.51562 7.4458C4.51562 7.72092 4.73855 7.94385 5.01367 7.94385H6.04901V10.1214H4.3607C4.08558 10.1214 3.86265 10.3443 3.86265 10.6194C3.86265 10.8945 4.08558 11.1175 4.3607 11.1175H6.04901V13.2951H5.01367C4.73855 13.2951 4.51562 13.518 4.51562 13.7931C4.51562 14.0682 4.73855 14.2912 5.01367 14.2912H6.04901V16.4687H4.3607C4.08558 16.4687 3.86265 16.6916 3.86265 16.9667C3.86265 17.2419 4.08558 17.4648 4.3607 17.4648H6.04901V19.6424H5.01367C4.73855 19.6424 4.51562 19.8653 4.51562 20.1404C4.51562 20.4155 4.73855 20.6385 5.01367 20.6385H6.04901V22.8161H4.3607C4.08558 22.8161 3.86265 23.039 3.86265 23.3141C3.86265 23.5892 4.08558 23.8122 4.3607 23.8122H6.04901V26.5971C6.04901 26.7881 6.08879 26.9701 6.16051 27.1351L0.996094 32.2995V11.7836C0.996094 11.5085 0.773168 11.2855 0.498047 11.2855C0.222926 11.2855 0 11.5085 0 11.7836V32.6461C0 33.3923 0.606953 34 1.35389 34H32.6462C33.3927 34 34.0001 33.3926 34.0001 32.6461V28.3089C34 27.5623 33.3926 26.9549 32.6461 26.9549ZM33.0039 32.6461C33.0039 32.8434 32.8434 33.0039 32.6461 33.0039H1.70046L6.86488 27.8395C7.02983 27.9112 7.21178 27.951 7.40284 27.951H9.87162V29.6403C9.87162 29.9154 10.0945 30.1383 10.3697 30.1383C10.6448 30.1383 10.8677 29.9154 10.8677 29.6403V27.951H13.0453V28.9873C13.0453 29.2624 13.2682 29.4854 13.5434 29.4854C13.8185 29.4854 14.0414 29.2624 14.0414 28.9873V27.951H16.2189V29.6403C16.2189 29.9154 16.4419 30.1383 16.717 30.1383C16.9921 30.1383 17.215 29.9154 17.215 29.6403V27.951H19.3926V28.9873C19.3926 29.2624 19.6155 29.4854 19.8907 29.4854C20.1658 29.4854 20.3887 29.2624 20.3887 28.9873V27.951H22.5662V29.6403C22.5662 29.9154 22.7892 30.1383 23.0643 30.1383C23.3394 30.1383 23.5623 29.9154 23.5623 29.6403V27.951H25.7399V28.9873C25.7399 29.2624 25.9629 29.4854 26.238 29.4854C26.5131 29.4854 26.736 29.2624 26.736 28.9873V27.951H28.9135V29.6403C28.9135 29.9154 29.1365 30.1383 29.4116 30.1383C29.6867 30.1383 29.9096 29.9154 29.9096 29.6403V27.951H32.6461C32.8434 27.951 33.0039 28.1115 33.0039 28.3089V32.6461Z" fill="#1F6775"/>
<path d="M14.105 18.7116L19.8055 22.0028C20.2677 22.2697 20.8418 22.2697 21.3039 22.0028L27.0044 18.7116C27.4665 18.4449 27.7536 17.9477 27.7536 17.414V10.8316C27.7536 10.2987 27.467 9.80102 27.0044 9.534L21.3039 6.24284C20.8418 5.97602 20.2677 5.97602 19.8055 6.24284L14.1051 9.53407C13.6433 9.80055 13.3558 10.2977 13.3558 10.8316V17.4141C13.3558 17.9477 13.6429 18.4449 14.105 18.7116ZM14.603 17.849C14.4482 17.7595 14.3519 17.5929 14.3519 17.414V11.1167L20.0567 14.4103V20.9976L14.603 17.849ZM20.3036 7.10546C20.4584 7.01601 20.6509 7.01587 20.8058 7.10546L26.2594 10.2541L24.3811 11.3385C24.1429 11.476 24.0613 11.7807 24.1988 12.0189C24.337 12.2582 24.6421 12.338 24.8792 12.2011L26.7575 11.1167V17.414C26.7575 17.5929 26.6613 17.7595 26.5064 17.849L21.0528 20.9976V14.4103L22.8282 13.3853C23.0664 13.2478 23.148 12.9432 23.0105 12.705C22.873 12.4668 22.5682 12.3852 22.3302 12.5227L20.5547 13.5477L14.85 10.2541L20.3036 7.10546Z" fill="#1F6775"/>
</g>
<defs>
<clipPath id="clip0_240_1425">
<rect width="34" height="34" fill="white"/>
</clipPath>
</defs>
</svg>
