<svg width="34" height="34" viewBox="0 0 34 34" fill="none" xmlns="http://www.w3.org/2000/svg">
<g clip-path="url(#clip0_240_1396)">
<path d="M28.6631 21.4561L22.8831 23.8979C22.8934 23.8258 22.9037 23.7537 22.9037 23.6764C22.9037 22.5534 21.9919 21.6415 20.8688 21.6415H16.7064C16.5364 21.6415 16.3716 21.6055 16.217 21.5334L12.6882 19.9364C12.137 19.6891 11.524 19.5552 10.9213 19.5552H8.04672V20.5855H10.9213C11.3797 20.5855 11.8434 20.6834 12.2658 20.874L15.7946 22.4709C16.0831 22.5997 16.3922 22.6667 16.7116 22.6667H20.874C21.4304 22.6667 21.8785 23.12 21.8785 23.6712C21.8785 24.2224 21.4252 24.6758 20.874 24.6758H15.4804V25.7061H20.8688C21.2243 25.7061 21.554 25.6082 21.8425 25.4485V25.4537L29.0597 22.3988C29.6573 22.1464 30.3116 22.1515 30.904 22.4091C31.3573 22.61 31.7282 22.9346 31.9755 23.357L19.2358 30.1158C18.2622 30.6309 17.1031 30.734 16.0522 30.3991L9.81884 28.3952L8.04156 28.3694V29.3997H9.58187L15.7379 31.3779C16.2479 31.5428 16.7734 31.62 17.304 31.62C18.1385 31.62 18.9731 31.4191 19.7149 31.0224L33.2891 23.8309L33.1397 23.4085C32.8255 22.5328 32.1764 21.8424 31.3213 21.4664C30.4661 21.1006 29.5234 21.0903 28.6631 21.4561Z" fill="#1F6775"/>
<path d="M6.92882 30.2087V19.272C6.92882 18.7053 6.46518 18.2417 5.89851 18.2417H0.710938V19.272H5.89851V30.2138H0.710938V31.2441H5.89851C6.46518 31.239 6.92882 30.7753 6.92882 30.2087Z" fill="#1F6775"/>
<path d="M4.54364 28.6065C4.54364 29.0032 4.2191 29.3277 3.82243 29.3277C3.42061 29.3277 3.09607 29.0032 3.09607 28.6065C3.09607 28.2047 3.42061 27.8801 3.82243 27.8801C4.2191 27.8801 4.54364 28.2047 4.54364 28.6065Z" fill="#1F6775"/>
<path d="M12.8994 14.6459L13.4558 15.058L17.2885 12.9356L20.7555 15.0219L21.0543 15.1971L21.6106 14.7953L20.7761 10.4989L23.8412 7.84071L24.0885 7.60374L23.8722 6.96495L19.5346 6.42919L17.9582 2.6995L17.814 2.39041L17.4843 2.38525H17.134L15.2846 6.35707L11.2458 6.69707L10.9006 6.73828L10.6946 7.38222L13.8937 10.365L12.8994 14.6459ZM12.4616 7.6295L15.6658 7.35132L15.9697 7.31525L17.4482 4.14192L18.7 7.09374L18.8288 7.37707L22.3112 7.80465L19.9003 9.89616L19.6582 10.1022L20.3279 13.5537L17.5667 11.8898L17.304 11.7507L14.2491 13.4456L14.9652 10.3546L15.0528 10.0353L12.4616 7.6295Z" fill="#1F6775"/>
<path d="M6.12515 12.745L5.37818 15.9544L5.27515 16.3253L5.85727 16.7529L9.06667 14.9756L11.9 16.6756L12.2194 16.8765L12.7912 16.4592L12.0906 12.8583L12.8376 12.2144L12.1627 11.4365L11.1685 12.2968L11.0191 12.472V12.678L11.5033 15.2383L9.41182 13.9762L9.30364 13.8732L8.86576 13.8629L8.76273 13.9659L6.62485 15.1508L7.20182 12.6471V12.3432L5.19788 10.4783L7.65 10.262L7.88697 10.2568L8.10333 10.0405L9.20061 7.68106L10.1897 10.0147L10.3494 10.3186H10.6379L11.8794 10.4732L12.0082 9.44803L11.0139 9.32954L9.70545 6.23863L9.5303 5.90894L8.81939 5.9656L8.72151 6.26954L7.3306 9.26257L4.05424 9.54591L3.64727 9.56651L3.43091 10.3186L3.71424 10.5041L6.12515 12.745Z" fill="#1F6775"/>
<path d="M23.0582 9.32944L23.1509 10.3546L24.1452 10.2619L24.377 10.2516L24.5934 10.0352L25.6906 7.67581L26.6334 9.89611L26.6437 10.3134H27.1279L29.5852 10.6173L27.674 12.2761L27.504 12.4564V12.6779L27.9934 15.2331L25.8967 13.9761L25.7885 13.8679L25.3352 13.8731L25.2424 13.971L23.1149 15.1507L23.697 12.647L23.6918 12.3431L22.3731 11.1119L21.6673 11.864L22.61 12.7449L21.8682 15.9543L21.7652 16.2994L22.3267 16.7631L25.5567 14.9755L28.3952 16.6807L28.7146 16.8764L29.2761 16.454L28.5755 12.8582L31.0534 10.71C31.2234 10.5761 31.2955 10.3494 31.2388 10.1434L31.1203 9.77762L27.504 9.3346L26.1852 6.23338L26.0306 5.95005L25.4176 5.92944L25.2579 6.18187L23.8155 9.26247L23.0582 9.32944Z" fill="#1F6775"/>
</g>
<defs>
<clipPath id="clip0_240_1396">
<rect width="34" height="34" fill="white"/>
</clipPath>
</defs>
</svg>
