<svg width="34" height="34" viewBox="0 0 34 34" fill="none" xmlns="http://www.w3.org/2000/svg">
<path d="M23.0217 8.67523C22.0738 7.82059 20.9543 7.17833 19.7381 6.79144C18.5219 6.40456 17.2371 6.28198 15.9696 6.43192C14.0566 6.6504 12.2636 7.47492 10.8526 8.785C9.44152 10.0951 8.4864 11.8221 8.12676 13.7136C7.76711 15.6052 8.02178 17.5622 8.85357 19.2987C9.68535 21.0352 11.0507 22.4602 12.75 23.3656V28.6874C12.7503 28.9691 12.8623 29.2392 13.0615 29.4384C13.2607 29.6376 13.5308 29.7496 13.8125 29.7499H14.875V30.8124C14.8753 31.0941 14.9873 31.3642 15.1865 31.5634C15.3857 31.7626 15.6558 31.8746 15.9375 31.8749H18.0625C18.3442 31.8746 18.6143 31.7626 18.8135 31.5634C19.0127 31.3642 19.1247 31.0941 19.125 30.8124V29.7499H20.1875C20.4692 29.7496 20.7393 29.6376 20.9385 29.4384C21.1377 29.2392 21.2497 28.9691 21.25 28.6874V23.3658C22.5322 22.6829 23.6305 21.7005 24.4517 20.5021C25.2728 19.3037 25.7924 17.9248 25.9664 16.4825C26.1403 15.0402 25.9634 13.5773 25.4508 12.218C24.9381 10.8588 24.1048 9.64339 23.0217 8.67523ZM20.1875 25.4999V26.5624H13.8125V25.4999H20.1875ZM18.0633 30.8124H15.9375V29.7499H18.0628L18.0633 30.8124ZM18.5937 28.6874H13.8125V27.6249H20.1875V28.6874H18.5937ZM20.4858 22.5633C20.3963 22.6069 20.3209 22.6747 20.2682 22.7591C20.2154 22.8435 20.1875 22.941 20.1875 23.0405V24.4374H17.5312V22.0012L18.9693 20.563C19.0661 20.4628 19.1197 20.3286 19.1184 20.1893C19.1172 20.05 19.0614 19.9168 18.9629 19.8183C18.8644 19.7198 18.7311 19.6639 18.5918 19.6627C18.4525 19.6615 18.3183 19.715 18.2181 19.8118L17 21.0299L15.7818 19.8118C15.6816 19.715 15.5474 19.6615 15.4082 19.6627C15.2689 19.6639 15.1356 19.7198 15.0371 19.8183C14.9386 19.9168 14.8828 20.05 14.8815 20.1893C14.8803 20.3286 14.9339 20.4628 15.0306 20.563L16.4687 22.0012V24.4374H13.8125V23.0405C13.8125 22.941 13.7846 22.8435 13.7318 22.7591C13.6791 22.6747 13.6037 22.6069 13.5142 22.5633C11.9634 21.8101 10.6989 20.574 9.91071 19.0407C9.12252 17.5074 8.8532 15.7597 9.14323 14.0603C9.43327 12.3608 10.267 10.8014 11.5191 9.61629C12.7712 8.4312 14.3741 7.68445 16.0869 7.48825C16.3937 7.45398 16.7022 7.43674 17.0109 7.43662C18.9692 7.43077 20.8594 8.15454 22.313 9.46679C23.2874 10.3377 24.0324 11.4351 24.4823 12.6621C24.9321 13.8891 25.073 15.208 24.8924 16.5023C24.7118 17.7966 24.2153 19.0266 23.4468 20.0836C22.6783 21.1406 21.6614 21.9923 20.4858 22.5633Z" fill="#1F6775"/>
<path d="M17 5.3125C17.1409 5.3125 17.276 5.25653 17.3757 5.1569C17.4753 5.05727 17.5312 4.92215 17.5312 4.78125V2.65625C17.5312 2.51535 17.4753 2.38023 17.3757 2.2806C17.276 2.18097 17.1409 2.125 17 2.125C16.8591 2.125 16.724 2.18097 16.6243 2.2806C16.5247 2.38023 16.4688 2.51535 16.4688 2.65625V4.78125C16.4688 4.92215 16.5247 5.05727 16.6243 5.1569C16.724 5.25653 16.8591 5.3125 17 5.3125Z" fill="#1F6775"/>
<path d="M9.11141 8.26885C9.16042 8.31959 9.21904 8.36006 9.28385 8.3879C9.34867 8.41574 9.41838 8.4304 9.48892 8.43101C9.55946 8.43163 9.62941 8.41818 9.6947 8.39147C9.75999 8.36476 9.8193 8.32531 9.86918 8.27543C9.91906 8.22555 9.95851 8.16624 9.98522 8.10095C10.0119 8.03566 10.0254 7.96571 10.0248 7.89517C10.0241 7.82463 10.0095 7.75492 9.98165 7.6901C9.95381 7.62529 9.91334 7.56667 9.8626 7.51766L8.35991 6.01497C8.3109 5.96423 8.25228 5.92376 8.18746 5.89591C8.12265 5.86807 8.05294 5.85342 7.9824 5.8528C7.91186 5.85219 7.84191 5.86563 7.77662 5.89234C7.71133 5.91906 7.65201 5.9585 7.60213 6.00838C7.55225 6.05826 7.51281 6.11758 7.48609 6.18287C7.45938 6.24816 7.44594 6.31811 7.44655 6.38865C7.44717 6.45919 7.46182 6.5289 7.48966 6.59371C7.51751 6.65853 7.55798 6.71715 7.60872 6.76616L9.11141 8.26885Z" fill="#1F6775"/>
<path d="M6.375 14.875H4.25C4.1091 14.875 3.97398 14.931 3.87435 15.0306C3.77472 15.1302 3.71875 15.2654 3.71875 15.4062C3.71875 15.5471 3.77472 15.6823 3.87435 15.7819C3.97398 15.8815 4.1091 15.9375 4.25 15.9375H6.375C6.5159 15.9375 6.65102 15.8815 6.75065 15.7819C6.85028 15.6823 6.90625 15.5471 6.90625 15.4062C6.90625 15.2654 6.85028 15.1302 6.75065 15.0306C6.65102 14.931 6.5159 14.875 6.375 14.875Z" fill="#1F6775"/>
<path d="M9.11141 22.5437L7.60872 24.0464C7.55798 24.0954 7.51751 24.154 7.48966 24.2188C7.46182 24.2836 7.44717 24.3533 7.44655 24.4239C7.44594 24.4944 7.45938 24.5644 7.48609 24.6296C7.51281 24.6949 7.55225 24.7542 7.60213 24.8041C7.65201 24.854 7.71133 24.8935 7.77662 24.9202C7.84191 24.9469 7.91186 24.9603 7.9824 24.9597C8.05294 24.9591 8.12265 24.9444 8.18746 24.9166C8.25228 24.8888 8.3109 24.8483 8.35991 24.7975L9.8626 23.2948C9.95937 23.1947 10.0129 23.0605 10.0117 22.9212C10.0105 22.7819 9.95463 22.6486 9.85613 22.5501C9.75763 22.4516 9.62439 22.3958 9.48509 22.3946C9.3458 22.3933 9.21161 22.4469 9.11141 22.5437Z" fill="#1F6775"/>
<path d="M25.6401 6.01497L24.1374 7.51766C24.0867 7.56667 24.0462 7.62529 24.0184 7.6901C23.9905 7.75492 23.9759 7.82463 23.9752 7.89517C23.9746 7.96571 23.9881 8.03566 24.0148 8.10095C24.0415 8.16624 24.0809 8.22555 24.1308 8.27543C24.1807 8.32531 24.24 8.36476 24.3053 8.39147C24.3706 8.41818 24.4405 8.43163 24.5111 8.43101C24.5816 8.4304 24.6513 8.41574 24.7162 8.3879C24.781 8.36006 24.8396 8.31959 24.8886 8.26885L26.3913 6.76616C26.442 6.71715 26.4825 6.65853 26.5103 6.59371C26.5382 6.5289 26.5528 6.45919 26.5535 6.38865C26.5541 6.31811 26.5406 6.24816 26.5139 6.18287C26.4872 6.11758 26.4478 6.05826 26.3979 6.00838C26.348 5.9585 26.2887 5.91906 26.2234 5.89234C26.1581 5.86563 26.0881 5.85219 26.0176 5.8528C25.9471 5.85342 25.8774 5.86807 25.8125 5.89591C25.7477 5.92376 25.6891 5.96423 25.6401 6.01497Z" fill="#1F6775"/>
<path d="M24.8886 22.5437C24.7884 22.4469 24.6542 22.3933 24.5149 22.3946C24.3756 22.3958 24.2424 22.4516 24.1439 22.5501C24.0454 22.6486 23.9895 22.7819 23.9883 22.9212C23.9871 23.0605 24.0406 23.1947 24.1374 23.2948L25.6401 24.7975C25.7403 24.8943 25.8745 24.9479 26.0138 24.9466C26.1531 24.9454 26.2863 24.8896 26.3848 24.7911C26.4833 24.6926 26.5392 24.5593 26.5404 24.42C26.5416 24.2807 26.4881 24.1465 26.3913 24.0464L24.8886 22.5437Z" fill="#1F6775"/>
<path d="M29.75 14.875H27.625C27.4841 14.875 27.349 14.931 27.2493 15.0306C27.1497 15.1302 27.0938 15.2654 27.0938 15.4062C27.0938 15.5471 27.1497 15.6823 27.2493 15.7819C27.349 15.8815 27.4841 15.9375 27.625 15.9375H29.75C29.8909 15.9375 30.026 15.8815 30.1257 15.7819C30.2253 15.6823 30.2812 15.5471 30.2812 15.4062C30.2812 15.2654 30.2253 15.1302 30.1257 15.0306C30.026 14.931 29.8909 14.875 29.75 14.875Z" fill="#1F6775"/>
</svg>
