<svg width="107" height="107" viewBox="0 0 107 107" fill="none" xmlns="http://www.w3.org/2000/svg">
<g clip-path="url(#clip0_93_80)">
<path d="M38.1405 93.85C37.5263 93.37 36.8436 92.9847 36.1149 92.7069C35.433 92.4673 34.7185 92.3328 33.996 92.3081C32.4306 92.2906 30.8702 92.4872 29.3585 92.8932C27.8126 93.2785 26.3333 93.7298 25.2406 94.1023C24.1479 94.4741 23.4282 94.7535 23.4282 94.7535C23.4282 94.7535 24.1345 95.1523 25.2539 95.6307C26.6556 96.2373 28.1221 96.683 29.625 96.9593C31.3235 97.292 33.0745 97.2514 34.7556 96.8399C35.5304 96.6743 36.2491 96.3121 36.8422 95.7883C37.4353 95.2645 37.8825 94.5967 38.1405 93.85Z" fill="#EA8E39"/>
<path d="M33.4223 87.0193C33.9974 88.3996 34.9145 89.6112 36.0876 90.5409C36.6436 90.9724 37.2907 91.2725 37.9799 91.4181C38.6904 91.563 39.4281 91.4938 40.0988 91.2183C40.145 89.8102 39.7642 88.4211 39.006 87.2327C38.282 86.1286 37.3817 85.1495 36.3408 84.3359C35.4365 83.61 34.4885 82.9397 33.5023 82.3292C32.716 81.8372 32.1696 81.5586 32.1696 81.5586C32.1696 81.5586 32.1696 81.7314 32.1696 82.037C32.1696 82.3427 32.2496 82.7542 32.3428 83.286C32.5487 84.57 32.9112 85.8237 33.4223 87.0193Z" fill="#EA8E39"/>
<path d="M22.3079 90.6078C23.061 90.599 23.8021 90.4183 24.4743 90.08C25.1465 89.7409 25.732 89.2538 26.1859 88.6544C25.8314 88.0287 25.3534 87.481 24.7808 87.0448C24.2082 86.6086 23.5528 86.2926 22.8543 86.1159C21.3462 85.7139 19.7912 85.5125 18.23 85.5181C16.6442 85.5181 15.0583 85.5181 13.8723 85.5181H11.8867C11.8867 85.5181 12.0333 85.6908 12.2998 85.9567C12.5663 86.2225 12.9794 86.5815 13.4859 86.9931C14.7046 87.9945 16.0484 88.8343 17.4837 89.491C18.9835 90.2305 20.6348 90.6126 22.3079 90.6078Z" fill="#EA8E39"/>
<path d="M25.3203 84.535C25.7335 85.1017 26.2805 85.5586 26.9127 85.8643C27.5449 86.1708 28.2429 86.3164 28.9451 86.2894C29.4997 84.9545 29.5329 83.4611 29.0384 82.1039C28.5651 80.8565 27.8997 79.6912 27.0661 78.6492C26.3065 77.6128 25.5336 76.722 24.9739 76.0979C24.694 75.7652 24.4541 75.5129 24.2942 75.3401L24.041 75.0742C24.041 75.0742 24.041 75.2343 23.9078 75.5129C23.8072 75.9117 23.7272 76.3153 23.6679 76.722C23.4716 77.9949 23.4716 79.29 23.6679 80.562C23.8766 82.0036 24.4448 83.3696 25.3203 84.535Z" fill="#EA8E39"/>
<path d="M6.31642 73.4665C5.22365 73.1211 4.50404 72.9217 4.50404 72.9217C4.50404 72.9217 4.57067 73.1078 4.7173 73.4134C4.86385 73.719 5.09039 74.131 5.37027 74.6359C5.65007 75.1411 5.99658 75.7254 6.39642 76.3367C6.5963 76.6424 6.80948 76.9481 7.03603 77.2665L7.20932 77.5061L7.43587 77.7982L7.90226 78.3833C9.05346 79.8297 10.5852 80.9298 12.3266 81.5586C13.0478 81.8237 13.8239 81.9057 14.5848 81.7966C15.3457 81.6876 16.0673 81.3915 16.6844 80.9345C16.3285 79.5145 15.4724 78.2695 14.2722 77.4265C13.9924 77.2004 13.6726 76.9879 13.3528 76.7618L12.34 76.1242L11.2605 75.4993C10.9274 75.3139 10.5809 75.1411 10.2344 74.9811C8.96391 74.3894 7.65501 73.8833 6.31642 73.4665Z" fill="#EA8E39"/>
<path d="M17.0583 76.2038C17.2393 76.8756 17.5983 77.4869 18.0977 77.9733C18.5971 78.4597 19.2185 78.8028 19.8968 78.9675C20.7763 77.8547 21.2759 76.4903 21.3227 75.0742C21.3579 73.8954 21.2776 72.7161 21.0828 71.5529C21.0025 70.9641 20.8778 70.3822 20.7097 69.8122C20.5364 69.2275 20.3632 68.696 20.19 68.2576C20.0167 67.819 19.8701 67.447 19.7635 67.1945L19.6169 66.7959L19.337 67.1945C19.1638 67.4603 18.9506 67.8323 18.7107 68.2974C18.0914 69.4793 17.5957 70.7216 17.2315 72.0047C17.1382 72.3634 17.0449 72.7355 16.965 73.1076C16.8956 73.4588 16.8467 73.8137 16.8183 74.1706C16.7851 74.5242 16.7851 74.88 16.8183 75.2334C16.8676 75.5638 16.9479 75.8885 17.0583 76.2038Z" fill="#EA8E39"/>
<path d="M4.63721 68.018C4.89791 68.32 5.1832 68.6 5.49015 68.8551C5.7787 69.1042 6.08613 69.3307 6.40963 69.5328C7.01397 69.9728 7.71033 70.2708 8.44656 70.4042C9.1828 70.5377 9.93974 70.5033 10.6608 70.3035C10.7869 69.5944 10.7413 68.8654 10.5275 68.1775C10.4287 67.8517 10.29 67.5392 10.1144 67.2473C9.94061 66.9441 9.74925 66.6513 9.54133 66.3703C8.58619 65.1734 7.43228 64.1487 6.12975 63.3407C4.98284 62.5335 3.7904 61.7926 2.55832 61.1216L0.879198 60.2181C0.879198 60.2181 0.879198 60.4174 0.985785 60.7496C1.09245 61.0818 1.21233 61.5469 1.41221 62.0784C1.84023 63.4778 2.44473 64.8172 3.2113 66.0647C3.63733 66.7502 4.11399 67.4031 4.63721 68.018Z" fill="#EA8E39"/>
<path d="M12.9797 67.4601C13.2788 68.0899 13.7383 68.6306 14.3123 69.0281C15.5929 68.3126 16.5475 67.1323 16.9775 65.7328C17.0838 65.4065 17.1684 65.0735 17.2308 64.7362L17.3108 64.2312C17.3108 64.0718 17.3108 63.8991 17.3907 63.7263C17.4701 63.0472 17.4969 62.3631 17.4707 61.68C17.4261 60.523 17.3148 59.3695 17.1375 58.2252C17.0575 57.7734 16.9775 57.4013 16.9243 57.1489C16.871 56.8964 16.8443 56.7502 16.8443 56.7502L16.5112 57.0824C16.2143 57.3768 15.934 57.6873 15.6716 58.0126C14.8448 59.0224 14.1299 60.1184 13.5394 61.2813C12.8886 62.5923 12.5381 64.031 12.5132 65.4936C12.5165 65.8387 12.5612 66.1822 12.6465 66.5167C12.7218 66.8427 12.8335 67.1592 12.9797 67.4601Z" fill="#EA8E39"/>
<path d="M1.94563 55.3949C2.13222 55.7476 2.34611 56.0852 2.58531 56.4047C2.82643 56.7151 3.08912 57.0082 3.37154 57.2818C3.88163 57.8174 4.50532 58.2326 5.19706 58.497C5.8888 58.7613 6.63101 58.8682 7.36948 58.8098C7.63391 58.1435 7.73007 57.4225 7.64936 56.7104C7.60852 56.3713 7.53266 56.0373 7.42281 55.7138C7.3374 55.3779 7.22595 55.0492 7.08959 54.7304C6.76864 54.058 6.37063 53.4248 5.90361 52.8436L5.18392 51.9401C4.94408 51.6344 4.67758 51.3421 4.42436 51.0498C3.37155 49.907 2.22551 48.844 1.41262 48.06C0.599721 47.276 0 46.7578 0 46.7578C0 46.7578 0 47.5551 0 48.751C0.0621692 49.4377 0.16 50.1207 0.293174 50.7973C0.373174 51.1694 0.453094 51.5547 0.546388 51.9401C0.632676 52.3364 0.743961 52.7269 0.879523 53.1093C1.18161 53.8948 1.53783 54.6585 1.94563 55.3949Z" fill="#EA8E39"/>
<path d="M11.2076 57.9461C12.5726 57.4897 13.7178 56.5421 14.4193 55.2885C14.5898 54.9996 14.7368 54.6974 14.859 54.385C15.0115 54.079 15.145 53.7639 15.2589 53.4416C15.4686 52.8217 15.629 52.1864 15.7386 51.5414C15.8585 50.9169 15.9918 50.3057 16.0584 49.7476C16.0584 49.4552 16.0584 49.1895 16.1384 48.937C16.2183 48.6845 16.1384 48.4454 16.1384 48.2195C16.2118 47.7353 16.2563 47.2472 16.2716 46.7578C16.2716 46.7578 15.6853 47.09 14.8457 47.688L14.1661 48.1929C13.9262 48.3922 13.6863 48.5915 13.4465 48.8174C12.926 49.2818 12.4405 49.7837 11.9939 50.319C11.7674 50.598 11.5408 50.8903 11.3276 51.196L11.0344 51.661L10.7812 52.1527C10.4637 52.7886 10.2307 53.4631 10.0882 54.1591C10.014 54.4951 9.97822 54.8383 9.98156 55.1823C10.0013 55.5146 10.0549 55.8441 10.1415 56.1656C10.3331 56.8424 10.7009 57.4567 11.2076 57.9461Z" fill="#EA8E39"/>
<path d="M5.66435 38.7852C5.30455 38.0942 4.91808 37.4564 4.54499 36.8053L3.51884 35.1443C2.91912 34.1743 2.4794 33.5498 2.4794 33.5498C2.4794 33.5498 2.25285 34.3073 2.01293 35.4765C1.93301 36.0745 1.83971 36.8053 1.78638 37.5361C1.78638 37.9082 1.78638 38.3069 1.78638 38.7055C1.78638 39.1041 1.78638 39.516 1.78638 39.9279C1.85134 40.7525 1.98507 41.5704 2.18622 42.3729C2.39589 43.1426 2.70969 43.8802 3.11908 44.5654C3.487 45.2055 3.99836 45.752 4.61337 46.1624C5.2283 46.5727 5.93007 46.8356 6.66384 46.9306C6.8634 46.6283 7.02459 46.3025 7.1436 45.9606C7.26953 45.6394 7.35892 45.3051 7.41011 44.964C7.51239 44.2823 7.48071 43.5873 7.31689 42.9177C7.16429 42.1994 6.94571 41.4966 6.66384 40.8182C6.37066 40.114 6.01086 39.3964 5.66435 38.7852Z" fill="#EA8E39"/>
<path d="M14.2863 44.7912C14.7579 44.3304 15.1698 43.8126 15.5124 43.2499C15.8867 42.7222 16.2123 42.1618 16.4852 41.5756C16.6318 41.2965 16.7384 41.0175 16.8717 40.7517L17.2182 39.9545C17.4314 39.4362 17.5913 38.9579 17.7379 38.546C18.0444 37.7355 18.191 37.2172 18.191 37.2172C17.6357 37.3605 17.0885 37.5335 16.5518 37.7355C15.3521 38.185 14.2182 38.7928 13.1803 39.5426C12.8771 39.7495 12.5877 39.9758 12.3141 40.2202C12.0476 40.4638 11.7941 40.721 11.5545 40.9909C11.0762 41.5252 10.6769 42.1248 10.3684 42.7715C10.0955 43.382 9.95481 44.043 9.95528 44.7115C9.94621 45.0443 9.99118 45.3764 10.0885 45.6948C10.1981 46.0358 10.3504 46.3617 10.5416 46.6648C11.9715 46.4971 13.2969 45.834 14.2863 44.7912Z" fill="#EA8E39"/>
<path d="M9.60792 34.5066C9.816 34.2362 9.99057 33.9418 10.1277 33.6297C10.2593 33.3221 10.3576 33.0014 10.4209 32.6729C10.4209 32.3407 10.5141 31.9953 10.5541 31.6497C10.5972 30.9256 10.5569 30.1989 10.4342 29.4838C10.3327 28.7185 10.1858 27.9597 9.99439 27.2117C9.60792 25.6968 9.19486 24.2751 8.80839 23.2253C8.42193 22.1756 8.18201 21.3783 8.18201 21.3783C8.18201 21.3783 8.07542 21.5511 7.9155 21.8434C7.75558 22.1357 7.54233 22.5875 7.28919 23.1722C6.68573 24.5073 6.2386 25.9073 5.95649 27.3445C5.82419 28.1399 5.74849 28.9436 5.72995 29.7496C5.73456 30.1499 5.76569 30.5494 5.82324 30.9455C5.88573 31.3265 5.97026 31.7037 6.07645 32.075C6.27005 32.7828 6.61568 33.4402 7.08923 34.0017C7.57369 34.5874 8.1965 35.044 8.90169 35.3304C9.17361 35.0892 9.41122 34.812 9.60792 34.5066Z" fill="#EA8E39"/>
<path d="M22.242 28.7398C22.3885 28.5271 22.4551 28.4076 22.4551 28.4076H21.9887C21.6689 28.4076 21.2558 28.4076 20.7494 28.5139C20.243 28.6202 19.6433 28.6734 19.0037 28.8195C18.6838 28.886 18.3506 28.979 18.0175 29.0719C17.6843 29.165 17.3645 29.2978 17.0314 29.4308C16.3496 29.6886 15.6973 30.0182 15.0857 30.414C14.5015 30.7866 13.9684 31.2332 13.4998 31.7428C13.2843 31.9987 13.1008 32.2797 12.9534 32.5799C12.809 32.8739 12.6931 33.1809 12.607 33.4968C12.516 33.8166 12.4712 34.1477 12.4737 34.4801C12.5028 34.8361 12.5698 35.188 12.6736 35.5298C13.3998 35.6707 14.1463 35.6707 14.8725 35.5298C15.5352 35.3783 16.1726 35.1322 16.7648 34.799C17.0447 34.6262 17.3245 34.4535 17.5911 34.2542L17.9641 33.9486L18.3506 33.6297C18.8323 33.2257 19.2781 32.7812 19.6833 32.3009C20.0833 31.8813 20.4572 31.4375 20.8027 30.9721L21.0426 30.6266L21.2691 30.3211C21.4291 30.1084 21.5623 29.9091 21.6822 29.7364C21.8022 29.5636 22.122 28.9657 22.242 28.7398Z" fill="#EA8E39"/>
<path d="M13.9527 24.7267C14.5825 24.42 15.127 23.9637 15.5385 23.3979C15.9509 22.8591 16.2542 22.2453 16.4313 21.5908C17.1563 18.7996 16.9645 15.8338 16.7112 12.9936C16.5912 11.8907 16.4713 11.1466 16.4713 11.1466C15.9321 11.5648 15.5241 12.0502 15.1254 12.6083C14.7213 13.136 14.3476 13.6861 14.0059 14.256C13.608 14.9198 13.2519 15.6076 12.9398 16.3156C12.6231 17.0549 12.369 17.8194 12.1802 18.6011C12.0222 19.3611 11.9595 20.1377 11.9937 20.9131C12.0123 21.6546 12.1981 22.3824 12.5372 23.0426C12.8763 23.7027 13.3601 24.2783 13.9527 24.7267Z" fill="#EA8E39"/>
<path d="M25.1465 23.9292C25.6662 23.5439 26.1459 23.1718 26.5724 22.7997C26.9988 22.4277 27.3986 22.0689 27.7051 21.7633C28.0116 21.4577 28.2914 21.1919 28.4647 21.0059L28.7445 20.7136C28.1807 20.6002 27.6114 20.516 27.0388 20.4611C26.4675 20.4055 25.8935 20.3833 25.3197 20.3947C24.6235 20.3898 23.9281 20.4432 23.2408 20.5542C21.8049 20.7205 20.432 21.2361 19.2428 22.0556C18.7052 22.46 18.2524 22.9656 17.9102 23.5439C17.6086 24.1495 17.4665 24.8217 17.4971 25.4972C18.8123 26.0644 20.2885 26.1398 21.6549 25.7098C22.2957 25.5245 22.9128 25.2659 23.494 24.9391C24.0695 24.6444 24.622 24.3068 25.1465 23.9292Z" fill="#EA8E39"/>
<path d="M20.8913 17.8755C21.6753 17.8755 22.8988 17.9473 23.8943 17.2592C24.1642 17.0618 24.4223 16.8489 24.6671 16.6213C24.9235 16.3944 25.164 16.1502 25.3868 15.8905C25.868 15.3721 26.3133 14.8216 26.7194 14.2428C27.4924 13.1001 28.1587 11.9175 28.6384 11.0272C28.8783 10.5887 29.0458 10.2035 29.1791 9.93782L29.2693 9.71083L29.318 9.55225L28.6971 9.59578C28.2839 9.65023 28.0422 9.68654 27.6389 9.79145C26.3658 10.1137 25.1388 10.5959 23.9875 11.2265C22.6575 11.9128 21.5073 12.9003 20.6293 14.1099C20.2219 14.6847 19.9487 15.343 19.8297 16.0367C19.6971 16.6184 19.7008 17.2022 19.8297 17.8039" fill="#EA8E39"/>
<path d="M68.526 93.85C69.1402 93.37 69.8229 92.9847 70.5516 92.7069C71.2335 92.4673 71.948 92.3328 72.6705 92.3081C74.2359 92.2906 75.7963 92.4872 77.3081 92.8932C78.8539 93.2785 80.3332 93.7298 81.4259 94.1023C82.5187 94.4741 83.2383 94.7535 83.2383 94.7535C83.2383 94.7535 82.532 95.1523 81.4126 95.6307C80.0109 96.2373 78.5444 96.683 77.0416 96.9593C75.343 97.292 73.592 97.2514 71.9109 96.8399C71.1361 96.6743 70.4174 96.3121 69.8244 95.7883C69.2312 95.2645 68.784 94.5967 68.526 93.85Z" fill="#EA8E39"/>
<path d="M73.2442 87.0193C72.6691 88.3996 71.7521 89.6112 70.579 90.5409C70.0229 90.9724 69.3758 91.2725 68.6866 91.4181C67.9761 91.563 67.2385 91.4938 66.5677 91.2183C66.5215 89.8102 66.9023 88.4211 67.6605 87.2327C68.3845 86.1286 69.2848 85.1495 70.3257 84.3359C71.23 83.61 72.178 82.9397 73.1643 82.3292C73.9505 81.8372 74.4969 81.5586 74.4969 81.5586C74.4969 81.5586 74.4969 81.7314 74.4969 82.037C74.4969 82.3427 74.417 82.7542 74.3237 83.286C74.1178 84.57 73.7553 85.8237 73.2442 87.0193Z" fill="#EA8E39"/>
<path d="M84.3586 90.6078C83.6056 90.599 82.8645 90.4183 82.1922 90.08C81.52 89.7409 80.9345 89.2538 80.4806 88.6544C80.8351 88.0287 81.3131 87.481 81.8857 87.0448C82.4583 86.6086 83.1137 86.2926 83.8122 86.1159C85.3204 85.7139 86.8753 85.5125 88.4365 85.5181C90.0224 85.5181 91.6082 85.5181 92.7942 85.5181H94.7799C94.7799 85.5181 94.6332 85.6908 94.3667 85.9567C94.1002 86.2225 93.6871 86.5815 93.1807 86.9931C91.9619 87.9945 90.6181 88.8343 89.1828 89.491C87.683 90.2305 86.0317 90.6126 84.3586 90.6078Z" fill="#EA8E39"/>
<path d="M81.3462 84.535C80.933 85.1017 80.3861 85.5586 79.7539 85.8643C79.1217 86.1708 78.4236 86.3164 77.7215 86.2894C77.1669 84.9545 77.1336 83.4611 77.6282 82.1039C78.1015 80.8565 78.7669 79.6912 79.6005 78.6492C80.36 77.6128 81.133 76.722 81.6926 76.0979C81.9725 75.7652 82.2124 75.5129 82.3724 75.3401L82.6255 75.0742C82.6255 75.0742 82.6255 75.2343 82.7588 75.5129C82.8593 75.9117 82.9394 76.3153 82.9987 76.722C83.1949 77.9949 83.1949 79.29 82.9987 80.562C82.7899 82.0036 82.2217 83.3696 81.3462 84.535Z" fill="#EA8E39"/>
<path d="M100.35 73.4665C101.443 73.1211 102.162 72.9217 102.162 72.9217C102.162 72.9217 102.096 73.1078 101.949 73.4134C101.803 73.719 101.576 74.131 101.296 74.6359C101.016 75.1411 100.67 75.7254 100.27 76.3367C100.07 76.6424 99.8571 76.9481 99.6305 77.2665L99.4572 77.5061L99.2307 77.7982L98.7643 78.3833C97.6131 79.8297 96.0814 80.9298 94.3399 81.5586C93.6187 81.8237 92.8426 81.9057 92.0818 81.7966C91.3208 81.6876 90.5993 81.3915 89.9822 80.9345C90.338 79.5145 91.1941 78.2695 92.3943 77.4265C92.6741 77.2004 92.9939 76.9879 93.3138 76.7618L94.3265 76.1242L95.406 75.4993C95.7392 75.3139 96.0857 75.1411 96.4322 74.9811C97.7026 74.3894 99.0115 73.8833 100.35 73.4665Z" fill="#EA8E39"/>
<path d="M89.6083 76.2038C89.4272 76.8756 89.0682 77.4869 88.5688 77.9733C88.0694 78.4597 87.448 78.8028 86.7697 78.9675C85.8902 77.8547 85.3906 76.4903 85.3438 75.0742C85.3086 73.8954 85.389 72.7161 85.5837 71.5529C85.664 70.9641 85.7887 70.3822 85.9568 69.8122C86.1301 69.2275 86.3033 68.696 86.4766 68.2576C86.6499 67.819 86.7964 67.447 86.903 67.1945L87.0496 66.7959L87.3295 67.1945C87.5027 67.4603 87.716 67.8323 87.9558 68.2974C88.5751 69.4793 89.0708 70.7216 89.4351 72.0047C89.5283 72.3634 89.6216 72.7355 89.7016 73.1076C89.7709 73.4588 89.8198 73.8137 89.8482 74.1706C89.8815 74.5242 89.8815 74.88 89.8482 75.2334C89.7989 75.5638 89.7186 75.8885 89.6083 76.2038Z" fill="#EA8E39"/>
<path d="M102.029 68.018C101.769 68.32 101.483 68.6 101.176 68.8551C100.888 69.1042 100.58 69.3307 100.257 69.5328C99.6526 69.9728 98.9562 70.2708 98.22 70.4042C97.4837 70.5377 96.7268 70.5033 96.0058 70.3035C95.8796 69.5944 95.9253 68.8654 96.139 68.1775C96.2378 67.8517 96.3765 67.5392 96.5521 67.2473C96.7259 66.9441 96.9173 66.6513 97.1252 66.3703C98.0803 65.1734 99.2343 64.1487 100.537 63.3407C101.684 62.5335 102.876 61.7926 104.108 61.1216L105.787 60.2181C105.787 60.2181 105.787 60.4174 105.681 60.7496C105.574 61.0818 105.454 61.5469 105.254 62.0784C104.826 63.4778 104.222 64.8172 103.455 66.0647C103.029 66.7502 102.553 67.4031 102.029 68.018Z" fill="#EA8E39"/>
<path d="M93.6868 67.4601C93.3878 68.0899 92.9282 68.6306 92.3542 69.0281C91.0736 68.3126 90.119 67.1323 89.689 65.7328C89.5827 65.4065 89.4981 65.0735 89.4358 64.7362L89.3558 64.2312C89.3558 64.0718 89.3558 63.8991 89.2759 63.7263C89.1964 63.0472 89.1697 62.3631 89.1959 61.68C89.2404 60.523 89.3517 59.3695 89.5291 58.2252C89.609 57.7734 89.689 57.4013 89.7422 57.1489C89.7956 56.8964 89.8222 56.7502 89.8222 56.7502L90.1554 57.0824C90.4522 57.3768 90.7325 57.6873 90.9949 58.0126C91.8217 59.0224 92.5366 60.1184 93.1272 61.2813C93.7779 62.5923 94.1284 64.031 94.1533 65.4936C94.15 65.8387 94.1053 66.1822 94.0201 66.5167C93.9447 66.8427 93.833 67.1592 93.6868 67.4601Z" fill="#EA8E39"/>
<path d="M104.721 55.3949C104.534 55.7476 104.32 56.0852 104.081 56.4047C103.84 56.7151 103.577 57.0082 103.295 57.2818C102.785 57.8174 102.161 58.2326 101.469 58.497C100.778 58.7613 100.036 58.8682 99.2971 58.8098C99.0326 58.1435 98.9365 57.4225 99.0172 56.7104C99.058 56.3713 99.1339 56.0373 99.2437 55.7138C99.3291 55.3779 99.4406 55.0492 99.5769 54.7304C99.8979 54.058 100.296 53.4248 100.763 52.8436L101.483 51.9401C101.722 51.6344 101.989 51.3421 102.242 51.0498C103.295 49.907 104.441 48.844 105.254 48.06C106.067 47.276 106.667 46.7578 106.667 46.7578C106.667 46.7578 106.667 47.5551 106.667 48.751C106.604 49.4377 106.507 50.1207 106.373 50.7973C106.293 51.1694 106.213 51.5547 106.12 51.9401C106.034 52.3364 105.923 52.7269 105.787 53.1093C105.485 53.8948 105.129 54.6585 104.721 55.3949Z" fill="#EA8E39"/>
<path d="M95.4589 57.9461C94.0939 57.4897 92.9488 56.5421 92.2472 55.2885C92.0767 54.9996 91.9297 54.6974 91.8075 54.385C91.655 54.079 91.5215 53.7639 91.4077 53.4416C91.1979 52.8217 91.0375 52.1864 90.9279 51.5414C90.808 50.9169 90.6748 50.3057 90.6081 49.7476C90.6081 49.4552 90.6081 49.1895 90.5281 48.937C90.4482 48.6845 90.5281 48.4454 90.5281 48.2195C90.4548 47.7353 90.4103 47.2472 90.3949 46.7578C90.3949 46.7578 90.9812 47.09 91.8208 47.688L92.5004 48.1929C92.7403 48.3922 92.9802 48.5915 93.22 48.8174C93.7405 49.2818 94.226 49.7837 94.6726 50.319C94.8992 50.598 95.1257 50.8903 95.339 51.196L95.6321 51.661L95.8854 52.1527C96.2028 52.7886 96.4358 53.4631 96.5783 54.1591C96.6526 54.4951 96.6883 54.8383 96.685 55.1823C96.6652 55.5146 96.6117 55.8441 96.525 56.1656C96.3334 56.8424 95.9656 57.4567 95.4589 57.9461Z" fill="#EA8E39"/>
<path d="M101.002 38.7852C101.362 38.0942 101.748 37.4564 102.122 36.8053L103.148 35.1443C103.747 34.1743 104.187 33.5498 104.187 33.5498C104.187 33.5498 104.414 34.3073 104.654 35.4765C104.734 36.0745 104.827 36.8053 104.88 37.5361C104.88 37.9082 104.88 38.3069 104.88 38.7055C104.88 39.1041 104.88 39.516 104.88 39.9279C104.815 40.7525 104.681 41.5704 104.48 42.3729C104.271 43.1426 103.957 43.8802 103.547 44.5654C103.18 45.2055 102.668 45.752 102.053 46.1624C101.438 46.5727 100.736 46.8356 100.003 46.9306C99.8031 46.6283 99.6419 46.3025 99.5229 45.9606C99.397 45.6394 99.3076 45.3051 99.2564 44.964C99.1541 44.2823 99.1858 43.5873 99.3496 42.9177C99.5022 42.1994 99.7208 41.4966 100.003 40.8182C100.296 40.114 100.656 39.3964 101.002 38.7852Z" fill="#EA8E39"/>
<path d="M92.3802 44.7912C91.9086 44.3304 91.4968 43.8126 91.1541 43.2499C90.7799 42.7222 90.4542 42.1618 90.1813 41.5756C90.0347 41.2965 89.9281 41.0175 89.7949 40.7517L89.4484 39.9545C89.2351 39.4362 89.0752 38.9579 88.9286 38.546C88.6221 37.7355 88.4755 37.2172 88.4755 37.2172C89.0308 37.3605 89.578 37.5335 90.1147 37.7355C91.3144 38.185 92.4483 38.7928 93.4862 39.5426C93.7895 39.7495 94.0788 39.9758 94.3525 40.2202C94.6189 40.4638 94.8724 40.721 95.112 40.9909C95.5903 41.5252 95.9897 42.1248 96.2981 42.7715C96.571 43.382 96.7117 44.043 96.7112 44.7115C96.7203 45.0443 96.6753 45.3764 96.578 45.6948C96.4684 46.0358 96.3161 46.3617 96.1249 46.6648C94.695 46.4971 93.3696 45.834 92.3802 44.7912Z" fill="#EA8E39"/>
<path d="M97.0586 34.5066C96.8505 34.2362 96.676 33.9418 96.5388 33.6297C96.4072 33.3221 96.3089 33.0014 96.2456 32.6729C96.2456 32.3407 96.1524 31.9953 96.1124 31.6497C96.0693 30.9256 96.1096 30.1989 96.2323 29.4838C96.3338 28.7185 96.4807 27.9597 96.6721 27.2117C97.0586 25.6968 97.4717 24.2751 97.8581 23.2253C98.2446 22.1756 98.4845 21.3783 98.4845 21.3783C98.4845 21.3783 98.5911 21.5511 98.751 21.8434C98.9109 22.1357 99.1242 22.5875 99.3773 23.1722C99.9808 24.5073 100.428 25.9073 100.71 27.3445C100.842 28.1399 100.918 28.9436 100.937 29.7496C100.932 30.1499 100.901 30.5494 100.843 30.9455C100.781 31.3265 100.696 31.7037 100.59 32.075C100.396 32.7828 100.051 33.4402 99.5773 34.0017C99.0928 34.5874 98.47 35.044 97.7648 35.3304C97.4929 35.0892 97.2553 34.812 97.0586 34.5066Z" fill="#EA8E39"/>
<path d="M84.4246 28.7398C84.278 28.5271 84.2114 28.4076 84.2114 28.4076H84.6778C84.9976 28.4076 85.4108 28.4076 85.9171 28.5139C86.4235 28.6202 87.0233 28.6734 87.6629 28.8195C87.9827 28.886 88.3159 28.979 88.649 29.0719C88.9822 29.165 89.302 29.2978 89.6352 29.4308C90.317 29.6886 90.9692 30.0182 91.5809 30.414C92.165 30.7866 92.6981 31.2332 93.1667 31.7428C93.3823 31.9987 93.5657 32.2797 93.7131 32.5799C93.8575 32.8739 93.9735 33.1809 94.0595 33.4968C94.1505 33.8166 94.1953 34.1477 94.1929 34.4801C94.1637 34.8361 94.0967 35.188 93.9929 35.5298C93.2668 35.6707 92.5202 35.6707 91.794 35.5298C91.1313 35.3783 90.4939 35.1322 89.9017 34.799C89.6219 34.6262 89.342 34.4535 89.0755 34.2542L88.7024 33.9486L88.3159 33.6297C87.8342 33.2257 87.3884 32.7812 86.9832 32.3009C86.5832 31.8813 86.2093 31.4375 85.8639 30.9721L85.6239 30.6266L85.3974 30.3211C85.2375 30.1084 85.1042 29.9091 84.9843 29.7364C84.8644 29.5636 84.5445 28.9657 84.4246 28.7398Z" fill="#EA8E39"/>
<path d="M92.7139 24.7267C92.0841 24.42 91.5395 23.9637 91.128 23.3979C90.7156 22.8591 90.4123 22.2453 90.2352 21.5908C89.5102 18.7996 89.702 15.8338 89.9553 12.9936C90.0753 11.8907 90.1952 11.1466 90.1952 11.1466C90.7344 11.5648 91.1425 12.0502 91.5412 12.6083C91.9452 13.136 92.319 13.6861 92.6606 14.256C93.0586 14.9198 93.4146 15.6076 93.7267 16.3156C94.0435 17.0549 94.2976 17.8194 94.4863 18.6011C94.6443 19.3611 94.707 20.1377 94.6729 20.9131C94.6543 21.6546 94.4685 22.3824 94.1294 23.0426C93.7903 23.7027 93.3064 24.2783 92.7139 24.7267Z" fill="#EA8E39"/>
<path d="M81.5201 23.9292C81.0004 23.5439 80.5206 23.1718 80.0942 22.7997C79.6677 22.4277 79.2679 22.0689 78.9614 21.7633C78.6549 21.4577 78.3751 21.1919 78.2018 21.0059L77.922 20.7136C78.4858 20.6002 79.0551 20.516 79.6277 20.4611C80.199 20.4055 80.773 20.3833 81.3469 20.3947C82.0431 20.3898 82.7385 20.4432 83.4257 20.5542C84.8616 20.7205 86.2345 21.2361 87.4237 22.0556C87.9613 22.46 88.4141 22.9656 88.7563 23.5439C89.0579 24.1495 89.2001 24.8217 89.1694 25.4972C87.8542 26.0644 86.378 26.1398 85.0116 25.7098C84.3708 25.5245 83.7537 25.2659 83.1725 24.9391C82.597 24.6444 82.0446 24.3068 81.5201 23.9292Z" fill="#EA8E39"/>
<path d="M85.7752 17.8755C84.9912 17.8755 83.7678 17.9473 82.7723 17.2592C82.5023 17.0618 82.2443 16.8489 81.9994 16.6213C81.743 16.3944 81.5025 16.1502 81.2797 15.8905C80.7985 15.3721 80.3532 14.8216 79.9471 14.2428C79.1742 13.1001 78.5078 11.9175 78.0281 11.0272C77.7882 10.5887 77.6207 10.2035 77.4874 9.93782L77.3972 9.71083L77.3485 9.55225L77.9694 9.59578C78.3826 9.65023 78.6243 9.68654 79.0276 9.79145C80.3008 10.1137 81.5277 10.5959 82.679 11.2265C84.009 11.9128 85.1592 12.9003 86.0372 14.1099C86.4446 14.6847 86.7178 15.343 86.8368 16.0367C86.9694 16.6184 86.9657 17.2022 86.8368 17.8039" fill="#EA8E39"/>
<g clip-path="url(#clip1_93_80)">
<path d="M55.4451 40.7718V37.2976C58.2613 36.3483 60.1021 34.0907 60.159 31.3334H55.9658C55.9299 32.0066 55.6363 32.6401 55.1461 33.102C54.6558 33.564 54.0067 33.8189 53.3336 33.8137C52.6604 33.819 52.0112 33.5641 51.5208 33.1022C51.0305 32.6402 50.7368 32.0067 50.7008 31.3334H46.5082C46.5651 34.0907 48.4058 36.3484 51.2218 37.2976V40.7718C47.5538 41.3063 44.2238 43.2121 41.9016 46.106C39.5794 48.9998 38.4373 52.667 38.7048 56.37C38.9723 60.0731 40.6297 63.5374 43.3436 66.0662C46.0576 68.5949 49.6268 70.0007 53.3334 70.0007C57.0401 70.0007 60.6093 68.5949 63.3232 66.0662C66.0372 63.5374 67.6946 60.0731 67.9621 56.37C68.2296 52.667 67.0875 48.9998 64.7653 46.106C62.4431 43.2121 59.1131 41.3063 55.4451 40.7718H55.4451ZM53.3335 66.0922C50.8398 66.0897 48.4243 65.2211 46.4983 63.6346C44.5724 62.048 43.2552 59.8417 42.7713 57.3915H47.1074C48.0492 60.2081 50.4811 62.0684 53.2749 62.0948V57.8921C52.5837 57.8921 51.9209 57.6171 51.4321 57.1275C50.9434 56.638 50.6688 55.974 50.6688 55.2817C50.6688 54.5894 50.9434 53.9255 51.4321 53.436C51.9209 52.9464 52.5837 52.6714 53.2749 52.6714V48.4692C50.4813 48.4954 48.0493 50.3559 47.1074 53.1727H42.7817C43.1854 51.172 44.1478 49.3272 45.557 47.8527C46.9662 46.3782 48.7642 45.3346 50.7422 44.8432C52.7201 44.3519 54.7966 44.4329 56.7304 45.077C58.6641 45.721 60.3756 46.9016 61.666 48.4815C62.9563 50.0614 63.7725 51.9756 64.0195 54.0018C64.2666 56.0279 63.9345 58.0826 63.0618 59.9272C62.189 61.7717 60.8115 63.3302 59.0894 64.4216C57.3673 65.5129 55.3713 66.0922 53.3335 66.0922L53.3335 66.0922Z" fill="#EA8E39"/>
</g>
</g>
<defs>
<clipPath id="clip0_93_80">
<rect width="106.667" height="106.667" fill="white"/>
</clipPath>
<clipPath id="clip1_93_80">
<rect width="29.3333" height="38.6667" fill="white" transform="translate(38.6665 31.3334)"/>
</clipPath>
</defs>
</svg>
