<svg width="107" height="107" viewBox="0 0 107 107" fill="none" xmlns="http://www.w3.org/2000/svg">
<g clip-path="url(#clip0_93_94)">
<path d="M38.1405 93.85C37.5263 93.37 36.8436 92.9847 36.1149 92.7069C35.433 92.4673 34.7185 92.3328 33.996 92.3081C32.4306 92.2906 30.8702 92.4872 29.3585 92.8932C27.8126 93.2785 26.3333 93.7298 25.2406 94.1023C24.1479 94.4741 23.4282 94.7535 23.4282 94.7535C23.4282 94.7535 24.1345 95.1523 25.2539 95.6307C26.6556 96.2373 28.1221 96.683 29.625 96.9593C31.3235 97.292 33.0745 97.2514 34.7556 96.8399C35.5304 96.6743 36.2491 96.3121 36.8422 95.7883C37.4353 95.2645 37.8825 94.5967 38.1405 93.85Z" fill="#EA8E39"/>
<path d="M33.4223 87.0193C33.9974 88.3996 34.9145 89.6112 36.0876 90.5409C36.6436 90.9724 37.2907 91.2725 37.9799 91.4181C38.6904 91.563 39.4281 91.4938 40.0988 91.2183C40.145 89.8102 39.7642 88.4211 39.006 87.2327C38.282 86.1286 37.3817 85.1495 36.3408 84.3359C35.4365 83.61 34.4885 82.9397 33.5023 82.3292C32.716 81.8372 32.1696 81.5586 32.1696 81.5586C32.1696 81.5586 32.1696 81.7314 32.1696 82.037C32.1696 82.3427 32.2496 82.7542 32.3428 83.286C32.5487 84.57 32.9112 85.8237 33.4223 87.0193Z" fill="#EA8E39"/>
<path d="M22.3079 90.6078C23.061 90.599 23.8021 90.4183 24.4743 90.08C25.1465 89.7409 25.732 89.2538 26.1859 88.6544C25.8314 88.0287 25.3534 87.481 24.7808 87.0448C24.2082 86.6086 23.5528 86.2926 22.8543 86.1159C21.3462 85.7139 19.7912 85.5125 18.23 85.5181C16.6442 85.5181 15.0583 85.5181 13.8723 85.5181H11.8867C11.8867 85.5181 12.0333 85.6908 12.2998 85.9567C12.5663 86.2225 12.9794 86.5815 13.4859 86.9931C14.7046 87.9945 16.0484 88.8343 17.4837 89.491C18.9835 90.2305 20.6348 90.6126 22.3079 90.6078Z" fill="#EA8E39"/>
<path d="M25.3203 84.535C25.7335 85.1017 26.2805 85.5586 26.9127 85.8643C27.5449 86.1708 28.2429 86.3164 28.9451 86.2894C29.4997 84.9545 29.5329 83.4611 29.0384 82.1039C28.5651 80.8565 27.8997 79.6912 27.0661 78.6492C26.3065 77.6128 25.5336 76.722 24.9739 76.0979C24.694 75.7652 24.4541 75.5129 24.2942 75.3401L24.041 75.0742C24.041 75.0742 24.041 75.2343 23.9078 75.5129C23.8072 75.9117 23.7272 76.3153 23.6679 76.722C23.4716 77.9949 23.4716 79.29 23.6679 80.562C23.8766 82.0036 24.4448 83.3696 25.3203 84.535Z" fill="#EA8E39"/>
<path d="M6.31642 73.4665C5.22365 73.1211 4.50404 72.9217 4.50404 72.9217C4.50404 72.9217 4.57067 73.1078 4.7173 73.4134C4.86385 73.719 5.09039 74.131 5.37027 74.6359C5.65007 75.1411 5.99658 75.7254 6.39642 76.3367C6.5963 76.6424 6.80948 76.9481 7.03603 77.2665L7.20932 77.5061L7.43587 77.7982L7.90226 78.3833C9.05346 79.8297 10.5852 80.9298 12.3266 81.5586C13.0478 81.8237 13.8239 81.9057 14.5848 81.7966C15.3457 81.6876 16.0673 81.3915 16.6844 80.9345C16.3285 79.5145 15.4724 78.2695 14.2722 77.4265C13.9924 77.2004 13.6726 76.9879 13.3528 76.7618L12.34 76.1242L11.2605 75.4993C10.9274 75.3139 10.5809 75.1411 10.2344 74.9811C8.96391 74.3894 7.65501 73.8833 6.31642 73.4665Z" fill="#EA8E39"/>
<path d="M17.0583 76.2038C17.2393 76.8756 17.5983 77.4869 18.0977 77.9733C18.5971 78.4597 19.2185 78.8028 19.8968 78.9675C20.7763 77.8547 21.2759 76.4903 21.3227 75.0742C21.3579 73.8954 21.2776 72.7161 21.0828 71.5529C21.0025 70.9641 20.8778 70.3822 20.7097 69.8122C20.5364 69.2275 20.3632 68.696 20.19 68.2576C20.0167 67.819 19.8701 67.447 19.7635 67.1945L19.6169 66.7959L19.337 67.1945C19.1638 67.4603 18.9506 67.8323 18.7107 68.2974C18.0914 69.4793 17.5957 70.7216 17.2315 72.0047C17.1382 72.3634 17.0449 72.7355 16.965 73.1076C16.8956 73.4588 16.8467 73.8137 16.8183 74.1706C16.7851 74.5242 16.7851 74.88 16.8183 75.2334C16.8676 75.5638 16.9479 75.8885 17.0583 76.2038Z" fill="#EA8E39"/>
<path d="M4.63721 68.018C4.89791 68.32 5.1832 68.6 5.49015 68.8551C5.7787 69.1042 6.08613 69.3307 6.40963 69.5328C7.01397 69.9728 7.71033 70.2708 8.44656 70.4042C9.1828 70.5377 9.93974 70.5033 10.6608 70.3035C10.7869 69.5944 10.7413 68.8654 10.5275 68.1775C10.4287 67.8517 10.29 67.5392 10.1144 67.2473C9.94061 66.9441 9.74925 66.6513 9.54133 66.3703C8.58619 65.1734 7.43228 64.1487 6.12975 63.3407C4.98284 62.5335 3.7904 61.7926 2.55832 61.1216L0.879198 60.2181C0.879198 60.2181 0.879198 60.4174 0.985785 60.7496C1.09245 61.0818 1.21233 61.5469 1.41221 62.0784C1.84023 63.4778 2.44473 64.8172 3.2113 66.0647C3.63733 66.7502 4.11399 67.4031 4.63721 68.018Z" fill="#EA8E39"/>
<path d="M12.9797 67.4601C13.2788 68.0899 13.7383 68.6306 14.3123 69.0281C15.5929 68.3126 16.5475 67.1323 16.9775 65.7328C17.0838 65.4065 17.1684 65.0735 17.2308 64.7362L17.3108 64.2312C17.3108 64.0718 17.3108 63.8991 17.3907 63.7263C17.4701 63.0472 17.4969 62.3631 17.4707 61.68C17.4261 60.523 17.3148 59.3695 17.1375 58.2252C17.0575 57.7734 16.9775 57.4013 16.9243 57.1489C16.871 56.8964 16.8443 56.7502 16.8443 56.7502L16.5112 57.0824C16.2143 57.3768 15.934 57.6873 15.6716 58.0126C14.8448 59.0224 14.1299 60.1184 13.5394 61.2813C12.8886 62.5923 12.5381 64.031 12.5132 65.4936C12.5165 65.8387 12.5612 66.1822 12.6465 66.5167C12.7218 66.8427 12.8335 67.1592 12.9797 67.4601Z" fill="#EA8E39"/>
<path d="M1.94563 55.3949C2.13222 55.7476 2.34611 56.0852 2.58531 56.4047C2.82643 56.7151 3.08912 57.0082 3.37154 57.2818C3.88163 57.8174 4.50532 58.2326 5.19706 58.497C5.8888 58.7613 6.63101 58.8682 7.36948 58.8098C7.63391 58.1435 7.73007 57.4225 7.64936 56.7104C7.60852 56.3713 7.53266 56.0373 7.42281 55.7138C7.3374 55.3779 7.22595 55.0492 7.08959 54.7304C6.76864 54.058 6.37063 53.4248 5.90361 52.8436L5.18392 51.9401C4.94408 51.6344 4.67758 51.3421 4.42436 51.0498C3.37155 49.907 2.22551 48.844 1.41262 48.06C0.599721 47.276 0 46.7578 0 46.7578C0 46.7578 0 47.5551 0 48.751C0.0621692 49.4377 0.16 50.1207 0.293174 50.7973C0.373174 51.1694 0.453094 51.5547 0.546388 51.9401C0.632676 52.3364 0.743961 52.7269 0.879523 53.1093C1.18161 53.8948 1.53783 54.6585 1.94563 55.3949Z" fill="#EA8E39"/>
<path d="M11.2076 57.9461C12.5726 57.4897 13.7178 56.5421 14.4193 55.2885C14.5898 54.9996 14.7368 54.6974 14.859 54.385C15.0115 54.079 15.145 53.7639 15.2589 53.4416C15.4686 52.8217 15.629 52.1864 15.7386 51.5414C15.8585 50.9169 15.9918 50.3057 16.0584 49.7476C16.0584 49.4552 16.0584 49.1895 16.1384 48.937C16.2183 48.6845 16.1384 48.4454 16.1384 48.2195C16.2118 47.7353 16.2563 47.2472 16.2716 46.7578C16.2716 46.7578 15.6853 47.09 14.8457 47.688L14.1661 48.1929C13.9262 48.3922 13.6863 48.5915 13.4465 48.8174C12.926 49.2818 12.4405 49.7837 11.9939 50.319C11.7674 50.598 11.5408 50.8903 11.3276 51.196L11.0344 51.661L10.7812 52.1527C10.4637 52.7886 10.2307 53.4631 10.0882 54.1591C10.014 54.4951 9.97822 54.8383 9.98156 55.1823C10.0013 55.5146 10.0549 55.8441 10.1415 56.1656C10.3331 56.8424 10.7009 57.4567 11.2076 57.9461Z" fill="#EA8E39"/>
<path d="M5.66435 38.7852C5.30455 38.0942 4.91808 37.4564 4.54499 36.8053L3.51884 35.1443C2.91912 34.1743 2.4794 33.5498 2.4794 33.5498C2.4794 33.5498 2.25285 34.3073 2.01293 35.4765C1.93301 36.0745 1.83971 36.8053 1.78638 37.5361C1.78638 37.9082 1.78638 38.3069 1.78638 38.7055C1.78638 39.1041 1.78638 39.516 1.78638 39.9279C1.85134 40.7525 1.98507 41.5704 2.18622 42.3729C2.39589 43.1426 2.70969 43.8802 3.11908 44.5654C3.487 45.2055 3.99836 45.752 4.61337 46.1624C5.2283 46.5727 5.93007 46.8356 6.66384 46.9306C6.8634 46.6283 7.02459 46.3025 7.1436 45.9606C7.26953 45.6394 7.35892 45.3051 7.41011 44.964C7.51239 44.2823 7.48071 43.5873 7.31689 42.9177C7.16429 42.1994 6.94571 41.4966 6.66384 40.8182C6.37066 40.114 6.01086 39.3964 5.66435 38.7852Z" fill="#EA8E39"/>
<path d="M14.2863 44.7912C14.7579 44.3304 15.1698 43.8126 15.5124 43.2499C15.8867 42.7222 16.2123 42.1618 16.4852 41.5756C16.6318 41.2965 16.7384 41.0175 16.8717 40.7517L17.2182 39.9545C17.4314 39.4362 17.5913 38.9579 17.7379 38.546C18.0444 37.7355 18.191 37.2172 18.191 37.2172C17.6357 37.3605 17.0885 37.5335 16.5518 37.7355C15.3521 38.185 14.2182 38.7928 13.1803 39.5426C12.8771 39.7495 12.5877 39.9758 12.3141 40.2202C12.0476 40.4638 11.7941 40.721 11.5545 40.9909C11.0762 41.5252 10.6769 42.1248 10.3684 42.7715C10.0955 43.382 9.95481 44.043 9.95528 44.7115C9.94621 45.0443 9.99118 45.3764 10.0885 45.6948C10.1981 46.0358 10.3504 46.3617 10.5416 46.6648C11.9715 46.4971 13.2969 45.834 14.2863 44.7912Z" fill="#EA8E39"/>
<path d="M9.60792 34.5066C9.816 34.2362 9.99057 33.9418 10.1277 33.6297C10.2593 33.3221 10.3576 33.0014 10.4209 32.6729C10.4209 32.3407 10.5141 31.9953 10.5541 31.6497C10.5972 30.9256 10.5569 30.1989 10.4342 29.4838C10.3327 28.7185 10.1858 27.9597 9.99439 27.2117C9.60792 25.6968 9.19486 24.2751 8.80839 23.2253C8.42193 22.1756 8.18201 21.3783 8.18201 21.3783C8.18201 21.3783 8.07542 21.5511 7.9155 21.8434C7.75558 22.1357 7.54233 22.5875 7.28919 23.1722C6.68573 24.5073 6.2386 25.9073 5.95649 27.3445C5.82419 28.1399 5.74849 28.9436 5.72995 29.7496C5.73456 30.1499 5.76569 30.5494 5.82324 30.9455C5.88573 31.3265 5.97026 31.7037 6.07645 32.075C6.27005 32.7828 6.61568 33.4402 7.08923 34.0017C7.57369 34.5874 8.1965 35.044 8.90169 35.3304C9.17361 35.0892 9.41122 34.812 9.60792 34.5066Z" fill="#EA8E39"/>
<path d="M22.242 28.7398C22.3885 28.5271 22.4551 28.4076 22.4551 28.4076H21.9887C21.6689 28.4076 21.2558 28.4076 20.7494 28.5139C20.243 28.6202 19.6433 28.6734 19.0037 28.8195C18.6838 28.886 18.3506 28.979 18.0175 29.0719C17.6843 29.165 17.3645 29.2978 17.0314 29.4308C16.3496 29.6886 15.6973 30.0182 15.0857 30.414C14.5015 30.7866 13.9684 31.2332 13.4998 31.7428C13.2843 31.9987 13.1008 32.2797 12.9534 32.5799C12.809 32.8739 12.6931 33.1809 12.607 33.4968C12.516 33.8166 12.4712 34.1477 12.4737 34.4801C12.5028 34.8361 12.5698 35.188 12.6736 35.5298C13.3998 35.6707 14.1463 35.6707 14.8725 35.5298C15.5352 35.3783 16.1726 35.1322 16.7648 34.799C17.0447 34.6262 17.3245 34.4535 17.5911 34.2542L17.9641 33.9486L18.3506 33.6297C18.8323 33.2257 19.2781 32.7812 19.6833 32.3009C20.0833 31.8813 20.4572 31.4375 20.8027 30.9721L21.0426 30.6266L21.2691 30.3211C21.4291 30.1084 21.5623 29.9091 21.6822 29.7364C21.8022 29.5636 22.122 28.9657 22.242 28.7398Z" fill="#EA8E39"/>
<path d="M13.9527 24.7267C14.5825 24.42 15.127 23.9637 15.5385 23.3979C15.9509 22.8591 16.2542 22.2453 16.4313 21.5908C17.1563 18.7996 16.9645 15.8338 16.7112 12.9936C16.5912 11.8907 16.4713 11.1466 16.4713 11.1466C15.9321 11.5648 15.5241 12.0502 15.1254 12.6083C14.7213 13.136 14.3476 13.6861 14.0059 14.256C13.608 14.9198 13.2519 15.6076 12.9398 16.3156C12.6231 17.0549 12.369 17.8194 12.1802 18.6011C12.0222 19.3611 11.9595 20.1377 11.9937 20.9131C12.0123 21.6546 12.1981 22.3824 12.5372 23.0426C12.8763 23.7027 13.3601 24.2783 13.9527 24.7267Z" fill="#EA8E39"/>
<path d="M25.1465 23.9292C25.6662 23.5439 26.1459 23.1718 26.5724 22.7997C26.9988 22.4277 27.3986 22.0689 27.7051 21.7633C28.0116 21.4577 28.2914 21.1919 28.4647 21.0059L28.7445 20.7136C28.1807 20.6002 27.6114 20.516 27.0388 20.4611C26.4675 20.4055 25.8935 20.3833 25.3197 20.3947C24.6235 20.3898 23.9281 20.4432 23.2408 20.5542C21.8049 20.7205 20.432 21.2361 19.2428 22.0556C18.7052 22.46 18.2524 22.9656 17.9102 23.5439C17.6086 24.1495 17.4665 24.8217 17.4971 25.4972C18.8123 26.0644 20.2885 26.1398 21.6549 25.7098C22.2957 25.5245 22.9128 25.2659 23.494 24.9391C24.0695 24.6444 24.622 24.3068 25.1465 23.9292Z" fill="#EA8E39"/>
<path d="M20.8913 17.8755C21.6753 17.8755 22.8988 17.9473 23.8943 17.2592C24.1642 17.0618 24.4223 16.8489 24.6671 16.6213C24.9235 16.3944 25.164 16.1502 25.3868 15.8905C25.868 15.3721 26.3133 14.8216 26.7194 14.2428C27.4924 13.1001 28.1587 11.9175 28.6384 11.0272C28.8783 10.5887 29.0458 10.2035 29.1791 9.93782L29.2693 9.71083L29.318 9.55225L28.6971 9.59578C28.2839 9.65023 28.0422 9.68654 27.6389 9.79145C26.3658 10.1137 25.1388 10.5959 23.9875 11.2265C22.6575 11.9128 21.5073 12.9003 20.6293 14.1099C20.2219 14.6847 19.9487 15.343 19.8297 16.0367C19.6971 16.6184 19.7008 17.2022 19.8297 17.8039" fill="#EA8E39"/>
<path d="M68.5265 93.85C69.1407 93.37 69.8234 92.9847 70.5521 92.7069C71.234 92.4673 71.9485 92.3328 72.671 92.3081C74.2364 92.2906 75.7968 92.4872 77.3086 92.8932C78.8544 93.2785 80.3337 93.7298 81.4264 94.1023C82.5191 94.4741 83.2388 94.7535 83.2388 94.7535C83.2388 94.7535 82.5325 95.1523 81.4131 95.6307C80.0114 96.2373 78.5449 96.683 77.042 96.9593C75.3435 97.292 73.5925 97.2514 71.9114 96.8399C71.1366 96.6743 70.4179 96.3121 69.8249 95.7883C69.2317 95.2645 68.7845 94.5967 68.5265 93.85Z" fill="#EA8E39"/>
<path d="M73.2447 87.0193C72.6696 88.3996 71.7525 89.6112 70.5794 90.5409C70.0234 90.9724 69.3763 91.2725 68.6871 91.4181C67.9766 91.563 67.2389 91.4938 66.5682 91.2183C66.522 89.8102 66.9028 88.4211 67.661 87.2327C68.385 86.1286 69.2853 85.1495 70.3262 84.3359C71.2305 83.61 72.1785 82.9397 73.1648 82.3292C73.951 81.8372 74.4974 81.5586 74.4974 81.5586C74.4974 81.5586 74.4974 81.7314 74.4974 82.037C74.4974 82.3427 74.4175 82.7542 74.3242 83.286C74.1183 84.57 73.7558 85.8237 73.2447 87.0193Z" fill="#EA8E39"/>
<path d="M84.3591 90.6078C83.6061 90.599 82.865 90.4183 82.1927 90.08C81.5205 89.7409 80.935 89.2538 80.4811 88.6544C80.8356 88.0287 81.3136 87.481 81.8862 87.0448C82.4588 86.6086 83.1142 86.2926 83.8127 86.1159C85.3208 85.7139 86.8758 85.5125 88.437 85.5181C90.0229 85.5181 91.6087 85.5181 92.7947 85.5181H94.7804C94.7804 85.5181 94.6337 85.6908 94.3672 85.9567C94.1007 86.2225 93.6876 86.5815 93.1811 86.9931C91.9624 87.9945 90.6186 88.8343 89.1833 89.491C87.6835 90.2305 86.0322 90.6126 84.3591 90.6078Z" fill="#EA8E39"/>
<path d="M81.3467 84.535C80.9335 85.1017 80.3865 85.5586 79.7543 85.8643C79.1221 86.1708 78.4241 86.3164 77.7219 86.2894C77.1674 84.9545 77.1341 83.4611 77.6286 82.1039C78.102 80.8565 78.7674 79.6912 79.6009 78.6492C80.3605 77.6128 81.1334 76.722 81.6931 76.0979C81.973 75.7652 82.2129 75.5129 82.3729 75.3401L82.626 75.0742C82.626 75.0742 82.626 75.2343 82.7592 75.5129C82.8598 75.9117 82.9399 76.3153 82.9992 76.722C83.1954 77.9949 83.1954 79.29 82.9992 80.562C82.7904 82.0036 82.2222 83.3696 81.3467 84.535Z" fill="#EA8E39"/>
<path d="M100.351 73.4665C101.443 73.1211 102.163 72.9217 102.163 72.9217C102.163 72.9217 102.096 73.1078 101.95 73.4134C101.803 73.719 101.577 74.131 101.297 74.6359C101.017 75.1411 100.67 75.7254 100.271 76.3367C100.071 76.6424 99.8575 76.9481 99.631 77.2665L99.4577 77.5061L99.2312 77.7982L98.7648 78.3833C97.6136 79.8297 96.0819 80.9298 94.3404 81.5586C93.6192 81.8237 92.8431 81.9057 92.0822 81.7966C91.3213 81.6876 90.5997 81.3915 89.9827 80.9345C90.3385 79.5145 91.1946 78.2695 92.3948 77.4265C92.6746 77.2004 92.9944 76.9879 93.3143 76.7618L94.327 76.1242L95.4065 75.4993C95.7396 75.3139 96.0862 75.1411 96.4327 74.9811C97.7031 74.3894 99.012 73.8833 100.351 73.4665Z" fill="#EA8E39"/>
<path d="M89.6088 76.2038C89.4277 76.8756 89.0687 77.4869 88.5693 77.9733C88.0699 78.4597 87.4485 78.8028 86.7702 78.9675C85.8907 77.8547 85.3911 76.4903 85.3443 75.0742C85.3091 73.8954 85.3894 72.7161 85.5842 71.5529C85.6645 70.9641 85.7892 70.3822 85.9573 69.8122C86.1306 69.2275 86.3038 68.696 86.477 68.2576C86.6503 67.819 86.7969 67.447 86.9035 67.1945L87.0501 66.7959L87.33 67.1945C87.5032 67.4603 87.7165 67.8323 87.9563 68.2974C88.5756 69.4793 89.0713 70.7216 89.4355 72.0047C89.5288 72.3634 89.6221 72.7355 89.702 73.1076C89.7714 73.4588 89.8203 73.8137 89.8487 74.1706C89.8819 74.5242 89.8819 74.88 89.8487 75.2334C89.7994 75.5638 89.7191 75.8885 89.6088 76.2038Z" fill="#EA8E39"/>
<path d="M102.03 68.018C101.769 68.32 101.484 68.6 101.177 68.8551C100.888 69.1042 100.581 69.3307 100.257 69.5328C99.653 69.9728 98.9567 70.2708 98.2205 70.4042C97.4842 70.5377 96.7273 70.5033 96.0062 70.3035C95.8801 69.5944 95.9258 68.8654 96.1395 68.1775C96.2383 67.8517 96.377 67.5392 96.5526 67.2473C96.7264 66.9441 96.9178 66.6513 97.1257 66.3703C98.0808 65.1734 99.2347 64.1487 100.537 63.3407C101.684 62.5335 102.877 61.7926 104.109 61.1216L105.788 60.2181C105.788 60.2181 105.788 60.4174 105.681 60.7496C105.575 61.0818 105.455 61.5469 105.255 62.0784C104.827 63.4778 104.222 64.8172 103.456 66.0647C103.03 66.7502 102.553 67.4031 102.03 68.018Z" fill="#EA8E39"/>
<path d="M93.6873 67.4601C93.3883 68.0899 92.9287 68.6306 92.3547 69.0281C91.0741 68.3126 90.1195 67.1323 89.6895 65.7328C89.5832 65.4065 89.4986 65.0735 89.4363 64.7362L89.3563 64.2312C89.3563 64.0718 89.3563 63.8991 89.2763 63.7263C89.1969 63.0472 89.1702 62.3631 89.1963 61.68C89.2409 60.523 89.3522 59.3695 89.5296 58.2252C89.6095 57.7734 89.6895 57.4013 89.7427 57.1489C89.7961 56.8964 89.8227 56.7502 89.8227 56.7502L90.1559 57.0824C90.4527 57.3768 90.733 57.6873 90.9954 58.0126C91.8222 59.0224 92.5371 60.1184 93.1276 61.2813C93.7784 62.5923 94.1289 64.031 94.1538 65.4936C94.1505 65.8387 94.1058 66.1822 94.0205 66.5167C93.9452 66.8427 93.8335 67.1592 93.6873 67.4601Z" fill="#EA8E39"/>
<path d="M104.721 55.3949C104.535 55.7476 104.321 56.0852 104.082 56.4047C103.841 56.7151 103.578 57.0082 103.295 57.2818C102.785 57.8174 102.162 58.2326 101.47 58.497C100.778 58.7613 100.036 58.8682 99.2975 58.8098C99.0331 58.1435 98.9369 57.4225 99.0177 56.7104C99.0585 56.3713 99.1344 56.0373 99.2442 55.7138C99.3296 55.3779 99.4411 55.0492 99.5774 54.7304C99.8984 54.058 100.296 53.4248 100.763 52.8436L101.483 51.9401C101.723 51.6344 101.989 51.3421 102.243 51.0498C103.295 49.907 104.442 48.844 105.254 48.06C106.067 47.276 106.667 46.7578 106.667 46.7578C106.667 46.7578 106.667 47.5551 106.667 48.751C106.605 49.4377 106.507 50.1207 106.374 50.7973C106.294 51.1694 106.214 51.5547 106.121 51.9401C106.034 52.3364 105.923 52.7269 105.787 53.1093C105.485 53.8948 105.129 54.6585 104.721 55.3949Z" fill="#EA8E39"/>
<path d="M95.4594 57.9461C94.0944 57.4897 92.9493 56.5421 92.2477 55.2885C92.0772 54.9996 91.9302 54.6974 91.808 54.385C91.6555 54.079 91.522 53.7639 91.4082 53.4416C91.1984 52.8217 91.038 52.1864 90.9284 51.5414C90.8085 50.9169 90.6753 50.3057 90.6086 49.7476C90.6086 49.4552 90.6086 49.1895 90.5286 48.937C90.4487 48.6845 90.5286 48.4454 90.5286 48.2195C90.4552 47.7353 90.4107 47.2472 90.3954 46.7578C90.3954 46.7578 90.9817 47.09 91.8213 47.688L92.5009 48.1929C92.7408 48.3922 92.9807 48.5915 93.2205 48.8174C93.741 49.2818 94.2265 49.7837 94.6731 50.319C94.8997 50.598 95.1262 50.8903 95.3395 51.196L95.6326 51.661L95.8859 52.1527C96.2033 52.7886 96.4363 53.4631 96.5788 54.1591C96.6531 54.4951 96.6888 54.8383 96.6855 55.1823C96.6657 55.5146 96.6121 55.8441 96.5255 56.1656C96.3339 56.8424 95.9661 57.4567 95.4594 57.9461Z" fill="#EA8E39"/>
<path d="M101.003 38.7852C101.362 38.0942 101.749 37.4564 102.122 36.8053L103.148 35.1443C103.748 34.1743 104.188 33.5498 104.188 33.5498C104.188 33.5498 104.414 34.3073 104.654 35.4765C104.734 36.0745 104.827 36.8053 104.881 37.5361C104.881 37.9082 104.881 38.3069 104.881 38.7055C104.881 39.1041 104.881 39.516 104.881 39.9279C104.816 40.7525 104.682 41.5704 104.481 42.3729C104.271 43.1426 103.957 43.8802 103.548 44.5654C103.18 45.2055 102.669 45.752 102.054 46.1624C101.439 46.5727 100.737 46.8356 100.003 46.9306C99.8036 46.6283 99.6424 46.3025 99.5234 45.9606C99.3975 45.6394 99.3081 45.3051 99.2569 44.964C99.1546 44.2823 99.1863 43.5873 99.3501 42.9177C99.5027 42.1994 99.7213 41.4966 100.003 40.8182C100.296 40.114 100.656 39.3964 101.003 38.7852Z" fill="#EA8E39"/>
<path d="M92.3807 44.7912C91.9091 44.3304 91.4972 43.8126 91.1546 43.2499C90.7803 42.7222 90.4547 42.1618 90.1818 41.5756C90.0352 41.2965 89.9286 41.0175 89.7954 40.7517L89.4488 39.9545C89.2356 39.4362 89.0757 38.9579 88.9291 38.546C88.6226 37.7355 88.476 37.2172 88.476 37.2172C89.0313 37.3605 89.5785 37.5335 90.1152 37.7355C91.3149 38.185 92.4488 38.7928 93.4867 39.5426C93.7899 39.7495 94.0793 39.9758 94.353 40.2202C94.6194 40.4638 94.8729 40.721 95.1125 40.9909C95.5908 41.5252 95.9901 42.1248 96.2986 42.7715C96.5715 43.382 96.7122 44.043 96.7117 44.7115C96.7208 45.0443 96.6758 45.3764 96.5785 45.6948C96.4689 46.0358 96.3166 46.3617 96.1254 46.6648C94.6955 46.4971 93.3701 45.834 92.3807 44.7912Z" fill="#EA8E39"/>
<path d="M97.0591 34.5066C96.851 34.2362 96.6765 33.9418 96.5393 33.6297C96.4077 33.3221 96.3094 33.0014 96.2461 32.6729C96.2461 32.3407 96.1529 31.9953 96.1129 31.6497C96.0698 30.9256 96.1101 30.1989 96.2328 29.4838C96.3343 28.7185 96.4812 27.9597 96.6726 27.2117C97.0591 25.6968 97.4722 24.2751 97.8586 23.2253C98.2451 22.1756 98.485 21.3783 98.485 21.3783C98.485 21.3783 98.5916 21.5511 98.7515 21.8434C98.9114 22.1357 99.1247 22.5875 99.3778 23.1722C99.9813 24.5073 100.428 25.9073 100.711 27.3445C100.843 28.1399 100.919 28.9436 100.937 29.7496C100.932 30.1499 100.901 30.5494 100.844 30.9455C100.781 31.3265 100.697 31.7037 100.591 32.075C100.397 32.7828 100.051 33.4402 99.5778 34.0017C99.0933 34.5874 98.4705 35.044 97.7653 35.3304C97.4934 35.0892 97.2558 34.812 97.0591 34.5066Z" fill="#EA8E39"/>
<path d="M84.4251 28.7398C84.2785 28.5271 84.2119 28.4076 84.2119 28.4076H84.6783C84.9981 28.4076 85.4112 28.4076 85.9176 28.5139C86.424 28.6202 87.0237 28.6734 87.6633 28.8195C87.9832 28.886 88.3164 28.979 88.6495 29.0719C88.9827 29.165 89.3025 29.2978 89.6356 29.4308C90.3174 29.6886 90.9697 30.0182 91.5814 30.414C92.1655 30.7866 92.6986 31.2332 93.1672 31.7428C93.3828 31.9987 93.5662 32.2797 93.7136 32.5799C93.858 32.8739 93.974 33.1809 94.06 33.4968C94.151 33.8166 94.1958 34.1477 94.1933 34.4801C94.1642 34.8361 94.0972 35.188 93.9934 35.5298C93.2673 35.6707 92.5207 35.6707 91.7945 35.5298C91.1318 35.3783 90.4944 35.1322 89.9022 34.799C89.6224 34.6262 89.3425 34.4535 89.076 34.2542L88.7029 33.9486L88.3164 33.6297C87.8347 33.2257 87.3889 32.7812 86.9837 32.3009C86.5837 31.8813 86.2098 31.4375 85.8643 30.9721L85.6244 30.6266L85.3979 30.3211C85.238 30.1084 85.1047 29.9091 84.9848 29.7364C84.8649 29.5636 84.545 28.9657 84.4251 28.7398Z" fill="#EA8E39"/>
<path d="M92.7144 24.7267C92.0846 24.42 91.54 23.9637 91.1285 23.3979C90.7161 22.8591 90.4128 22.2453 90.2357 21.5908C89.5107 18.7996 89.7025 15.8338 89.9558 12.9936C90.0758 11.8907 90.1957 11.1466 90.1957 11.1466C90.7349 11.5648 91.143 12.0502 91.5417 12.6083C91.9457 13.136 92.3195 13.6861 92.6611 14.256C93.059 14.9198 93.4151 15.6076 93.7272 16.3156C94.044 17.0549 94.298 17.8194 94.4868 18.6011C94.6448 19.3611 94.7075 20.1377 94.6734 20.9131C94.6547 21.6546 94.4689 22.3824 94.1298 23.0426C93.7907 23.7027 93.3069 24.2783 92.7144 24.7267Z" fill="#EA8E39"/>
<path d="M81.5206 23.9292C81.0008 23.5439 80.5211 23.1718 80.0946 22.7997C79.6682 22.4277 79.2684 22.0689 78.9619 21.7633C78.6554 21.4577 78.3756 21.1919 78.2023 21.0059L77.9225 20.7136C78.4863 20.6002 79.0556 20.516 79.6282 20.4611C80.1995 20.4055 80.7735 20.3833 81.3473 20.3947C82.0435 20.3898 82.7389 20.4432 83.4262 20.5542C84.8621 20.7205 86.235 21.2361 87.4242 22.0556C87.9618 22.46 88.4146 22.9656 88.7568 23.5439C89.0584 24.1495 89.2006 24.8217 89.1699 25.4972C87.8547 26.0644 86.3785 26.1398 85.0121 25.7098C84.3713 25.5245 83.7542 25.2659 83.173 24.9391C82.5975 24.6444 82.0451 24.3068 81.5206 23.9292Z" fill="#EA8E39"/>
<path d="M85.7757 17.8755C84.9917 17.8755 83.7682 17.9473 82.7727 17.2592C82.5028 17.0618 82.2447 16.8489 81.9999 16.6213C81.7435 16.3944 81.503 16.1502 81.2802 15.8905C80.799 15.3721 80.3537 14.8216 79.9476 14.2428C79.1747 13.1001 78.5083 11.9175 78.0286 11.0272C77.7887 10.5887 77.6212 10.2035 77.4879 9.93782L77.3977 9.71083L77.349 9.55225L77.9699 9.59578C78.3831 9.65023 78.6248 9.68654 79.0281 9.79145C80.3013 10.1137 81.5282 10.5959 82.6795 11.2265C84.0095 11.9128 85.1597 12.9003 86.0377 14.1099C86.4451 14.6847 86.7183 15.343 86.8373 16.0367C86.9699 16.6184 86.9662 17.2022 86.8373 17.8039" fill="#EA8E39"/>
<path d="M69.333 34.6667V66.6667H37.333V34.6667H69.333ZM44.4414 59.9031H49.3877V48.3562H44.4414V59.9031ZM51.0254 59.9031H55.9717V41.7664H51.0254V59.9031ZM57.6211 53.3083H62.5674V48.3621H57.6211V53.3083ZM46.9033 41.4304C46.1598 41.4305 45.4467 41.7259 44.9209 42.2517C44.3951 42.7775 44.0996 43.4905 44.0996 44.2341C44.0996 44.9778 44.395 45.6917 44.9209 46.2175C45.4467 46.7432 46.1599 47.0387 46.9033 47.0388C47.647 47.0388 48.3609 46.7433 48.8867 46.2175C49.4126 45.6917 49.708 44.9778 49.708 44.2341C49.708 43.4906 49.4124 42.7775 48.8867 42.2517C48.3609 41.7258 47.647 41.4304 46.9033 41.4304ZM57.6211 46.7078H62.5674V41.7615H57.6211V46.7078Z" fill="#EA8E39"/>
</g>
<defs>
<clipPath id="clip0_93_94">
<rect width="106.667" height="106.667" fill="white"/>
</clipPath>
</defs>
</svg>
