<svg width="81" height="81" viewBox="0 0 81 81" fill="none" xmlns="http://www.w3.org/2000/svg">
<path d="M67.4997 40.5L69.7497 42.75C69.3021 48.3174 67.2698 53.6403 63.893 58.0894C60.5163 62.5385 55.9363 65.9278 50.6945 67.8565C45.4528 69.7853 39.7683 70.173 34.3132 68.9737C28.8581 67.7744 23.8604 65.0383 19.9109 61.0888C15.9614 57.1393 13.2253 52.1416 12.026 46.6865C10.8267 41.2314 11.2144 35.5469 13.1431 30.3051C15.0719 25.0633 18.4612 20.4834 22.9103 17.1066C27.3594 13.7299 32.6822 11.6976 38.2497 11.25L40.4997 13.5V38.25L42.7497 40.5H67.4997Z" fill="#EA8E39" fill-opacity="0.2" stroke="#EA8E39" stroke-width="2.25"/>
<path d="M68.625 30.375C65.25 22.5 58.5 15.75 50.625 12.375C48.375 12.375 46.125 13.5 46.125 15.75V31.5C46.125 33.75 47.25 34.875 49.5 34.875H65.25C67.5 34.875 68.625 32.625 68.625 30.375Z" stroke="#1C1C1C" stroke-width="2.25" stroke-linecap="round" stroke-linejoin="round" stroke-dasharray="0.56 4.5"/>
</svg>
