<svg width="81" height="81" viewBox="0 0 81 81" fill="none" xmlns="http://www.w3.org/2000/svg">
<path d="M68.625 32.6251C66.879 26.513 63.1895 21.136 58.1148 17.3079C53.0402 13.4799 46.8566 11.4092 40.5 11.4092C34.1434 11.4092 27.9598 13.4799 22.8852 17.3079C17.8105 21.136 14.121 26.513 12.375 32.6251M68.625 48.3751C66.879 54.4872 63.1895 59.8642 58.1148 63.6922C53.0402 67.5202 46.8566 69.591 40.5 69.591C34.1434 69.591 27.9598 67.5202 22.8852 63.6922C17.8105 59.8642 14.121 54.4872 12.375 48.3751" stroke="#1C1C1C" stroke-width="2.25" stroke-linecap="round" stroke-linejoin="round" stroke-dasharray="0.56 4.5"/>
<path d="M74.25 40.5C74.25 40.5 61.875 63 40.5 63C19.125 63 6.75 40.5 6.75 40.5C6.75 40.5 20.25 18 40.5 18C60.75 18 74.25 40.5 74.25 40.5Z" fill="#EA8E39" fill-opacity="0.2" stroke="#EA8E39" stroke-width="2.25"/>
<path d="M52.875 38.25L49.5 39.375V41.625L52.875 40.5V38.25ZM49.5 39.375C45 39.375 41.625 36 41.625 31.5H39.375C39.375 37.125 43.875 41.625 49.5 41.625V39.375ZM41.625 31.5L42.75 28.125H40.5L39.375 31.5H41.625ZM28.125 40.5C28.125 33.75 33.75 28.125 40.5 28.125V25.875C32.625 25.875 25.875 32.625 25.875 40.5H28.125ZM40.5 52.875C33.75 52.875 28.125 47.25 28.125 40.5H25.875C25.875 48.375 32.625 55.125 40.5 55.125V52.875ZM52.875 40.5C52.875 47.25 47.25 52.875 40.5 52.875V55.125C48.375 55.125 55.125 48.375 55.125 40.5H52.875ZM42.75 28.125L41.625 27L40.5 25.875V28.125H42.75ZM52.875 40.5H55.125L54 39.375L52.875 38.25V40.5Z" fill="#EA8E39"/>
</svg>
