<svg width="81" height="81" viewBox="0 0 81 81" fill="none" xmlns="http://www.w3.org/2000/svg">
<path d="M11.25 42.75C11.25 40.5 13.5 38.25 15.75 38.25H22.5L24.75 40.5V56.25L22.5 58.5H15.75C13.5 58.5 11.25 56.25 11.25 54V42.75ZM56.25 40.5L58.5 38.25H65.25C67.5 38.25 69.75 40.5 69.75 42.75V54C69.75 56.25 67.5 58.5 65.25 58.5H58.5L56.25 56.25V40.5ZM37.125 66.375C37.125 64.125 39.375 61.875 41.625 61.875H46.125C47.3185 61.875 48.4631 62.3491 49.307 63.193C50.1509 64.0369 50.625 65.1815 50.625 66.375C50.625 67.5685 50.1509 68.7131 49.307 69.557C48.4631 70.4009 47.3185 70.875 46.125 70.875H41.625C39.375 70.875 37.125 68.625 37.125 66.375Z" fill="#EA8E39" fill-opacity="0.2" stroke="#EA8E39" stroke-width="2.25"/>
<path d="M31.5 48.375C36 52.875 45 52.875 49.5 48.375" stroke="#1C1C1C" stroke-width="2.25" stroke-linecap="round" stroke-linejoin="round" stroke-dasharray="0.56 4.5"/>
<path d="M63 38.25V32.625C63 26.6576 60.6295 20.9347 56.4099 16.7151C52.1903 12.4955 46.4674 10.125 40.5 10.125C34.5326 10.125 28.8097 12.4955 24.5901 16.7151C20.3705 20.9347 18 26.6576 18 32.625V38.25M63 58.5C63 63 59.625 66.375 55.125 66.375H49.5" stroke="#EA8E39" stroke-width="2.25"/>
</svg>
